<?xml version="1.0" encoding="utf-8"?>
<!-- Generator: Adobe Illustrator 24.0.2, SVG Export Plug-In . SVG Version: 6.00 Build 0)  -->
<svg version="1.1" id="Layer_1" xmlns="http://www.w3.org/2000/svg" xmlns:xlink="http://www.w3.org/1999/xlink" x="0px" y="0px"
	 viewBox="0 0 1024 1024" style="enable-background:new 0 0 1024 1024;" xml:space="preserve">
<style type="text/css">
	.st0{fill:#E5561A;}
	.st1{display:none;}
	.st2{fill:#FFFFFF;stroke:#FFFFFF;stroke-width:1.2797;stroke-miterlimit:15.1181;}
	.st3{fill:#E45620;}
	.st4{fill:#FFFFFF;}
</style>
<g id="svg8" xmlns:cc="http://creativecommons.org/ns#" xmlns:dc="http://purl.org/dc/elements/1.1/" xmlns:inkscape="http://www.inkscape.org/namespaces/inkscape" xmlns:rdf="http://www.w3.org/1999/02/22-rdf-syntax-ns#" xmlns:sodipodi="http://sodipodi.sourceforge.net/DTD/sodipodi-0.dtd" xmlns:svg="http://www.w3.org/2000/svg">
	
		<sodipodi:namedview  bordercolor="#666666" borderopacity="1.0" id="base" inkscape:current-layer="layer1" inkscape:cx="314.61478" inkscape:cy="530" inkscape:document-rotation="0" inkscape:document-units="mm" inkscape:guide-bbox="true" inkscape:pageopacity="0" inkscape:pageshadow="2" inkscape:window-height="1049" inkscape:window-maximized="0" inkscape:window-width="1743" inkscape:window-x="0" inkscape:window-y="23" inkscape:zoom="0.73" pagecolor="#2a2a2a" showgrid="false" showguides="true" units="px">
		
			<sodipodi:guide  id="guide913" inkscape:color="rgb(0,0,255)" inkscape:label="" inkscape:locked="false" orientation="0,1" position="-289.98334,135.46667">
			</sodipodi:guide>
		
			<sodipodi:guide  id="guide870" inkscape:color="rgb(0,0,255)" inkscape:label="" inkscape:locked="false" orientation="-1,0" position="135.46667,225.5762">
			</sodipodi:guide>
	</sodipodi:namedview>
	<g id="layer1" inkscape:groupmode="layer" inkscape:label="Layer 1">
		<path id="rect869" class="st0" d="M180,0h664c99.4,0,180,80.6,180,180v664c0,99.4-80.6,180-180,180H180C80.6,1024,0,943.4,0,844
			V180C0,80.6,80.6,0,180,0z"/>
	</g>
	<g id="layer2" inkscape:groupmode="layer" inkscape:label="Layer 2" class="st1">
	</g>
	<path class="st2" d="M752.9,839.4h-486c-44.5,0-80.6-36-80.6-80.6V343.1c0-44.5,36-80.6,80.6-80.6h486c44.5,0,80.6,36,80.6,80.6
		v415.8C833.5,803.3,797.4,839.4,752.9,839.4z"/>
	<path class="st3" d="M366,337.3L366,337.3c-28.3,0-51.2-22.9-51.2-51.2v-69.3c0-28.3,22.9-51.2,51.2-51.2l0,0
		c28.3,0,51.2,22.9,51.2,51.2v69.3C417.2,314.4,394.4,337.3,366,337.3z"/>
	<path class="st4" d="M369.2,311.2h-4.7c-14.5,0-26.3-11.8-26.3-26.3v-67.2c0-14.5,11.8-26.3,26.3-26.3h4.7
		c14.5,0,26.3,11.8,26.3,26.3V285C395.5,299.5,383.7,311.2,369.2,311.2z"/>
	<path class="st3" d="M667.6,337.2L667.6,337.2c-28.3,0-51.2-22.9-51.2-51.2v-69.3c0-28.3,22.9-51.2,51.2-51.2l0,0
		c28.3,0,51.2,22.9,51.2,51.2V286C718.8,314.3,695.9,337.2,667.6,337.2z"/>
	<path class="st4" d="M670.7,311.2H666c-14.5,0-26.3-11.8-26.3-26.3v-67.2c0-14.5,11.8-26.3,26.3-26.3h4.7
		c14.5,0,26.3,11.8,26.3,26.3v67.2C697,299.4,685.2,311.2,670.7,311.2z"/>
	<path class="st0" d="M733.2,776.3H292.5c-28.3,0-51.2-22.9-51.2-51.2V411.5c0-28.3,22.9-51.2,51.2-51.2h440.7
		c28.3,0,51.2,22.9,51.2,51.2v313.6C784.4,753.3,761.5,776.3,733.2,776.3z"/>
	<path class="st4" d="M465.9,495.5h-42.4c-14.5,0-26.3-11.8-26.3-26.3v-42.4c0-14.5,11.8-26.3,26.3-26.3h42.4
		c14.5,0,26.3,11.8,26.3,26.3v42.4C492.1,483.8,480.4,495.5,465.9,495.5z"/>
	<path class="st4" d="M597.6,494.4h-42.4c-14.5,0-26.3-11.8-26.3-26.3v-42.4c0-14.5,11.8-26.3,26.3-26.3h42.4
		c14.5,0,26.3,11.8,26.3,26.3v42.4C623.9,482.7,612.1,494.4,597.6,494.4z"/>
	<path class="st4" d="M729.3,495.5h-42.4c-14.5,0-26.3-11.8-26.3-26.3v-42.4c0-14.5,11.8-26.3,26.3-26.3h42.4
		c14.5,0,26.3,11.8,26.3,26.3v42.4C755.6,483.8,743.8,495.5,729.3,495.5z"/>
	<path class="st4" d="M343.9,628.6h-42.4c-14.5,0-26.3-11.8-26.3-26.3V560c0-14.5,11.8-26.3,26.3-26.3h42.4
		c14.5,0,26.3,11.8,26.3,26.3v42.4C370.2,616.8,358.4,628.6,343.9,628.6z"/>
	<path class="st4" d="M468.3,628.6h-42.4c-14.5,0-26.3-11.8-26.3-26.3V560c0-14.5,11.8-26.3,26.3-26.3h42.4
		c14.5,0,26.3,11.8,26.3,26.3v42.4C494.5,616.8,482.8,628.6,468.3,628.6z"/>
	<path class="st4" d="M599.4,628.6H557c-14.5,0-26.3-11.8-26.3-26.3V560c0-14.5,11.8-26.3,26.3-26.3h42.4
		c14.5,0,26.3,11.8,26.3,26.3v42.4C625.7,616.8,613.9,628.6,599.4,628.6z"/>
	<path class="st4" d="M729.3,628.6h-42.4c-14.5,0-26.3-11.8-26.3-26.3V560c0-14.5,11.8-26.3,26.3-26.3h42.4
		c14.5,0,26.3,11.8,26.3,26.3v42.4C755.6,616.8,743.8,628.6,729.3,628.6z"/>
	<path class="st4" d="M342.1,747.8h-42.4c-14.5,0-26.3-11.8-26.3-26.3v-42.4c0-14.5,11.8-26.3,26.3-26.3h42.4
		c14.5,0,26.3,11.8,26.3,26.3v42.4C368.3,736.1,356.6,747.8,342.1,747.8z"/>
	<path class="st4" d="M468.3,747.8h-42.4c-14.5,0-26.3-11.8-26.3-26.3v-42.4c0-14.5,11.8-26.3,26.3-26.3h42.4
		c14.5,0,26.3,11.8,26.3,26.3v42.4C494.5,736.1,482.8,747.8,468.3,747.8z"/>
</g>
<g id="Layer_2_1_">
</g>
</svg>
