<?xml version="1.0" encoding="utf-8"?>
<!-- Generator: Adobe Illustrator 24.0.2, SVG Export Plug-In . SVG Version: 6.00 Build 0)  -->
<svg version="1.1" id="Layer_1" xmlns="http://www.w3.org/2000/svg" xmlns:xlink="http://www.w3.org/1999/xlink" x="0px" y="0px"
	 viewBox="0 0 1024 1024" style="enable-background:new 0 0 1024 1024;" xml:space="preserve">
<style type="text/css">
	.st0{fill:#FF2A29;}
	.st1{display:none;}
	.st2{fill:#FFFFFF;stroke:#FFFFFF;stroke-width:1.2797;stroke-miterlimit:15.1181;}
	.st3{fill:#FFFFFF;}
</style>
<g id="Layer_4">
</g>
<g id="Layer_1_1_">
	
		<g id="svg8" xmlns:cc="http://creativecommons.org/ns#" xmlns:dc="http://purl.org/dc/elements/1.1/" xmlns:inkscape="http://www.inkscape.org/namespaces/inkscape" xmlns:rdf="http://www.w3.org/1999/02/22-rdf-syntax-ns#" xmlns:sodipodi="http://sodipodi.sourceforge.net/DTD/sodipodi-0.dtd" xmlns:svg="http://www.w3.org/2000/svg">
		<g id="layer1" inkscape:groupmode="layer" inkscape:label="Layer 1">
			<path id="rect869" class="st0" d="M182.2,0h664c99.4,0,180,80.6,180,180v664c0,99.4-80.6,180-180,180h-664
				c-99.4,0-180-80.6-180-180V180C2.2,80.6,82.8,0,182.2,0z"/>
		</g>
		<g id="layer2" inkscape:groupmode="layer" inkscape:label="Layer 2" class="st1">
		</g>
		<path class="st2" d="M694.9,757.5H330.4c-33.4,0-60.4-27-60.4-60.4V385.3c0-33.4,27-60.4,60.4-60.4h364.5
			c33.4,0,60.4,27,60.4,60.4v311.8C755.3,730.5,728.2,757.5,694.9,757.5z"/>
		<path class="st0" d="M404.8,380.9L404.8,380.9c-21.2,0-38.4-17.2-38.4-38.4v-52c0-21.2,17.2-38.4,38.4-38.4l0,0
			c21.2,0,38.4,17.2,38.4,38.4v52C443.2,363.8,426,380.9,404.8,380.9z"/>
		<path class="st3" d="M407.1,361.4h-3.6c-10.9,0-19.7-8.8-19.7-19.7v-50.4c0-10.9,8.8-19.7,19.7-19.7h3.6
			c10.9,0,19.7,8.8,19.7,19.7v50.6C426.8,352.6,417.9,361.4,407.1,361.4z"/>
		<path class="st0" d="M630.9,380.9L630.9,380.9c-21.2,0-38.4-17.2-38.4-38.4v-52c0-21.2,17.2-38.4,38.4-38.4l0,0
			c21.2,0,38.4,17.2,38.4,38.4v52C669.3,363.8,652.2,380.9,630.9,380.9z"/>
		<path class="st3" d="M633.2,361.4h-3.6c-10.9,0-19.7-8.8-19.7-19.7v-50.4c0-10.9,8.8-19.7,19.7-19.7h3.6
			c10.9,0,19.7,8.8,19.7,19.7v50.4C652.9,352.5,644.1,361.4,633.2,361.4z"/>
		<path class="st0" d="M680.1,710.3H349.6c-21.2,0-38.4-17.2-38.4-38.4V436.6c0-21.2,17.2-38.4,38.4-38.4h330.5
			c21.2,0,38.4,17.2,38.4,38.4v235.2C718.5,693,701.3,710.3,680.1,710.3z"/>
		<path class="st3" d="M479.6,499.6h-31.7c-10.9,0-19.7-8.8-19.7-19.7v-31.7c0-10.9,8.8-19.7,19.7-19.7h31.7
			c10.9,0,19.7,8.8,19.7,19.7v31.7C499.2,490.9,490.5,499.6,479.6,499.6z"/>
		<path class="st3" d="M578.4,498.8h-31.7c-10.9,0-19.7-8.8-19.7-19.7v-31.7c0-10.9,8.8-19.7,19.7-19.7h31.7
			c10.9,0,19.7,8.8,19.7,19.7v31.7C598.2,490,589.3,498.8,578.4,498.8z"/>
		<path class="st3" d="M677.1,499.6h-31.7c-10.9,0-19.7-8.8-19.7-19.7v-31.7c0-10.9,8.8-19.7,19.7-19.7h31.7
			c10.9,0,19.7,8.8,19.7,19.7v31.7C696.8,490.9,688,499.6,677.1,499.6z"/>
		<path class="st3" d="M388.1,599.4h-31.7c-10.9,0-19.7-8.8-19.7-19.7V548c0-10.9,8.8-19.7,19.7-19.7h31.7
			c10.9,0,19.7,8.8,19.7,19.7v31.9C407.8,590.6,399,599.4,388.1,599.4z"/>
		<path class="st3" d="M481.4,599.4h-31.7c-10.9,0-19.7-8.8-19.7-19.7V548c0-10.9,8.8-19.7,19.7-19.7h31.7
			c10.9,0,19.7,8.8,19.7,19.7v31.9C501,590.6,492.3,599.4,481.4,599.4z"/>
		<path class="st3" d="M579.7,599.4H548c-10.9,0-19.7-8.8-19.7-19.7V548c0-10.9,8.8-19.7,19.7-19.7h31.7c10.9,0,19.7,8.8,19.7,19.7
			v31.9C599.4,590.6,590.6,599.4,579.7,599.4z"/>
		<path class="st3" d="M677.1,599.4h-31.7c-10.9,0-19.7-8.8-19.7-19.7V548c0-10.9,8.8-19.7,19.7-19.7h31.7
			c10.9,0,19.7,8.8,19.7,19.7v31.9C696.8,590.6,688,599.4,677.1,599.4z"/>
		<path class="st3" d="M386.7,688.9H355c-10.9,0-19.7-8.8-19.7-19.7v-31.7c0-10.9,8.8-19.7,19.7-19.7h31.7
			c10.9,0,19.7,8.8,19.7,19.7v31.7C406.4,680.1,397.6,688.9,386.7,688.9z"/>
		<path class="st3" d="M481.4,688.9h-31.7c-10.9,0-19.7-8.8-19.7-19.7v-31.7c0-10.9,8.8-19.7,19.7-19.7h31.7
			c10.9,0,19.7,8.8,19.7,19.7v31.7C501,680.1,492.3,688.9,481.4,688.9z"/>
	</g>
	<g id="Layer_2_1_">
	</g>
</g>
<g id="Layer_3">
</g>
<g id="Layer_2_2_">
</g>
</svg>
