<?xml version="1.0" encoding="utf-8"?>
<!-- Generator: Adobe Illustrator 24.0.2, SVG Export Plug-In . SVG Version: 6.00 Build 0)  -->
<svg version="1.1" id="Layer_1" xmlns="http://www.w3.org/2000/svg" xmlns:xlink="http://www.w3.org/1999/xlink" x="0px" y="0px"
	 viewBox="0 0 512 512" style="enable-background:new 0 0 512 512;" xml:space="preserve">
<style type="text/css">
	.st0{fill:#FFFFFF;}
</style>
<circle class="st0" cx="258.7" cy="56" r="49.5"/>
<path class="st0" d="M144.7,234.9l10-74c0.4-2.6,3.5-21.7,21.5-32.6c18.9-11.5,38.3-4.3,40.5-3.4c2.9,2.7,17.9,16.6,41.2,16.1
	c21.7-0.5,35.7-13.1,38.8-16.1c4-1.8,15.6-6.4,29-2.5c16,4.6,28,19.3,31,37.5c3,25,6,50,9,75c-58.8,0-117.6,0-176.4,0
	C174.4,234.9,159.5,234.9,144.7,234.9z"/>
<path class="st0" d="M415,301.1H97c-14,0-25.4-11.4-25.4-25.4l0,0c0-14,11.4-25.4,25.4-25.4h318c14,0,25.4,11.4,25.4,25.4l0,0
	C440.4,289.7,429,301.1,415,301.1z"/>
<path class="st0" d="M304.9,505.3h-96.1c-9.6-2.9-22.5-8.3-25.4-18.6c-3.2-11.7,9-20.4,13.5-37.3c3-11.1,3.3-28.4-11.4-53.8
	c-18.3-24-18.6-52.7-4.6-67.6c9-9.5,21.7-11.2,27.8-11.5h96.1c21.7,0,39.4,17.6,39.4,39.4C344.3,355.9,326.6,505.3,304.9,505.3z"/>
<path class="st0" d="M177.5,207"/>
<path class="st0" d="M187.6,189.7c5.2,0,10.5,0,15.7,0"/>
</svg>
