<?xml version="1.0" encoding="utf-8"?>
<!-- Generator: Adobe Illustrator 24.0.2, SVG Export Plug-In . SVG Version: 6.00 Build 0)  -->
<svg version="1.1"
	 id="Layer_1" inkscape:version="1.0 (4035a4f, 2020-05-01)" sodipodi:docname="app_icon.svg" xmlns:cc="http://creativecommons.org/ns#" xmlns:dc="http://purl.org/dc/elements/1.1/" xmlns:inkscape="http://www.inkscape.org/namespaces/inkscape" xmlns:rdf="http://www.w3.org/1999/02/22-rdf-syntax-ns#" xmlns:sodipodi="http://sodipodi.sourceforge.net/DTD/sodipodi-0.dtd" xmlns:svg="http://www.w3.org/2000/svg"
	 xmlns="http://www.w3.org/2000/svg" xmlns:xlink="http://www.w3.org/1999/xlink" x="0px" y="0px" viewBox="0 0 2048 968.7"
	 style="enable-background:new 0 0 2048 968.7;" xml:space="preserve">
<style type="text/css">
	.st0{fill:#231F20;stroke:#000000;stroke-width:1.2797;stroke-miterlimit:15.1181;}
	.st1{fill:#231F20;}
	.st2{fill:#FFFFFF;stroke:#FFFFFF;stroke-width:1.2797;stroke-miterlimit:15.1181;}
	.st3{fill:#FF2A29;}
	.st4{fill:#FFFFFF;}
</style>
<sodipodi:namedview  bordercolor="#666666" borderopacity="1" gridtolerance="10" guidetolerance="10" id="namedview932" inkscape:current-layer="Layer_1" inkscape:cx="1024" inkscape:cy="425" inkscape:pageopacity="0" inkscape:pageshadow="2" inkscape:window-height="1075" inkscape:window-maximized="1" inkscape:window-width="1736" inkscape:window-x="0" inkscape:window-y="23" inkscape:zoom="0.34765625" objecttolerance="10" pagecolor="#ffffff" showgrid="false">
	</sodipodi:namedview>
<g id="Layer_1_1_">
	<g id="svg8" inkscape:version="1.0 (4035a4f, 2020-05-01)" sodipodi:docname="app_icon.svg">
		
			<sodipodi:namedview  bordercolor="#666666" borderopacity="1.0" id="base" inkscape:current-layer="layer1" inkscape:cx="1026.25" inkscape:cy="767.5" inkscape:document-rotation="0" inkscape:document-units="mm" inkscape:pageopacity="0" inkscape:pageshadow="2" inkscape:window-height="1075" inkscape:window-maximized="1" inkscape:window-width="1741" inkscape:window-x="0" inkscape:window-y="23" inkscape:zoom="0.81839864" pagecolor="#ff28ff" showgrid="false" units="px">
			</sodipodi:namedview>
		<path id="path836" class="st0" d="M785.2,870.6H256.4c-48.4,0-87.7-39.2-87.7-87.7V330.6c0-48.4,39.2-87.7,87.7-87.7h528.8
			c48.4,0,87.7,39.2,87.7,87.7V783C872.8,831.4,833.6,870.6,785.2,870.6z"/>
		<path id="path838" class="st1" d="M364.2,324.3L364.2,324.3c-30.8,0-55.7-24.9-55.7-55.7v-75.4c0-30.8,24.9-55.7,55.7-55.7l0,0
			c30.8,0,55.7,24.9,55.7,55.7v75.4C420,299.4,395,324.3,364.2,324.3z"/>
		<path id="path840" class="st1" d="M367.6,296h-5.1c-15.8,0-28.6-12.8-28.6-28.6v-73.1c0-15.8,12.8-28.6,28.6-28.6h5.1
			c15.8,0,28.6,12.8,28.6,28.6v73.1C396.2,283.2,383.4,296,367.6,296z"/>
		<path id="path842" class="st1" d="M692.4,324.2L692.4,324.2c-30.8,0-55.7-24.9-55.7-55.7v-75.4c0-30.8,24.9-55.7,55.7-55.7l0,0
			c30.8,0,55.7,24.9,55.7,55.7v75.4C748.1,299.3,723.1,324.2,692.4,324.2z"/>
		<path id="path844" class="st1" d="M695.7,295.9h-5.1c-15.8,0-28.6-12.8-28.6-28.6v-73.1c0-15.8,12.8-28.6,28.6-28.6h5.1
			c15.8,0,28.6,12.8,28.6,28.6v73.1C724.3,283.1,711.5,295.9,695.7,295.9z"/>
		<path id="path846" class="st1" d="M763.7,802H284.2c-30.8,0-55.7-24.9-55.7-55.7V405.1c0-30.8,24.9-55.7,55.7-55.7h479.5
			c30.8,0,55.7,24.9,55.7,55.7v341.2C819.5,777,794.5,802,763.7,802z"/>
		<path id="path848" class="st1" d="M472.9,496.5h-46.1c-15.8,0-28.6-12.8-28.6-28.6v-46.1c0-15.8,12.8-28.6,28.6-28.6h46.1
			c15.8,0,28.6,12.8,28.6,28.6v46.1C501.5,483.7,488.7,496.5,472.9,496.5z"/>
		<path id="path850" class="st1" d="M616.2,495.3h-46.1c-15.8,0-28.6-12.8-28.6-28.6v-46.1c0-15.8,12.8-28.6,28.6-28.6h46.1
			c15.8,0,28.6,12.8,28.6,28.6v46.1C644.8,482.5,632,495.3,616.2,495.3z"/>
		<path id="path852" class="st1" d="M759.5,496.5h-46.1c-15.8,0-28.6-12.8-28.6-28.6v-46.1c0-15.8,12.8-28.6,28.6-28.6h46.1
			c15.8,0,28.6,12.8,28.6,28.6v46.1C788.1,483.7,775.3,496.5,759.5,496.5z"/>
		<path id="path854" class="st1" d="M340.1,641.3H294c-15.8,0-28.6-12.8-28.6-28.6v-46.1c0-15.8,12.8-28.6,28.6-28.6h46.1
			c15.8,0,28.6,12.8,28.6,28.6v46.1C368.7,628.5,355.9,641.3,340.1,641.3z"/>
		<path id="path856" class="st1" d="M475.4,641.3h-46.1c-15.8,0-28.6-12.8-28.6-28.6v-46.1c0-15.8,12.8-28.6,28.6-28.6h46.1
			c15.8,0,28.6,12.8,28.6,28.6v46.1C504,628.5,491.2,641.3,475.4,641.3z"/>
		<path id="path858" class="st1" d="M618.2,641.3h-46.1c-15.8,0-28.6-12.8-28.6-28.6v-46.1c0-15.8,12.8-28.6,28.6-28.6h46.1
			c15.8,0,28.6,12.8,28.6,28.6v46.1C646.8,628.5,634,641.3,618.2,641.3z"/>
		<path id="path860" class="st1" d="M759.5,641.3h-46.1c-15.8,0-28.6-12.8-28.6-28.6v-46.1c0-15.8,12.8-28.6,28.6-28.6h46.1
			c15.8,0,28.6,12.8,28.6,28.6v46.1C788.1,628.5,775.3,641.3,759.5,641.3z"/>
		<path id="path862" class="st1" d="M338.2,771h-46.1c-15.8,0-28.6-12.8-28.6-28.6v-46.1c0-15.8,12.8-28.6,28.6-28.6h46.1
			c15.8,0,28.6,12.8,28.6,28.6v46.1C366.8,758.2,354,771,338.2,771z"/>
		<path id="path864" class="st1" d="M475.4,771h-46.1c-15.8,0-28.6-12.8-28.6-28.6v-46.1c0-15.8,12.8-28.6,28.6-28.6h46.1
			c15.8,0,28.6,12.8,28.6,28.6v46.1C504,758.2,491.2,771,475.4,771z"/>
	</g>
	<g id="svg8_1_" inkscape:version="1.0 (4035a4f, 2020-05-01)" sodipodi:docname="app_icon.svg">
		
			<sodipodi:namedview  bordercolor="#666666" borderopacity="1.0" id="namedview867" inkscape:current-layer="layer1" inkscape:cx="1026.25" inkscape:cy="767.5" inkscape:document-rotation="0" inkscape:document-units="mm" inkscape:pageopacity="0" inkscape:pageshadow="2" inkscape:window-height="1075" inkscape:window-maximized="1" inkscape:window-width="1741" inkscape:window-x="0" inkscape:window-y="23" inkscape:zoom="0.81839864" pagecolor="#ff28ff" showgrid="false" units="px">
			</sodipodi:namedview>
		<path id="path869" class="st2" d="M767,862.4H238.2c-48.4,0-87.7-39.2-87.7-87.7V322.4c0-48.4,39.2-87.7,87.7-87.7H767
			c48.4,0,87.7,39.2,87.7,87.7v452.4C854.6,823.2,815.4,862.4,767,862.4z"/>
		<path id="path871" class="st3" d="M346,316.1L346,316.1c-30.8,0-55.7-24.9-55.7-55.7V185c0-30.8,24.9-55.7,55.7-55.7l0,0
			c30.8,0,55.7,24.9,55.7,55.7v75.4C401.8,291.2,376.8,316.1,346,316.1z"/>
		<path id="path873" class="st4" d="M349.4,287.8h-5.1c-15.8,0-28.6-12.8-28.6-28.6v-73.1c0-15.8,12.8-28.6,28.6-28.6h5.1
			c15.8,0,28.6,12.8,28.6,28.6v73.1C378,275,365.2,287.8,349.4,287.8z"/>
		<path id="path875" class="st3" d="M674.2,316L674.2,316c-30.8,0-55.7-24.9-55.7-55.7v-75.4c0-30.8,24.9-55.7,55.7-55.7l0,0
			c30.8,0,55.7,24.9,55.7,55.7v75.4C729.9,291.1,704.9,316,674.2,316z"/>
		<path id="path877" class="st4" d="M677.5,287.7h-5.1c-15.8,0-28.6-12.8-28.6-28.6V186c0-15.8,12.8-28.6,28.6-28.6h5.1
			c15.8,0,28.6,12.8,28.6,28.6v73.1C706.1,274.9,693.3,287.7,677.5,287.7z"/>
		<path id="path879" class="st3" d="M745.5,793.8H266c-30.8,0-55.7-24.9-55.7-55.7V396.9c0-30.8,24.9-55.7,55.7-55.7h479.5
			c30.8,0,55.7,24.9,55.7,55.7v341.2C801.3,768.8,776.3,793.8,745.5,793.8z"/>
		<path id="path881" class="st1" d="M454.7,488.3h-46.1c-15.8,0-28.6-12.8-28.6-28.6v-46.1c0-15.8,12.8-28.6,28.6-28.6h46.1
			c15.8,0,28.6,12.8,28.6,28.6v46.1C483.3,475.5,470.5,488.3,454.7,488.3z"/>
		<path id="path883" class="st1" d="M598,487.1h-46.1c-15.8,0-28.6-12.8-28.6-28.6v-46.1c0-15.8,12.8-28.6,28.6-28.6H598
			c15.8,0,28.6,12.8,28.6,28.6v46.1C626.6,474.3,613.8,487.1,598,487.1z"/>
		<path id="path885" class="st1" d="M741.3,488.3h-46.1c-15.8,0-28.6-12.8-28.6-28.6v-46.1c0-15.8,12.8-28.6,28.6-28.6h46.1
			c15.8,0,28.6,12.8,28.6,28.6v46.1C769.9,475.5,757.1,488.3,741.3,488.3z"/>
		<path id="path887" class="st1" d="M321.9,633.1h-46.1c-15.8,0-28.6-12.8-28.6-28.6v-46.1c0-15.8,12.8-28.6,28.6-28.6h46.1
			c15.8,0,28.6,12.8,28.6,28.6v46.1C350.5,620.3,337.7,633.1,321.9,633.1z"/>
		<path id="path889" class="st1" d="M457.2,633.1h-46.1c-15.8,0-28.6-12.8-28.6-28.6v-46.1c0-15.8,12.8-28.6,28.6-28.6h46.1
			c15.8,0,28.6,12.8,28.6,28.6v46.1C485.8,620.3,473,633.1,457.2,633.1z"/>
		<path id="path891" class="st1" d="M600,633.1h-46.1c-15.8,0-28.6-12.8-28.6-28.6v-46.1c0-15.8,12.8-28.6,28.6-28.6H600
			c15.8,0,28.6,12.8,28.6,28.6v46.1C628.6,620.3,615.8,633.1,600,633.1z"/>
		<path id="path893" class="st1" d="M741.3,633.1h-46.1c-15.8,0-28.6-12.8-28.6-28.6v-46.1c0-15.8,12.8-28.6,28.6-28.6h46.1
			c15.8,0,28.6,12.8,28.6,28.6v46.1C769.9,620.3,757.1,633.1,741.3,633.1z"/>
		<path id="path895" class="st1" d="M320,762.8h-46.1c-15.8,0-28.6-12.8-28.6-28.6v-46.1c0-15.8,12.8-28.6,28.6-28.6H320
			c15.8,0,28.6,12.8,28.6,28.6v46.1C348.6,750,335.8,762.8,320,762.8z"/>
		<path id="path897" class="st1" d="M457.2,762.8h-46.1c-15.8,0-28.6-12.8-28.6-28.6v-46.1c0-15.8,12.8-28.6,28.6-28.6h46.1
			c15.8,0,28.6,12.8,28.6,28.6v46.1C485.8,750,473,762.8,457.2,762.8z"/>
	</g>
	<path id="path900" class="st4" d="M437.6,475.5h-46.1c-15.8,0-28.6-12.8-28.6-28.6v-46.1c0-15.8,12.8-28.6,28.6-28.6h46.1
		c15.8,0,28.6,12.8,28.6,28.6v46.1C466.2,462.7,453.4,475.5,437.6,475.5z"/>
	<path id="path902" class="st4" d="M580.9,474.3h-46.1c-15.8,0-28.6-12.8-28.6-28.6v-46.1c0-15.8,12.8-28.6,28.6-28.6h46.1
		c15.8,0,28.6,12.8,28.6,28.6v46.1C609.5,461.5,596.7,474.3,580.9,474.3z"/>
	<path id="path904" class="st4" d="M724.2,475.5h-46.1c-15.8,0-28.6-12.8-28.6-28.6v-46.1c0-15.8,12.8-28.6,28.6-28.6h46.1
		c15.8,0,28.6,12.8,28.6,28.6v46.1C752.8,462.7,740,475.5,724.2,475.5z"/>
	<path id="path906" class="st4" d="M304.8,620.3h-46.1c-15.8,0-28.6-12.8-28.6-28.6v-46.1c0-15.8,12.8-28.6,28.6-28.6h46.1
		c15.8,0,28.6,12.8,28.6,28.6v46.1C333.4,607.5,320.6,620.3,304.8,620.3z"/>
	<path id="path908" class="st4" d="M440.1,620.3H394c-15.8,0-28.6-12.8-28.6-28.6v-46.1c0-15.8,12.8-28.6,28.6-28.6h46.1
		c15.8,0,28.6,12.8,28.6,28.6v46.1C468.7,607.5,455.9,620.3,440.1,620.3z"/>
	<path id="path910" class="st4" d="M582.9,620.3h-46.1c-15.8,0-28.6-12.8-28.6-28.6v-46.1c0-15.8,12.8-28.6,28.6-28.6h46.1
		c15.8,0,28.6,12.8,28.6,28.6v46.1C611.5,607.5,598.7,620.3,582.9,620.3z"/>
	<path id="path912" class="st4" d="M724.2,620.3h-46.1c-15.8,0-28.6-12.8-28.6-28.6v-46.1c0-15.8,12.8-28.6,28.6-28.6h46.1
		c15.8,0,28.6,12.8,28.6,28.6v46.1C752.8,607.5,740,620.3,724.2,620.3z"/>
	<path id="path914" class="st4" d="M302.9,750h-46.1c-15.8,0-28.6-12.8-28.6-28.6v-46.1c0-15.8,12.8-28.6,28.6-28.6h46.1
		c15.8,0,28.6,12.8,28.6,28.6v46.1C331.5,737.2,318.7,750,302.9,750z"/>
	<path id="path916" class="st4" d="M440.1,750H394c-15.8,0-28.6-12.8-28.6-28.6v-46.1c0-15.8,12.8-28.6,28.6-28.6h46.1
		c15.8,0,28.6,12.8,28.6,28.6v46.1C468.7,737.2,455.9,750,440.1,750z"/>
</g>
<g id="Layer_5">
</g>
<g id="Layer_4">
</g>
<g id="Layer_2_2_">
	<g id="text921" transform="matrix(1 0 0 1 1041.4464 382.8302)">
		<path id="path938" d="M16.6,67V-83H100v16.6H50v50h33.4V0.4H50v50h50V67H16.6z"/>
		<path id="path940" d="M200.2-49.6h33.2V10c0,15.6-5.6,29-16.8,40.2c-11.1,11.2-24.4,16.8-40,16.8h-43.2V-49.6h33.4v100h16.6
			c4.7,0,8.6-1.7,11.8-5c3.3-3.3,5-7.3,5-11.8V-49.6L200.2-49.6z"/>
		<path id="path942" d="M367,17h-66.6v16.6c0,4.5,1.6,8.5,4.8,11.8c3.3,3.3,7.3,5,11.8,5h16.8c11.1,0,16.6-5.6,16.6-16.8H367
			C364.5,55.9,353.4,67,333.8,67h-33.4c-9.1,0-16.9-3.3-23.6-9.8c-6.5-6.5-9.8-14.4-9.8-23.6v-50c0-9.1,3.3-16.9,9.8-23.4
			c6.7-6.5,14.5-9.8,23.6-9.8h33.4c9.1,0,16.9,3.3,23.4,9.8s9.8,14.3,9.8,23.4L367,17L367,17z M300.4,0.4h33.4v-16.8
			c0-4.5-1.7-8.4-5-11.6c-3.2-3.3-7.1-5-11.8-5c-4.5,0-8.5,1.7-11.8,5c-3.2,3.2-4.8,7.1-4.8,11.6L300.4,0.4L300.4,0.4z"/>
		<path id="path944" d="M400.6,67V-49.6H434V-33c0.7-5.6,2.4-9.7,5.2-12.4c2.8-2.8,6.6-4.2,11.4-4.2h16.8c9.1,0,16.9,3.3,23.4,9.8
			s9.8,14.3,9.8,23.4V67h-33.2v-83.4c0-4.5-1.7-8.4-5-11.6c-3.2-3.3-7.1-5-11.8-5c-4.5,0-8.5,1.7-11.8,5c-3.2,3.2-4.8,7.1-4.8,11.6
			V67H400.6z"/>
		<path id="path946" d="M551-83h33.2v33.4H601V-33h-16.8v66.6c0,5.5,1.8,9.7,5.4,12.6c3.6,2.8,6.9,4.2,9.8,4.2h1.6V67h-16.8
			c-9.1,0-16.9-3.3-23.4-9.8S551,42.8,551,33.6V-33h-16.8v-16.6H551V-83z"/>
	</g>
	<g id="text923" transform="matrix(1 0 0 1 1041.4464 622.8302)">
		<path id="path949" d="M66.6-16.4h50v50c0,11.2-3.5,19.6-10.6,25.2C98.9,64.3,91.4,67,83.4,67H50c-9.1,0-16.9-3.3-23.6-9.8
			c-6.5-6.5-9.8-14.4-9.8-23.6v-83.2c0-9.1,3.2-16.9,9.6-23.4c6.5-6.7,14.5-10,23.8-10h33.4c20.9,0,32,11.1,33.2,33.4H100
			c-1.3-11.2-6.9-16.8-16.6-16.8H66.6c-4.5,0-8.5,1.7-11.8,5c-3.2,3.2-4.8,7.1-4.8,11.8v83.2c0,4.7,1.6,8.7,4.8,12
			c3.3,3.2,7.3,4.8,11.8,4.8c10.7-0.5,16.3-6.1,16.8-16.8V0.4H66.6V-16.4z"/>
		<path id="path951" d="M183.6,67h-33.4V-49.6h33.4v33.2c1.3-11.1,4.7-19.3,10.2-24.8c5.6-5.6,13.3-8.4,23.2-8.4h16.6v33.2h-33.4
			c-4.5,0-8.5,1.7-11.8,5c-3.2,3.2-4.8,7.1-4.8,11.8V67z"/>
		<path id="path953" d="M250.2-66.4V-83h33.4v16.6H250.2z M250.2,67V-49.6h33.4V67H250.2z"/>
		<path id="path955" d="M417,67h-33.2V50.4C382.5,61.5,376.9,67,367,67h-16.6c-9.1,0-16.9-3.3-23.6-9.8c-6.5-6.5-9.8-14.4-9.8-23.6
			v-50c0-9.1,3.3-16.9,9.8-23.4c6.7-6.5,14.5-9.8,23.6-9.8h33.4V-83H417V67z M383.8-33H367c-4.5,0-8.5,1.7-11.8,5
			c-3.2,3.2-4.8,7.1-4.8,11.6v50c0,4.5,1.6,8.5,4.8,11.8c3.3,3.3,7.3,5,11.8,5c4.7,0,8.6-1.7,11.8-5c3.3-3.3,5-7.3,5-11.8V-33z"/>
	</g>
</g>
<g id="Layer_3">
	<g id="text926" transform="matrix(1 0 0 1 1030 375.3991)">
		<path id="path958" class="st4" d="M16.6,67V-83H100v16.6H50v50h33.4V0.4H50v50h50V67H16.6z"/>
		<path id="path960" class="st4" d="M200.2-49.6h33.2V10c0,15.6-5.6,29-16.8,40.2c-11.1,11.2-24.4,16.8-40,16.8h-43.2V-49.6h33.4
			v100h16.6c4.7,0,8.6-1.7,11.8-5c3.3-3.3,5-7.3,5-11.8V-49.6L200.2-49.6z"/>
		<path id="path962" class="st4" d="M367,17h-66.6v16.6c0,4.5,1.6,8.5,4.8,11.8c3.3,3.3,7.3,5,11.8,5h16.8
			c11.1,0,16.6-5.6,16.6-16.8H367C364.5,55.9,353.4,67,333.8,67h-33.4c-9.1,0-16.9-3.3-23.6-9.8c-6.5-6.5-9.8-14.4-9.8-23.6v-50
			c0-9.1,3.3-16.9,9.8-23.4c6.7-6.5,14.5-9.8,23.6-9.8h33.4c9.1,0,16.9,3.3,23.4,9.8s9.8,14.3,9.8,23.4L367,17L367,17z M300.4,0.4
			h33.4v-16.8c0-4.5-1.7-8.4-5-11.6c-3.2-3.3-7.1-5-11.8-5c-4.5,0-8.5,1.7-11.8,5c-3.2,3.2-4.8,7.1-4.8,11.6L300.4,0.4L300.4,0.4z"
			/>
		<path id="path964" class="st4" d="M400.6,67V-49.6H434V-33c0.7-5.6,2.4-9.7,5.2-12.4c2.8-2.8,6.6-4.2,11.4-4.2h16.8
			c9.1,0,16.9,3.3,23.4,9.8s9.8,14.3,9.8,23.4V67h-33.2v-83.4c0-4.5-1.7-8.4-5-11.6c-3.2-3.3-7.1-5-11.8-5c-4.5,0-8.5,1.7-11.8,5
			c-3.2,3.2-4.8,7.1-4.8,11.6V67H400.6z"/>
		<path id="path966" class="st4" d="M551-83h33.2v33.4H601V-33h-16.8v66.6c0,5.5,1.8,9.7,5.4,12.6c3.6,2.8,6.9,4.2,9.8,4.2h1.6V67
			h-16.8c-9.1,0-16.9-3.3-23.4-9.8S551,42.8,551,33.6V-33h-16.8v-16.6H551V-83z"/>
	</g>
	<g id="text928" transform="matrix(1 0 0 1 1030 615.3991)">
		<path id="path969" class="st4" d="M66.6-16.4h50v50c0,11.2-3.5,19.6-10.6,25.2C98.9,64.3,91.4,67,83.4,67H50
			c-9.1,0-16.9-3.3-23.6-9.8c-6.5-6.5-9.8-14.4-9.8-23.6v-83.2c0-9.1,3.2-16.9,9.6-23.4c6.5-6.7,14.5-10,23.8-10h33.4
			c20.9,0,32,11.1,33.2,33.4H100c-1.3-11.2-6.9-16.8-16.6-16.8H66.6c-4.5,0-8.5,1.7-11.8,5c-3.2,3.2-4.8,7.1-4.8,11.8v83.2
			c0,4.7,1.6,8.7,4.8,12c3.3,3.2,7.3,4.8,11.8,4.8c10.7-0.5,16.3-6.1,16.8-16.8V0.4H66.6V-16.4z"/>
		<path id="path971" class="st4" d="M183.6,67h-33.4V-49.6h33.4v33.2c1.3-11.1,4.7-19.3,10.2-24.8c5.6-5.6,13.3-8.4,23.2-8.4h16.6
			v33.2h-33.4c-4.5,0-8.5,1.7-11.8,5c-3.2,3.2-4.8,7.1-4.8,11.8V67z"/>
		<path id="path973" class="st4" d="M250.2-66.4V-83h33.4v16.6H250.2z M250.2,67V-49.6h33.4V67H250.2z"/>
		<path id="path975" class="st4" d="M417,67h-33.2V50.4C382.5,61.5,376.9,67,367,67h-16.6c-9.1,0-16.9-3.3-23.6-9.8
			c-6.5-6.5-9.8-14.4-9.8-23.6v-50c0-9.1,3.3-16.9,9.8-23.4c6.7-6.5,14.5-9.8,23.6-9.8h33.4V-83H417V67z M383.8-33H367
			c-4.5,0-8.5,1.7-11.8,5c-3.2,3.2-4.8,7.1-4.8,11.6v50c0,4.5,1.6,8.5,4.8,11.8c3.3,3.3,7.3,5,11.8,5c4.7,0,8.6-1.7,11.8-5
			c3.3-3.3,5-7.3,5-11.8V-33z"/>
	</g>
</g>
</svg>
