<?xml version="1.0" encoding="utf-8"?>
<!-- Generator: Adobe Illustrator 24.0.2, SVG Export Plug-In . SVG Version: 6.00 Build 0)  -->
<svg version="1.1"
	 id="Layer_1" inkscape:version="1.0 (4035a4f, 2020-05-01)" sodipodi:docname="app_icon.svg" xmlns:cc="http://creativecommons.org/ns#" xmlns:dc="http://purl.org/dc/elements/1.1/" xmlns:inkscape="http://www.inkscape.org/namespaces/inkscape" xmlns:rdf="http://www.w3.org/1999/02/22-rdf-syntax-ns#" xmlns:sodipodi="http://sodipodi.sourceforge.net/DTD/sodipodi-0.dtd" xmlns:svg="http://www.w3.org/2000/svg"
	 xmlns="http://www.w3.org/2000/svg" xmlns:xlink="http://www.w3.org/1999/xlink" x="0px" y="0px" viewBox="0 0 2048 1487.7"
	 style="enable-background:new 0 0 2048 1487.7;" xml:space="preserve">
<style type="text/css">
	.st0{fill:#212323;}
	.st1{fill:#FFFFFF;}
	.st2{fill:#E45620;}
	.st3{display:none;}
	.st4{fill:#FFFFFF;stroke:#FFFFFF;stroke-width:1.2797;stroke-miterlimit:15.1181;}
</style>
<sodipodi:namedview  bordercolor="#666666" borderopacity="1" gridtolerance="10" guidetolerance="10" id="namedview932" inkscape:current-layer="Layer_1" inkscape:cx="1024" inkscape:cy="425" inkscape:pageopacity="0" inkscape:pageshadow="2" inkscape:window-height="1075" inkscape:window-maximized="1" inkscape:window-width="1736" inkscape:window-x="0" inkscape:window-y="23" inkscape:zoom="0.34765625" objecttolerance="10" pagecolor="#ffffff" showgrid="false">
	</sodipodi:namedview>
<g id="Layer_5">
</g>
<g id="Layer_4">
</g>
<line class="st0" x1="-602.7" y1="1562.6" x2="2846.3" y2="1562.6"/>
<path class="st1" d="M1179.3,243.9c-22.1,0-42.8,0-63.7,0c1,9.1,2,19.1,3.1,28.6c14,0,28.2-1.6,41.6,0.7c6.8,1.1,16.6,8.9,17.4,14.5
	c1.8,13.6-1,27.7-2,42.4c10.3,0,20.5,0,32.4,0c-0.4-2.3-1-5.7-1.7-9.1c-2.3-12.3,3.8-19.2,16.2-19.6c13-0.4,14.8,8.4,14,18.8
	c-0.9,12.2-0.5,24.4-0.9,36.6c-0.8,29.9-0.8,29.9-31,30.1c1.1,5.1,2.9,10,2.9,14.8s-1.9,9.6-2.8,14c10.8,0,20.7,0,32.2,0
	c-0.4-3.6-3.2-9.8-1-12.8c4.7-6.3,12-10.8,18.2-16.2c4.6,6,9.3,11.9,13.5,18.1c0.8,1.1-1.1,3.5-1.5,5.5c-2.2,10.6-0.8,25.9-7.5,30.5
	c-8.2,5.7-23.2,2.8-35.4,3.2c-10,0.2-20.5,1.7-29.6-1c-6.6-2.1-15.6-9.7-16.1-15.3c-1.8-22.7-0.8-45.6-0.8-69c-10.7,0-19.9,0-31.3,0
	c0,39.3,0.4,77.8-0.3,116.3c-0.1,8.3-3.3,16.8-7,24.3c-0.9,1.8-13,1.9-14.2-0.1c-4.3-7.7-6.4-16.5-10.1-27.3
	c-8.8,0-28.2,7-26.9-14.8c1-18,16.6-15.1,30.5-11.2c0-20.8,0-40,0-59.1c-10.2,0-20.2,0-30,0c0,13.9,1.5,28.4-0.8,42.4
	c-0.9,5.5-9.7,13.6-15.4,14.1c-19.9,1.6-40.3,1.6-60.1-0.6c-5.4-0.6-14.9-13.6-13.4-16.6c6.8-12.8-14-35.8,15.2-38.8
	c4.5-0.5,11.7,7,14.2,12.3c1.9,4.3-1.5,10.8-2.6,15.9c11.5,0,22.1,0,33.4,0c0-9.4,0-18.7,0-28.1c-9.2-1.5-20-0.4-26.3-5
	c-5-3.8-4.2-14.3-6.6-24.3c-16.6,0-36.6,0-59.3,0c0,30.6-0.8,61.4,0.3,92c0.6,16.8-3.4,25.6-23.1,20.5c-2.6-0.6-5.4-0.6-8-0.4
	c-28.6,2.9-32.3-1.1-25.4-28.9c-10.6,1-20.9,1.8-32.2,2.8c-0.3,1.1-0.9,2.8-1.3,4.5c-1.7,6.9-1.9,14.8-5.7,20.5
	c-1.7,2.4-14.4,2.4-15.8,0.1c-3.7-6.2-4-14.2-5.5-21.6c-0.3-1.2,0.6-2.6,0.6-3.8c1-30.4,1-30.4,27.1-28c2.6-9.5,4.1-19,8.2-27.3
	c0.9-1.7,14.4-1.5,16.1,1.3c4.5,7.4,5.7,16.5,8.4,25.6c7.4,0,17.7,0,27.2,0c0-23.8-1.1-48.2,0.4-72.4c1.1-19.1,17.1-14,30.8-12.5
	c0-19.3,0-38.2,0-57.7c-10.5,0-19.7,0-28.8,0c-2.4,28.8-4.1,30.3-33.4,28.1c0.8,3.3,2.9,6.9,1.9,9c-3.6,7-8.3,13.6-12.5,20.4
	c-5.7-5.8-15.2-10.9-16.6-17.5c-2.7-12.3-0.8-25.6-0.8-38.4c-26.3-3.8-40.2-26.1-29.4-49.2c2.2-4.6,10.5-9.5,15.6-9.1
	c5.1,0.4,11.7,6.2,14,11.2c2.2,4.5-0.4,11.2-0.9,17.7c40.2,0,80.3,0,121.2,0c0,0,1.3-1,1.4-2.1c1.4-8.1,1.8-16.6,4.7-24.3
	c0.8-1.8,13.5-2.4,14.2-1c3.3,7.3,4.5,15.6,6.3,23.6c0.3,1.2-0.6,2.7-0.1,3.8c8.7,21-2.3,28.8-23.9,29.5c-1.9,9.6-3.7,18.8-5.5,28.1
	c11.2,0,21.6,0,33.3,0c-1.7-11.9-7.8-29.3,13.9-29c6.4,0.1,12.6,14.7,22.3,26.9c23,2.4,24.2,3.9,21.2,29.5c10.3,0,20.7,0,31.3,0
	c0-8.9,0-18.7,0-28.6c-29.2,1.2-30,0.5-29.7-27.7c0-7-2.4-15.2,0.4-20.9c5.7-11.7-11.6-29.8,9.3-35.6c12.4-3.4,26.4-1.6,39.7-1.7
	c18-0.1,36.2-1.1,54.1,0.9c6,0.6,16.3,12,15.7,13c-9.1,13.4,14.4,36.2-12.9,43C1179.8,276.1,1174.8,265.7,1179.3,243.9z"/>
<path class="st1" d="M1267.9,643.6c13.7,0,28.3,0,42.9,0c19.7,0.1,15.6,14,15.8,26.2c11.9,3.2,33.3-3.3,29.7,17.7
	c-1.1,7-16.3,12-25,18c-1.5-1.3-3.1-2.7-4.6-4c0,5,1.9,11.2-0.5,14.7c-3.4,5.1-10.3,11.5-15.3,11.3c-5.4-0.2-14.2-7.4-14.5-12.2
	c-1.3-14.3,0.8-28.8,1.4-42.5c-14.7,0-29.7,1-44.7-0.2c-20.2-1.6-16.8-16.4-15.1-29.2c-32.9-1.2-35-3.3-30.2-30.6
	c-15.8,0.9-31.5,1.8-47.2,2.4c-2.6,0.1-7.1-1.1-7.4-2.2c-2.6-14.5-6.3-29.2-5.5-43.6c0.3-3.9,14-7.4,21.7-10.8
	c1.7-0.7,3.8-0.6,6.1-0.9c1.3-10.1,2.4-20.1,3.2-26.7c-10.8-3-21.2-5.1-30.5-9.1c-1.9-0.9-2-12.5,0-13.5c9.3-4.4,19.7-6.7,30.2-9.8
	c-4.3-23.9-4.1-23.3,26.9-23.1c20,0.1,40.1-2.6,61.1-4c0.8-11.9-3.3-29.5,17.2-27.7c21.6,1.9,11.5,18.8,10.3,31
	c11.5-1,22-1.8,32.4-2.7c0.1-27.6,0.9-27.3,29.7-27c33.8,0.4,67.8-0.7,101.6-1.7c16.2-0.5,20.8,6.3,17.6,29.3
	c4.5,0,9.4-1.3,13.1,0.2c6.5,2.8,12.1,7.3,18.1,11.2c-10.2,13.7,12.3,34.8-10,44.8c-14,6.3-22.8-7.5-18.6-26.6
	c-25.3,0-50.9,1.1-76.4-0.4c-20.9-1.2-16.1-16.4-12.8-29.7c-11.2,0-21.2,0-32.3,0c0,9.6,0,19.4,0,30.6c12.6-1.7,30.4-7.8,29.7,12
	c-0.3,6.8-16.1,13-29,22.7c-1,19.7-3.4,21.9-30.5,19.8c0,14,1.3,28.2-0.6,41.9c-0.8,5.8-8.3,10.8-12.8,16.2
	c-5.9-5.1-16.1-9.6-16.8-15.3c-1.9-13.5,0.8-27.5,1.5-42c-10.3,0-20.8,0-30.1,0c0,13.6,0,28,0,42.3
	C1267.9,614,1267.9,627.8,1267.9,643.6z M1234.4,557.6c3.2-10,3.4-20.8,9.2-25.3c5.7-4.5,17-2.8,24.9-3.8c0-9.6,0-19.3,0-28.9
	c-10,1.1-19.9,2.2-29.2,3.3c-2.4,8.3-2.3,19.2-7.7,23c-6.1,4.3-17.2,1.9-25.4,2.4c0,10.7,0,21.6,0,32.1
	C1216.4,559.4,1226.3,558.4,1234.4,557.6z"/>
<path class="st1" d="M1236.2,926.6c-4.1,0.9-10.1,4.1-12.8,2.4c-6.6-4-11.7-10.2-17.4-15.6c6-4.9,11.9-13.7,18-13.9
	c48.6-1.2,97.2-0.7,145.9-0.7c15.2,0,19.8,9.2,15.1,30.6c15.3-0.7,30.6-2.9,45.6-1.2c6.3,0.7,11.5,9.6,17.2,14.7
	c-5.4,4.9-10.3,13.5-16,14c-14.9,1.2-30.2-1.1-45.4-2.1c0,9.7,0,19.6,0,29.4c32.7-0.5,37.8,9.8,28.1,56.8c16.1,0,32.7-1.5,48.8,0.4
	c19.1,2.3,14.8,16.4,11,30.1c4.7-0.5,8-1.7,10.8-1.1c6.8,1.6,14.7,2.6,19.1,6.8c2.8,2.7,2.6,12.5-0.4,15.6
	c-3.7,3.9-11.5,4.6-17.7,5.7c-3.2,0.6-6.6-1.1-10.1-1.1c-28.2,0.2-28.2,0.4-30.5-26.6c-9.2,0-18.4,0-28.3,0c0,9.5,0,18.2,0,24.9
	c10.3,3.8,25.3,5.3,26.9,10.6c4.1,12.9,2.9,27.6,1.4,41.3c-0.4,3.4-10.3,7.9-16.2,8.3c-19.3,1-38.8,1.3-58.1-0.2
	c-5.2-0.4-14.3-9-13.7-12.3c1.3-6.2,7.5-12.5,13.5-16.2c3.3-2.1,10.2,1.2,16,2.2c0-9.8,0-19.6,0-29.7c-7.7-1.1-18.8,0.1-24.9-4.5
	c-5.4-4-5.4-14.7-7.9-23.1c-29.2-3.8-30.5-5.1-27.1-30.4c-10.3,0-20.7,0-30.5,0c-1.1,7.3,0.4,18-4.5,23.2c-4,4.3-15.6,1.9-23.9,2.6
	c-1.4,0.1-2.7,0.2-4.1,0.4c-27.2,2.9-29.9,0.6-28.1-25.2c-12.6-1.2-31.6,5.1-30.5-16.8c2-41.7,2.4-41.7,30.6-40.6
	c0.5-9.4,1.4-18.8,1.4-28.2C1238,947.7,1236.9,938.3,1236.2,926.6z M1266.4,1014.1c30.6,0,60.4,0,91.4,0c0-30.4,0-58.2,0-86.3
	c-31.9,0-61.5,0-92.1,0c0.9,14.2,2.6,28,2.6,41.8C1268.5,984,1267.2,998.3,1266.4,1014.1z"/>
<path class="st1" d="M609.3,530.8c0-11.1,0-20.3,0-28.8c-24.4,0-50.2,0.9-75.8-0.7c-5.6-0.4-14-8.9-14.8-14.5
	c-0.6-4.3,8.2-13.4,13.8-14.1c14.5-2.1,29.6-0.7,46.1-0.7c0.5-11.9-5.6-30.6,16.2-28.4c6.9,0.7,12.3,16,18.4,24.7
	c-1.5,1.8-3.2,3.6-4.7,5.3c19.8,0,39.7,0,59.6,0c-0.6-29.2-0.1-29,29.9-28.7c24.5,0.2,49.1-2.6,73.6-1.9c5.6,0.1,11.1,8.4,16.7,12.9
	c-5.2,5.6-10.1,15.6-15.8,16c-24.5,1.8-49.3,0.7-74.9,0.7c0,8.9,0,18.2,0,27.3c44,0,88.6,0,133.2,0.1c3.2,0,9.1,1.1,9.3,2.3
	c2.9,15.2,7.8,30.7,6.6,45.8c-1,12.9-14.5,10.5-24.9,8.6c-1.3-0.2-2.7,0.4-5.1,0.7c0.8,13.5,3.2,27.3,1.4,40.7
	c-0.8,6.1-9.8,11.3-15.1,16.9c-5.1-5.5-10.8-10.3-14.8-16.4c-1.7-2.6,0.8-7.4,1.5-12.6c-12.9-1.3-33.2,6.9-31.6-14.5
	c0.5-6.6,15.8-12.2,24.4-18.2c1.5,1.5,3.1,2.9,4.7,4.5c0-8.7,0-17.5,0-28.9c-29.4,0-59.2,0-89.8,0c0,10.3,0,19.1,0,28.9
	c12.4,1.7,32.4-4.3,30.8,16.9c-1.4,16.9-16.3,13.5-30.1,9.5c-1.5,12.8,7,32.8-17.4,30.5c-17.6-1.7-13.9-15.9-11.4-27.3
	c-9.2-1.5-20.4-0.1-25.9-4.9c-5.2-4.6-4.6-15.3-6.6-24.1c-12.9,0-28.2,1.3-43-0.7c-5.9-0.9-15.1-9.2-14.9-14
	c0.3-5.5,8.2-12,14.4-15.4C596.4,526.3,603.2,529.6,609.3,530.8z M637.3,529.2c10.7,0,20.9,0,31.3,0c-0.6-8.9-1.1-18.1-1.8-27.2
	c-10.3-0.6-20.5-1.2-29.5-1.7C637.3,510.3,637.3,519.5,637.3,529.2z"/>
<path class="st1" d="M1403.2,214.9c23.9,0,47.6-0.5,71.5,0.1c23.1,0.6,32.5,9,32.8,30.9c0.5,45.9,0.6,91.9,0,137.8
	c-0.4,22.2-12.1,33.2-35.9,33.5c-47,0.6-93.9,0.6-140.9,0c-23.7-0.2-35.4-11.3-35.7-33.7c-0.6-44.6-0.6-89.3,0-133.9
	c0.3-23.3,12.1-34,37-34.6C1355.6,214.4,1379.5,214.9,1403.2,214.9z M1474.4,317.2L1474.4,317.2c0.1-12.3,0.5-24.7,0-36.9
	c-1-22.7-11.6-33.3-35.5-33.8c-25.9-0.6-51.8-0.7-77.7,0.1c-20.8,0.6-32.3,10.8-33.1,29.9c-1,25.3-1.1,50.6,0,75.8
	c1,22,12,32.2,34.7,33.2c26.5,1,53.2,1,79.8,0c20.2-0.7,30.5-11.7,31.6-31.4C1475.1,341.9,1474.4,329.6,1474.4,317.2z"/>
<path class="st1" d="M621.6,1157c-23.2,0-46.3,0.4-69.6-0.1c-23.9-0.5-35-10.8-35.2-33.7c-0.4-44.1-0.5-88.1,0-132.2
	c0.3-25.8,11.7-36.3,39.2-36.6c44.9-0.4,90-0.4,134.9,0c27.2,0.2,38.4,11.1,38.7,37.1c0.4,42.8,0.4,85.6,0,128.3
	c-0.3,26-11.5,36.6-38.7,37.1C667.9,1157.3,644.7,1157,621.6,1157z M623.2,1125.3c13.7,0,27.3,0.5,40.8-0.1
	c19-0.9,31.3-10.6,31.9-28.9c1-26.5,0.8-53.1-0.1-79.7c-0.6-18.1-11.7-29.3-30.9-29.9c-27.9-0.9-55.9-1.3-83.7,0.1
	c-21.2,1.1-30.5,11.5-31.1,31.6c-0.8,25.3-0.8,50.6,0.1,75.8c0.6,19.4,11.7,29.7,32.2,30.9C595.9,1125.9,609.6,1125.3,623.2,1125.3z
	"/>
<path class="st1" d="M622.1,214.7c23.2,0,46.3-0.4,69.6,0.1c26.2,0.5,37.8,11.1,38.2,35.6c0.5,44.1,0.5,88.1,0,132.2
	c-0.4,23.5-12.1,34.3-37.1,34.5c-46.3,0.5-92.7,0.5-139,0c-24.8-0.2-36.2-11.4-36.6-35c-0.5-44.7-0.5-89.4,0-134.2
	c0.3-22.5,11.6-32.8,35.6-33.2C575.6,214.5,598.8,214.7,622.1,214.7z M549.8,315c0,11.7,0,23.3,0,35c0,1.3,0,2.6,0.1,3.9
	c1.7,20.4,12,31.1,33.6,31.7c25.9,0.7,51.8,0.9,77.7-0.1c23.6-1,33.8-10.5,34.8-32.6c1.1-25.3,1-50.6,0.1-75.8
	c-0.8-19.3-12-29.8-32.7-30.4c-26.5-0.9-53.2-0.9-79.8,0c-22.5,0.6-32.9,11.4-33.8,33.4C549.5,291.7,549.8,303.3,549.8,315z"/>
<path class="st1" d="M998.3,1013.8c0,24.9,1,48.9-0.9,72.7c-0.4,4.6-14.3,13.4-18.4,11.8c-14-5.6-38.3,12.6-42.4-13.5
	c-2.8-18.5-2.8-38.3,1.1-56.4c1.7-7.9,16.3-13.2,25-19.8c1.5,1.3,2.9,2.7,4.5,4.1c0-8.7,0-17.5,0-28.1c-32.7,0-65,0.5-97.4-0.4
	c-7.1-0.1-15.4-3.3-20.8-7.7c-2.6-2.1-1.5-13.1,1.5-15.2c5.1-3.4,13.1-3.6,20-4c12.5-0.5,25-0.1,34.7-0.1c3.2-9.2,5-18.7,9.8-26.6
	c1.5-2.6,15.2-2.3,16.1-0.4c3.7,7.9,4.6,17,6.8,26.5c18.1,0,39.3,0,61,0c-0.9-14.2-3.7-29.3-2.2-44c1.9-19.3,18.1-14.6,32.7-10.8
	c-1.5-7.2-4.8-13.2-2.9-16.6c3.3-6,10-10.3,15.2-15.3c5.1,5,14.4,10,14.5,15.1c1.1,38,1.1,76.1-0.1,114.1c-0.1,5-9.2,13.1-14.9,14
	C1026.9,1015.2,1011.9,1013.8,998.3,1013.8z"/>
<path class="st1" d="M820.3,928c-12,0-21.8,0-32.3,0c0,23.3,0.9,47.3-0.6,71.1c-0.4,5.2-9.8,14.1-14.4,13.7
	c-6-0.5-15.8-8.1-16.2-13.2c-1.8-23.7-0.8-47.6-0.8-69.9c-22.6,0-47.7,1.1-72.6-0.7c-5.7-0.4-14-10.1-15.2-16.5
	c-2.4-12.9-0.8-26.5-0.8-40.7c-13.7,0-27.8,1.5-41.2-0.6c-6.6-1.1-12.3-8.9-18.2-13.6c5.9-5,11.2-10.8,17.9-14.3
	c2.8-1.6,8.6,1.5,14.4,2.8c-2-14.3-9.7-31,13.4-32.2c41.9-2.1,44.7,0.4,43.9,28.6c13,1.1,32.8-3.8,30,17.6
	c-2.2,16.3-17.1,12.9-30.5,8c0,11.8,0,21.8,0,32c19.9,0,40.3,0,62.3,0c-1.8-11.8-8-28.6,12.9-28.8c21.3-0.2,14.7,17,14,29
	c30.8,0,60.6,0,91.6,0c0-2.9,0.1-6.1,0-9.1c-0.8-11.1,2.7-20.7,15.7-20.4c14.5,0.4,16.5,10.6,14.5,22.5c-0.9,5.6,0.3,11.5,0.3,17.3
	c0,13.7-5.9,20.1-21.7,18c-12.3-1.6-24.9-0.4-38.3-0.4c-2,11.3,4.3,30.6-18,28.8C812.5,954.9,816.3,940.7,820.3,928z"/>
<path class="st1" d="M844.1,787.9c7.3-1.3,13.8-4.5,17.4-2.7c6.4,3.2,11,9.5,16.3,14.5c-5.2,4.7-9.7,12-16,13.7
	c-8.8,2.3-19.5,2.6-28.1-0.1c-6.8-2.1-15.6-9.5-16.3-15.4c-1.9-13.4,0.6-27.3,1.3-41.1c-28.6,1.7-30.2,0.2-32.2-28.1
	c-10-0.5-20-1.7-30-1.6c-30.1,0.4-32.3-1.7-27.6-29.4c-5.5,1-11.9,4.3-15.3,2.4c-6.1-3.3-10.6-9.6-15.7-14.6
	c5.5-4.7,10.6-13.2,16.3-13.6c23.7-1.6,47.7-0.6,71.5-0.6c4.1-28.9,4.1-28.9,31-26.4c0.6-1.1,1.8-2.3,1.7-3.4
	c-1.8-11.7-5.6-25.9,12.8-26.7c17.6-0.9,17.9,12.4,15.7,25c-0.3,1.2-0.3,2.6-0.3,3.9c0.3,29.4-1,30.5-29.4,27.2
	c0,18.8,0,37.6,0,56.1C850.3,732.7,855,743.3,844.1,787.9z"/>
<path class="st1" d="M1024.2,529.2c29.9,0,56.9,0,84,0c6.6,0,13.3-0.2,19.8-1c12.4-1.5,19.5,5.1,17.9,15.2
	c-0.9,5.6-10.5,13.6-16.5,13.9c-38.4,1.6-77,1.6-115.4,1.7c-40.6,0.1-81.2,0.1-121.7-1.2c-5-0.1-13.7-8.1-13.9-12.9
	c-1.5-20.3-1.4-40.7,0.1-61c0.3-4.1,10-11.7,13-10.7c6.5,1.9,13,7.5,16.7,13.2c2,3.2-1.4,9.7-2.2,14.1c9.1,1.2,20.5-0.4,25.8,4.4
	c5.6,5,5.5,15.9,8,24.7c18.4,0,38,0,59.2,0c0.1-11.1-8.3-29.8,14.2-28.8C1032.2,501.7,1027.8,517,1024.2,529.2z"/>
<path class="st1" d="M1474.7,670.6c5.9,26.1,3.1,28.9-27.7,30.4c0,13.2-0.3,26.4,0.1,39.6c0.4,14.6-7.1,19.1-29.6,15.9
	c-2.4,11.7,3.7,31.1-18.4,28.7c-17.1-1.8-14.9-15.4-8.4-29.4c-7.4,0.9-13.7,3.4-17.1,1.5c-6.5-3.8-11.4-10.2-17-15.4
	c6.4-4,12.3-10.7,19-11.7c13.5-1.8,27.6-0.6,40.6-0.6c0-11.1,0-21,0-31.8c-5.1,1-11.5,4.1-14.9,2.3c-6.1-3.3-10.5-9.7-15.6-14.7
	c5.5-4.7,10.5-12.6,16.5-13.5c14.2-2.1,29-0.6,44.9-0.6c-5.1-23.3,6.3-31.1,28.5-28.2c0-23.8-1.1-46.4,0.8-68.8
	c0.5-5.8,10.3-10.8,15.8-16.3c4.7,5.6,13.3,11.1,13.7,16.8c1.3,23.5-0.4,47.2,0,70.7C1506.3,672,1502.6,675.6,1474.7,670.6z"/>
<path class="st1" d="M1477.2,986.5c0-21,0-39.7,0-58.3c-26.2,1-31-2.1-30.2-20.1c1.4-39.6,1.8-40,31.3-36.6
	c-1.1-18.2-2.4-36.2-3.6-54.9c-5.5-1-10.6-0.4-13-2.6c-5.5-5-9.8-11.2-14.5-16.9c6.6-3.8,13.1-7.7,19.9-11.3c0.8-0.5,2.6,0.7,3.8,1
	c11.1,1.7,26.4-0.2,32.3,6c6,6.4,3.7,20.7,3.6,31.5c-0.6,43.5-2.3,86.9-2.8,130.4c-0.1,13.4,1.9,26.9,2.9,40.2
	c1,14.3-5.5,20.5-20.8,18.6c-6-0.7-12.3-0.9-18.1,0c-12.3,1.7-21.1-1.6-20.9-14.5c0.1-11.5,8.3-15.4,19.8-13.7
	C1470,985.6,1473.3,986.1,1477.2,986.5z"/>
<path class="st1" d="M787.8,300.3c0,10.3,0,19.7,0,30.6c12.4-0.5,31.6-7.8,30.5,15.3c-2.2,41.8-2.8,41.8-31.4,40.1
	c0.6,4.5,3.3,10,1.4,12.6c-4.3,6.4-10.8,11.5-16.5,17.3c-4.8-6.4-13.4-12.8-13.8-19.4c-1.4-23.7,0.5-47.5,0.4-71.3
	c-0.1-22.5-1.3-45.1-1.7-67.6c0-2.4,1.3-6.8,2.4-6.9c15.8-2.6,31.9-6.6,47.6-5.7c12.9,0.7,13.3,12.5,11,23c-0.3,1.1,0.6,2.3,1.3,4.1
	c5.7,0,13.5-2.2,17.1,0.5c5.4,4.1,10.7,11.9,10.5,17.7c-0.3,4.3-9.4,11.3-14.9,11.7C817.2,303.2,802.5,301.1,787.8,300.3z"/>
<path class="st1" d="M1147.1,957.4c0,10.3,0,18.6,0,21.4c12.3,7.9,25.4,12.3,30.4,20.9c4.7,8.3,0.6,20.9,0.5,31.6
	c-0.1,6.9,1.7,14.6-0.9,20.5c-3.1,7-9.8,12.6-15.1,18.8c-5.4-6.1-14.4-11.5-15.4-18.2c-1.9-12.9,0.8-26.4,1.5-40.6
	c-15.4,0.9-30.1,2.1-44.7,2.4c-3.7,0.1-10.6-1.9-10.8-3.6c-2-15.4-5.1-31.2-2.9-46.3c0.6-4.5,16.6-6.9,27.8-11.3
	c0.5-3.6-1.4-14.6,3.4-19.6c5.2-5.5,16.7-5.3,21.7-9.5c6.4-8.4,12.5-23.7,19.1-23.8c21.2-0.5,16.8,16.3,13.7,31
	c6.4-1.3,12.1-4.4,14.9-2.8c6.5,3.8,11.7,9.7,17.5,14.8c-5.5,4.6-10.5,12.5-16.6,13.4C1177.3,958.8,1163.3,957.4,1147.1,957.4z"/>
<path class="st1" d="M548.7,697.9c-6,0.9-13.1,4-17.4,1.9c-5.6-2.7-11.9-9.2-12.5-14.7c-0.5-4,7.1-12.8,11.6-13
	c25.9-1.2,52.1-0.6,77.1-0.6c2-7.5,3.8-17.4,8-26.2c0.9-1.8,14.8-1.5,16.1,1.1c4.2,7.7,5.1,17,7,24.3c8,2.2,18,3.8,26.7,7.9
	c2.2,1.1,2,14.1-0.5,15.2c-8.2,3.9-17.7,4.9-27.4,7.2c2.6,25.8,2,26.4-29.7,26c-10.2-0.1-20.3-0.1-30.5,0
	C547,727.3,546.3,726.6,548.7,697.9z"/>
<path class="st1" d="M877.7,1098.6c-13.1,0-25.8,0.7-38.3-0.2c-6.8-0.5-14.7-2.3-19.4-6.4c-2.9-2.6-3.1-13-0.3-15.3
	c4.7-3.9,12.8-4.4,19.5-5.7c2.4-0.5,5.1,1,7.5,1.6c0-14.2-1.8-28.2,0.8-41.3c1.3-6.7,10.3-11.9,16-17.7c4.8,5.7,12.8,11.1,13.8,17.4
	c2.2,12.9,0.6,26.4,0.6,39.7c27.4-0.7,27.3-0.7,27.6,28.4c0.1,9.8,1.7,19.7,2.7,30.4c4.1-0.7,11-4.1,14-2.2
	c6.3,4.1,10.6,11.1,15.6,16.9c-5.7,4-11.5,8.1-17.4,11.9c-0.8,0.5-2.8-0.1-3.8-0.9c-11.5-8.4-35.5,14.9-38.7-13.1
	C876.3,1127.8,877.7,1113.2,877.7,1098.6z"/>
<path class="st1" d="M1204.8,674c28.5-5.5,31.6-2.3,31.3,24.1c-0.5,32.1-0.1,64.3,0.6,96.4c0.3,11.4-1.8,20.3-16,18.8
	c-12.4-1.3-15.2-9-14.3-21c1.5-23.2,0.5-46.7,0.5-70c0-7.5,0-15.1,0-21c-8.6-2.3-24.5-3-26-7.9c-4.2-13.2-3.2-28.3-2.2-42.7
	c0.1-2.8,10.2-7.5,14.5-6.7c5.4,1.1,11.6,6.4,13.7,11.4C1208.7,660.1,1205.8,666.7,1204.8,674z"/>
<path class="st1" d="M1147.7,872.1c-2,12.6,2.9,28.7-16.7,26.9c-19.9-1.8-14.5-16.3-11.4-29.5c-16.2,0.9-31.3,3-46.1,1.7
	c-5.7-0.5-16.2-10.5-15.2-13.2c4.8-14.5-11.6-34.3,10.5-43c3.8-1.5,14,8.1,19,14.2c2.2,2.7-1.5,9.5-2.3,13.4
	c23.7,0,46.8,0.5,69.8-0.2c11.7-0.4,21.4,1.8,22,14.2c0.5,12.4-8.3,16.6-20.7,14.9C1154.1,871.1,1151.6,871.8,1147.7,872.1z"/>
<path class="st1" d="M606.4,787.4c6.9-1.2,13.5-4.5,17-2.7c6.1,3.4,13,9.4,14.2,15.3c0.8,3.8-8,13-13,13.4
	c-20.9,1.5-42,0.5-62.9,0.4c-0.6,0-1.4-0.1-2-0.4c-25.4-9-1.8-31-12.9-43.9c6.6-4.4,12.9-9.5,20-12.6c3.8-1.6,9.3,0.7,14,0.6
	C607.4,756.9,610.6,760.1,606.4,787.4z"/>
<path class="st1" d="M1326.5,842.2c0-14.6-1.8-28.1,0.8-41c1.1-6.2,10.3-10.9,16-16.4c4.6,6.1,12.3,11.8,13,18.4
	c2,16.3,0.4,32.9,1.1,49.3c0.6,14.3-5,19.9-20.5,18.6c-15.7-1.3-31.6,0-47.5-1c-6.6-0.4-14.7-1.9-19.3-5.8c-2.8-2.3-2.4-13,0.4-15.2
	c4.8-3.6,12.9-4.4,19.7-5.1C1302.2,843,1314.1,842.8,1326.5,842.2z"/>
<path class="st1" d="M1029.9,1100c-1.8-6.4-4.8-11.3-3.4-13.6c4.1-6.3,10-11.7,15.2-17.4c5,5.1,13.8,9.7,14.4,15.3
	c1.9,18.5,2.2,37.3,0.3,55.8c-0.6,5.7-9.7,10.8-14.9,16.2c-5.2-6.2-11-12-15.2-18.8c-1.4-2.2,1.5-6.8-2.4-6
	c-8.9-5.5-25-10.3-25.5-16.4C996.6,1096.2,1014,1098.7,1029.9,1100z"/>
<path class="st1" d="M1387.4,584.8c-5.1,1-12,4.3-15.1,2.3c-6.3-4.1-10.5-11.1-15.6-16.8c5.7-4,10.8-9.5,17.4-11.7
	c4.3-1.5,10.5,2.6,15.6,2.2c28.5-2.2,30.4-0.4,23.9,27.7c6.3-1.2,12.9-4.5,17.4-2.8c6.5,2.6,15.3,8.3,15.8,13.2s-7.4,14.1-13,15.4
	c-10.8,2.4-24.6,4-33.6-0.5c-8.2-4.1-11.7-16.8-17.2-25.6C1384.3,587.1,1385.9,586,1387.4,584.8z"/>
<path class="st1" d="M1265.8,1128.1c0.6,4.4,3.7,10.8,1.5,14.1c-3.7,5.7-10.8,13.2-16.3,13c-5.4-0.2-10.6-8.9-15.2-14.3
	c-1.1-1.3,0.9-4.9,1.3-7.4c1.5-10.5,0.3-28.2,5.1-29.9c13.8-4.7,30.1-2.9,45.4-3.6c7.9-0.4,16.2-2.3,23.6-0.5
	c5.9,1.5,15.1,8.3,14.5,11.4c-1,6.2-7.1,15.6-12.4,16.3C1298.5,1129.5,1283,1128.1,1265.8,1128.1z"/>
<path class="st1" d="M969.3,871.5c-0.8-4.6-1.7-8.3-1.8-11.9c-0.6-10.7,4.2-19.7,16-16.4c6.3,1.7,10.1,11.9,14.7,18.6
	c0.6,1.1-1.4,3.5-1.7,5.5c-3.6,30.6-3.4,30.4-37.5,32.1c-11.9,0.6-21.7-1.9-21.7-14.3c-0.1-13.7,9.8-17,22.7-14
	C962.4,871.5,965.1,871.2,969.3,871.5z"/>
<path class="st1" d="M788.2,840.3c-6.4,1.6-11.5,4.5-13.9,3.2c-6.8-3.9-12.3-9.6-18.2-14.6c5.9-5.2,10.8-12.8,17.7-14.8
	c8.4-2.7,19.1-2.7,27.6-0.1c6.9,2.1,17.5,13.1,16.7,14.5c-8.8,13.4,13.4,34.8-11.5,42c-4.5,1.3-13.8-5.7-17.7-11.1
	C785.9,855.7,788.2,848.4,788.2,840.3z"/>
<path class="st1" d="M815.3,1128.5c9.6,0,18.2-2.3,23.4,0.7c4.8,2.8,8.4,11.7,7.8,17.4c-0.4,3.6-9.2,6.8-14.5,9.6
	c-1.3,0.7-3.8-0.9-5.9-1c-11.5-1-27.3,2.2-33.4-3.8c-6.3-6-3.7-20.9-3.4-31.8c0.1-6.3,1.7-13.9,5.7-18.2c2.3-2.6,13.3-1.8,16.1,1.1
	c4.1,4.3,4.8,11.9,6.3,18.2C817.7,1122.6,816.2,1125.3,815.3,1128.5z"/>
<path class="st1" d="M1505.8,727.8c0.5,7.2,2.7,12.9,0.6,15.9c-3.8,5.6-10.7,13.7-15.6,13.2c-5.5-0.5-12.5-8.5-14.5-14.6
	c-2.4-7.5-2.3-16.9,0.3-24.4c2.4-7.2,9.3-12.9,14.2-19.3c5.4,6.1,11.7,11.8,15.7,18.6C1508.5,720.5,1506,726.1,1505.8,727.8z"/>
<path class="st1" d="M1145.3,1099.1c0.5,3.3,0.9,5.8,1.1,8.4c0.8,10.8-1.7,20.9-15.2,20.1c-12.1-0.7-16.8-9-14.2-20.9
	c1-4.7-0.6-10.1,0.4-14.9c1.5-6.9,3.3-14.3,7.3-19.9c1.7-2.3,12.3-2.4,14.2-0.1c4.1,5,5.6,12.2,7.3,18.6
	C1147,1093.1,1145.7,1096.5,1145.3,1099.1z"/>
<path class="st1" d="M535,900.7c8.7-0.5,17.9-3,25.7-0.9c6.6,1.8,11.5,9.2,17.1,14.2c-5.7,5.1-10.6,12.4-17.4,14.6
	c-7.7,2.4-17.7,2.2-25.4-0.4c-6.9-2.3-15.4-9-16.5-14.8c-0.9-4.9,8-11.4,12.6-17.1C532.5,897.8,533.8,899.3,535,900.7z"/>
<path class="st1" d="M576.6,613.3c-0.5,12.3,7.5,29-13.8,28.7c-20-0.4-15.7-14.9-13-27.3c0.4-1.7-1.4-3.9-1-5.6
	c1.3-6.9,1.5-14.8,5.4-20.3c1.8-2.7,13.9-2.9,16-0.4c4.2,5.5,5.1,13.4,7,20.3C577.5,610.4,576.8,612.5,576.6,613.3z"/>
<path class="st1" d="M816.4,1032.5c0.5,6.2,2.2,12.5,1.3,18.5c-0.8,5.8-2.7,13-6.9,16.4c-3.6,2.8-13.1,3.4-16.3,0.9
	c-4.1-3.3-5.1-10.7-6-16.5c-0.9-6.1-0.8-12.5,0.1-18.6c0.8-6,1.4-13.4,5.2-16.9c3.1-2.7,12.4-2.4,16.5,0.1c4.7,2.9,6.8,9.7,10,14.8
	C819.1,1031.6,817.8,1032.1,816.4,1032.5z"/>
<path class="st1" d="M876.3,346.5c0.5,8.1,3.4,16.9,1,24.1c-2,6.3-10,11.1-15.2,16.4c-5.2-5.6-12.9-10.5-15.2-16.9
	c-2.6-7.2-1.9-16.4,0.5-23.7c2.3-6.6,9.2-16.6,13.7-16.4c6.8,0.2,13.3,8.1,19.9,12.6C879.3,343.9,877.8,345.3,876.3,346.5z"/>
<path class="st1" d="M728.4,642.1c-6.8,0.4-12.6,2.3-15.8,0.4c-5.9-3.5-10.1-9.5-14.9-14.5c5.5-4.6,10.2-11.4,16.6-13.5
	c7-2.3,16.2-1.9,23.4,0.4c7.4,2.6,13.5,8.7,20.2,13.5c-5.7,4.9-10.8,10.6-17.4,14.1C736.9,644.5,731.2,642.3,728.4,642.1z"/>
<path class="st1" d="M696.1,730.4c7.8-0.5,14.7-3,18.4-0.9c5.9,3.6,12.3,10.1,13,15.9c0.5,3.4-8.9,10.1-15.1,11.8
	c-7.3,2.1-16.3,2.1-23.6-0.1c-7.7-2.3-18.6-7.2-20.3-13c-3.3-11.3,6.6-15.4,17.7-14.8C690.3,729.4,694.4,730.1,696.1,730.4z"/>
<path class="st1" d="M532.7,874.5c-5-6.1-10-12.2-14.8-18.2c6.3-4.5,11.9-10.7,18.9-13c7-2.3,16.1-2.3,23.2-0.4
	c6.5,1.7,11.7,7.4,17.5,11.4c-5.7,5.8-10.5,14-17.5,16.8c-6.4,2.4-15.2-1-23-1.8C535.7,870.9,534.3,872.7,532.7,874.5z"/>
<path class="st1" d="M1314.3,794.2c-8.9-11.2-17.1-16.9-17.2-22.8c-0.1-4.7,9.1-13,14.8-13.6c4.6-0.5,13.4,7.8,14.4,13.1
	C1327.2,775.9,1320.7,782.5,1314.3,794.2z"/>
<path class="st1" d="M1250.2,208.7c8.3,9.6,17.2,15.7,16.5,20.2c-1.1,6.2-9.6,11.2-14.9,16.6c-5.4-4.9-14.2-9.2-14.9-14.7
	C1235.9,225.6,1243.3,219.2,1250.2,208.7z"/>
<path class="st1" d="M1431.6,835.2c7.7,10.1,15.6,15.9,15.2,21.1c-0.5,5.5-8.9,10.5-13.8,15.6c-5.7-5.1-14.5-9.5-16.1-15.6
	C1415.6,852.1,1424.2,845.5,1431.6,835.2z"/>
<path class="st1" d="M1035,829.2c-11,6.7-17.6,13.9-23,13.1c-5.7-0.7-10.5-9.1-15.6-14.1c5.7-5.1,10.8-13.2,17.2-14.5
	C1018.3,812.9,1024.8,821.4,1035,829.2z"/>
<path class="st1" d="M556.2,544.4c-10.8,6.9-18.1,14.8-22.6,13.6c-6.4-1.7-10.7-10.1-16-15.7c5.5-4.6,10.8-12.5,16.7-12.9
	C539.8,529.2,545.8,536.9,556.2,544.4z"/>
<path class="st1" d="M1102.2,891.4c7.5,10.3,15.8,16.9,14.8,21.4c-1.4,6.2-10.1,10.7-15.7,16c-5-5.2-13.3-10.1-13.8-15.8
	C1087,907.8,1094.6,901.8,1102.2,891.4z"/>
<path class="st1" d="M616.5,885.1c-10.8,6.8-17,13.9-22.6,13.4c-5.7-0.4-11-8-16.5-12.5c5.5-5.3,10.2-13.7,16.7-15.2
	C598.6,869.8,605.6,877.8,616.5,885.1z"/>
<path class="st1" d="M862.5,878.9c-7.7-10.3-15.3-16.3-14.8-21.3c0.6-5.6,8.7-14,14-14.3c5.4-0.4,15.7,7.7,15.8,12.2
	C877.8,861.5,870.2,867.7,862.5,878.9z"/>
<path class="st1" d="M1192.1,906.7c-7.5-10.1-15.7-16.5-14.5-20.7c1.8-6.2,10-10.8,15.3-16.2c4.8,5.1,13,9.8,13.7,15.4
	C1207.2,890.4,1199.7,896.3,1192.1,906.7z"/>
<path class="st1" d="M1244,1085.5c-10.7,6.6-17.2,13.7-22.3,13c-6-1-10.7-8.9-16-13.9c5.6-5.2,10.6-13.2,17.1-14.6
	C1227.2,1069.1,1233.7,1077.6,1244,1085.5z"/>
<path class="st1" d="M735.8,799.2c-10.6,7-16.6,14.1-22.1,13.9c-5.6-0.2-10.8-7.9-16.2-12.3c5.2-5.5,9.7-13.6,16.2-15.4
	C718,784.2,725.2,792.1,735.8,799.2z"/>
<path class="st1" d="M675.4,770.2c-10.6,7.8-17.1,15.8-21.7,14.9c-6.4-1.2-11.5-9.1-17.1-14.1c5.4-4.7,10.1-12.5,16.1-13.5
	C657.9,756.7,664.4,763.5,675.4,770.2z"/>
<path class="st1" d="M1514.3,1143.2c-10.7,6.4-17.7,13.6-21.3,12.3c-6.8-2.4-11.5-9.8-17-15.1c5-4.5,10.5-13.1,14.7-12.5
	C1497.3,1128.6,1503.3,1135.5,1514.3,1143.2z"/>
<path class="st1" d="M765,769.3c-10.8,7.9-16.6,14.8-23.4,15.8c-4.2,0.6-9.8-7.9-14.9-12.3c5.5-5.3,10.1-12.9,16.7-15.4
	C747.1,756,754.3,763.1,765,769.3z"/>
<path class="st1" d="M923.2,836c6.9,9.1,14.9,15.3,13.7,18.7c-2.3,6.4-9.7,11.3-15.1,16.9c-5-5.1-13.7-9.8-14-15.2
	C907.6,851.2,915.7,845.5,923.2,836z"/>
<path class="st1" d="M533.2,764.4c-7.5-10.2-15.2-16.2-14.7-21.4c0.5-5.1,9.3-13,14.5-13c5.2,0,14.2,7.9,14.7,12.9
	C548.3,748.2,540.6,754.2,533.2,764.4z"/>
<path class="st1" d="M1243.3,856c-10,7.2-16,14.9-21.4,14.6c-5.6-0.4-10.7-8.5-16.1-13.2c5.9-5.1,10.8-12.2,17.7-14.3
	C1227.1,841.9,1233.7,849.5,1243.3,856z"/>
<path class="st1" d="M1251.4,266.2c7.9,9.6,16.8,15.9,16,20.5c-1.3,6.2-10,10.9-15.6,16.3c-5.1-5.2-13.5-10-14.3-15.7
	C1236.7,282.1,1244.5,275.9,1251.4,266.2z"/>
<path class="st1" d="M795,1084.2c-10.5,7-16.8,14.6-22.2,14.1c-6-0.6-11.2-8.5-16.7-13.2c5.7-5.3,10.7-13.5,17.5-15.2
	C777.8,1068.8,784.8,1077.1,795,1084.2z"/>
<path class="st1" d="M854.3,400.4c-10,7.3-15.8,15.1-21.4,14.8c-5.6-0.2-10.7-8.5-16.1-13.1c5.7-5.1,10.8-12.3,17.6-14.5
	C838.1,386.5,844.8,393.9,854.3,400.4z"/>
<path class="st1" d="M983.4,466.2c7.1,9.8,14.9,15.8,14.3,21c-0.6,5.3-9.4,9.7-14.7,14.6c-5.1-5.7-12.4-10.9-14.3-17.5
	C967.7,480.9,976,474.9,983.4,466.2z"/>
<path class="st1" d="M1064.8,485.7c-11,7.9-17,15.7-22.2,15.2c-5.9-0.6-10.8-8.5-16.3-13.4c5-5,9.3-13.1,15.1-14.2
	C1046.4,472.4,1053.2,479.2,1064.8,485.7z"/>
<path class="st1" d="M1192.3,1136.1c-7.7-11.8-14.2-17.9-14.8-24.4c-0.4-3.8,10-12.6,13.4-11.8c6.3,1.5,14.5,8,15.6,13.5
	C1207.5,1118.4,1199.8,1124.8,1192.3,1136.1z"/>
<path class="st1" d="M1401.4,862.2c7.5,11.9,13.9,18,14.4,24.7c0.4,3.8-10.1,12.5-13.5,11.5c-6.3-1.6-14.4-8.1-15.4-13.7
	C1386,879.8,1393.8,873.5,1401.4,862.2z"/>
<path class="st1" d="M1461.9,565.7c-7.4-10.7-15.1-16.8-14.3-21.8c0.8-5.6,9.1-10.3,14.2-15.3c5.2,5,13.8,9.5,14.5,14.9
	C1477.1,548.6,1469.5,554.8,1461.9,565.7z"/>
<path class="st1" d="M864,594c-8.3-9.8-16.6-15.4-16.2-20.5c0.4-5.3,8.6-13.9,13.9-14.3c5-0.5,14.3,7.4,15.3,12.6
	C877.9,576.8,870.7,583.3,864,594z"/>
<path class="st1" d="M974,828.1c-10.7,7.5-17,15.3-22.1,14.7c-5.9-0.7-14.7-9-14.7-14.1c0-5.1,8.7-13.1,14.7-14.2
	C956.8,813.7,963.5,821.1,974,828.1z"/>
<path class="st1" d="M855.4,1000.4c-11.4,6.4-18.1,13.2-23.4,12.3c-5.7-1.1-14-9.6-13.8-14.5c0.4-5.1,9.4-12.9,15.1-13.2
	C838.9,984.7,844.8,992.5,855.4,1000.4z"/>
<path class="st1" d="M1395.6,627.9c-11.4,7.3-17.5,14.2-23,13.9c-5.6-0.4-10.6-8.1-15.8-12.6c5-5,9.6-13.1,15.3-14.1
	C1377.2,614.3,1384,621.2,1395.6,627.9z"/>
<path class="st1" d="M862.4,692.7c7.3,10.1,14.9,16.2,14.4,21.6c-0.4,5-9.8,13.1-14.9,12.9c-5.5-0.2-14.4-8.4-14.8-13.5
	C846.8,708.4,854.8,702.5,862.4,692.7z"/>
<path class="st1" d="M1071.7,1007.1c7.7,9.2,15.8,14.8,15.6,19.9c-0.4,5.5-8.6,10.6-13.4,15.8c-5.4-5.3-12.9-10.1-15.2-16.5
	C1057.4,1022.9,1065,1016.4,1071.7,1007.1z"/>
<path class="st1" d="M1185.8,713.5c-11,7-17.2,14.1-22.8,13.7c-5.7-0.4-11-8-16.5-12.5c5.1-5.2,9.6-13.9,15.4-14.7
	C1167.3,699.3,1174.1,706.6,1185.8,713.5z"/>
<path class="st1" d="M1125.3,1140.5c-11.1,7.4-17,14.3-23,14.5c-5.1,0-14.8-8.4-14.3-11.9c0.9-5.8,7.7-14.1,13.3-15.2
	C1106.5,1126.8,1113.5,1133.8,1125.3,1140.5z"/>
<path class="st1" d="M1100.9,1033.8c8,10.5,15.4,15.8,15.7,21.5c0.1,4.7-8.4,14.2-12.3,13.7c-6.1-0.7-15.1-6.9-16.3-12.3
	C1086.9,1051.9,1094.1,1045.1,1100.9,1033.8z"/>
<path class="st1" d="M1234.4,557.6c-8,0.9-18,1.8-28.3,2.8c0-10.5,0-21.4,0-32.1c8.2-0.5,19.3,1.8,25.4-2.4c5.4-3.8,5.2-14.7,7.7-23
	c9.3-1.1,19.1-2.2,29.2-3.3c0,9.5,0,19.3,0,28.9c-7.9,1-19.1-0.7-24.9,3.8C1237.8,536.8,1237.7,547.6,1234.4,557.6z"/>
<path class="st1" d="M1266.4,1014.1c0.8-15.8,2-30.1,1.9-44.5c-0.1-13.7-1.7-27.6-2.6-41.8c30.6,0,60.2,0,92.1,0c0,28,0,55.8,0,86.3
	C1326.8,1014.1,1297,1014.1,1266.4,1014.1z M1310.7,948.5c-7.1,10.7-14.8,17.1-13.9,22c1,5.5,9.4,12.8,15.4,13.5
	c4.2,0.5,13.3-8.6,13.4-13.6C1326,964.8,1318.5,959,1310.7,948.5z"/>
<path class="st1" d="M637.3,529.2c0-9.7,0-19,0-28.9c8.9,0.5,19.1,1.1,29.5,1.7c0.6,9.2,1.1,18.4,1.8,27.2
	C658.2,529.2,647.8,529.2,637.3,529.2z"/>
<path class="st1" d="M1310.7,948.5c7.7,10.6,15.2,16.3,15.1,21.8c-0.1,5.1-9.3,14.1-13.4,13.6c-6-0.7-14.4-7.9-15.4-13.5
	C1295.9,965.5,1303.6,959.2,1310.7,948.5z"/>
<path class="st1" d="M1355.9,315.1c0-35.6,10.6-45.9,46.3-45.7c34.1,0.2,48,13.6,48.1,46.3c0.1,34.1-10.8,43.5-50.7,43.4
	C1362.1,359.1,1355.8,352.7,1355.9,315.1z"/>
<path class="st1" d="M622.7,1012.5c39.2,0,45.8,6.1,45.9,41.9c0.1,37.7-10,48-46.1,47.8c-34.2-0.2-48.1-13.5-48.2-46.1
	C574,1022.4,584.9,1012.7,622.7,1012.5z"/>
<path class="st1" d="M668.5,316.8c0,36.3-6.5,42.4-45.4,42.4c-38.2,0-49-9.6-49-43.1c0-33.4,14.3-46.8,49.8-46.5
	C659,269.7,668.6,279.9,668.5,316.8z"/>
<g>
	<path class="st1" d="M637.4,85.4c-5.5,0-10.2-0.5-14.1-1.6c-3.9-1.1-7.5-2.4-10.9-4V67.7h0.7c3.4,3,7.1,5.3,11.4,7
		c4.2,1.6,8.3,2.5,12.3,2.5c5.6,0,9.8-1.1,12.7-3.3c2.9-2.2,4.3-5.2,4.3-8.8c0-2.9-0.8-5.3-2.3-7.1c-1.5-1.8-3.9-3.2-7.2-4.1
		c-2.4-0.7-4.5-1.2-6.5-1.6c-1.9-0.4-4.4-1-7.3-1.7c-2.6-0.7-5-1.5-7.1-2.5c-2.1-1-3.9-2.3-5.5-4c-1.6-1.6-2.8-3.5-3.7-5.6
		c-0.9-2.2-1.3-4.7-1.3-7.5c0-5.9,2.4-10.8,7.2-14.8c4.8-4,11-6,18.5-6c4.3,0,8.3,0.4,12.1,1.2c3.8,0.8,7.3,2,10.6,3.5v11.6h-0.8
		c-2.4-2.1-5.5-4-9.3-5.5c-3.8-1.6-7.8-2.4-11.9-2.4c-4.7,0-8.5,1-11.4,3.1c-2.9,2.1-4.4,4.9-4.4,8.3c0,3.1,0.9,5.6,2.6,7.4
		c1.7,1.8,4.2,3.2,7.4,4c2.2,0.6,4.8,1.2,7.9,1.9c3.1,0.7,5.7,1.3,7.7,1.9c5.3,1.5,9.1,3.8,11.5,6.9c2.4,3.1,3.6,6.9,3.6,11.4
		c0,2.8-0.6,5.6-1.8,8.4c-1.2,2.8-2.9,5.1-5.1,7c-2.5,2.1-5.2,3.7-8.3,4.9C645.9,84.9,642,85.4,637.4,85.4z"/>
	<path class="st1" d="M696.8,85.3c-3.9,0-7.5-0.6-10.8-1.7s-6.1-2.9-8.5-5.2c-2.4-2.3-4.2-5.3-5.5-8.9c-1.3-3.6-1.9-7.8-1.9-12.6
		c0-4.8,0.7-8.9,2-12.4c1.4-3.5,3.2-6.4,5.4-8.8c2.3-2.4,5.1-4.2,8.4-5.5c3.4-1.3,7-1.9,10.8-1.9c3.1,0,6.2,0.4,9.1,1.3
		c2.9,0.8,5.5,1.8,7.8,2.9v10.3h-0.6c-0.7-0.6-1.6-1.2-2.6-1.9c-1.1-0.7-2.4-1.4-3.9-2.2c-1.3-0.7-2.9-1.2-4.7-1.7
		c-1.8-0.5-3.6-0.7-5.2-0.7c-5,0-9,1.8-12,5.4c-3,3.6-4.5,8.7-4.5,15.3c0,6.4,1.5,11.5,4.4,15.1c2.9,3.6,7,5.4,12.2,5.4
		c3.1,0,6.1-0.6,9-1.9c2.8-1.2,5.3-2.8,7.5-4.8h0.6v10.3c-1,0.4-2.2,0.9-3.6,1.5c-1.4,0.6-2.7,1-3.9,1.3c-1.6,0.5-3.1,0.8-4.4,1
		C700.5,85.2,698.9,85.3,696.8,85.3z"/>
	<path class="st1" d="M754.5,78.3c-0.8,0.6-1.8,1.3-3.2,2.3c-1.3,1-2.6,1.8-3.8,2.4c-1.7,0.8-3.4,1.5-4.9,2
		c-1.6,0.5-3.8,0.7-6.7,0.7c-2.4,0-4.6-0.4-6.7-1.3c-2.1-0.8-4-2-5.6-3.6c-1.5-1.5-2.8-3.3-3.7-5.5c-0.9-2.2-1.4-4.5-1.4-7
		c0-3.8,0.8-7,2.5-9.6c1.7-2.7,4.3-4.8,7.9-6.3c3.2-1.4,7-2.4,11.4-2.9c4.4-0.5,9.1-0.9,14.2-1.2v-1.8c0-2.1-0.3-3.9-1-5.2
		c-0.7-1.3-1.6-2.3-2.9-3.1c-1.2-0.7-2.7-1.2-4.5-1.5c-1.8-0.2-3.6-0.4-5.5-0.4c-2.2,0-4.8,0.3-7.8,1c-3,0.6-6,1.6-9,2.8h-0.6v-9.3
		c1.8-0.5,4.3-1,7.6-1.6c3.3-0.6,6.6-0.9,9.8-0.9c3.9,0,7.2,0.3,9.9,0.9c2.7,0.6,5.1,1.6,7.3,3.2c2.1,1.5,3.6,3.4,4.7,5.8
		c1,2.4,1.5,5.3,1.5,8.7v37.3h-9.6V78.3z M754.5,70.7V55.6c-2.3,0.2-5.2,0.5-8.7,0.8c-3.5,0.3-6.3,0.8-8.5,1.4
		c-2.6,0.7-4.7,1.9-6.4,3.4c-1.7,1.5-2.5,3.7-2.5,6.5c0,3.1,0.9,5.5,2.8,7.1c1.8,1.6,4.5,2.4,8.1,2.4c3,0,5.8-0.6,8.3-1.9
		C750,74.1,752.4,72.5,754.5,70.7z"/>
	<path class="st1" d="M822.7,84.1H813V53.1c0-2.5-0.1-4.8-0.4-7c-0.3-2.2-0.7-3.9-1.5-5.2c-0.8-1.4-1.9-2.4-3.3-3.1
		c-1.4-0.7-3.3-1-5.7-1c-2.4,0-4.9,0.6-7.4,1.8c-2.5,1.2-5,2.8-7.5,4.8v40.7h-9.6V29.6h9.6v6.1c2.9-2.4,5.7-4.3,8.5-5.6
		c2.8-1.3,5.8-2,8.9-2c5.6,0,10.1,1.8,13.2,5.3c3.2,3.5,4.8,8.7,4.8,15.4V84.1z"/>
	<path class="st1" d="M887.6,84.1V20H862v-8.6h61.4V20h-25.6v64.1H887.6z"/>
	<path class="st1" d="M966.7,56.9c0,9.2-2.3,16.3-7,21.3c-4.6,5-10.8,7.5-18.6,7.5c-8,0-14.2-2.6-18.8-7.7c-4.6-5.2-6.8-12.2-6.8-21
		c0-9.1,2.4-16.2,7.1-21.2c4.7-5,10.9-7.6,18.6-7.6c7.7,0,13.9,2.5,18.6,7.5C964.4,40.6,966.7,47.7,966.7,56.9z M956.8,56.9
		c0-7.1-1.4-12.3-4.1-15.7c-2.7-3.4-6.5-5.2-11.5-5.2c-5,0-8.9,1.7-11.6,5.2c-2.7,3.4-4.1,8.7-4.1,15.7c0,6.8,1.4,12,4.1,15.6
		c2.7,3.5,6.6,5.3,11.6,5.3c5,0,8.8-1.7,11.5-5.2S956.8,63.8,956.8,56.9z"/>
	<path class="st1" d="M1070.4,47.8c0,6.6-1.4,12.6-4.2,18c-2.8,5.3-6.6,9.5-11.4,12.5c-3.9,2.3-7.8,3.9-11.8,4.6s-9.1,1.2-15.3,1.2
		h-17.6V11.4h17.4c7.2,0,12.8,0.5,16.9,1.5c4.1,1,7.6,2.4,10.4,4.2c4.9,3.1,8.7,7.2,11.4,12.3S1070.4,40.8,1070.4,47.8z
		 M1059.9,47.7c0-5.6-1-10.4-2.9-14.3c-1.9-4-4.8-7-8.7-9.3c-2.7-1.6-5.6-2.7-8.7-3.4c-3.1-0.7-6.9-1-11.5-1h-7.7v56.1h7.7
		c4.5,0,8.5-0.3,11.8-1c3.4-0.7,6.5-2,9.3-3.8c3.5-2.3,6.2-5.3,7.9-9.1C1059,58.1,1059.9,53.4,1059.9,47.7z"/>
	<path class="st1" d="M1091.2,20.5h-11v-9.5h11V20.5z M1090.5,84.1h-9.6V29.6h9.6V84.1z"/>
	<path class="st1" d="M1120.2,85.4c-3.8,0-7.4-0.5-10.7-1.5s-6.1-2-8.3-3.1V70.6h0.5c0.8,0.6,1.8,1.3,2.9,2.1
		c1.1,0.7,2.6,1.5,4.4,2.3c1.6,0.7,3.4,1.4,5.4,1.9c2,0.6,4,0.8,6.1,0.8c1.5,0,3.2-0.2,4.9-0.5s3-0.8,3.9-1.3
		c1.2-0.7,2.1-1.5,2.6-2.4c0.5-0.8,0.8-2.1,0.8-3.8c0-2.2-0.6-3.8-1.9-4.9c-1.2-1.1-3.5-2-6.6-2.8c-1.2-0.3-2.8-0.6-4.8-1
		s-3.8-0.8-5.5-1.3c-4.4-1.2-7.6-3.1-9.5-5.6c-2-2.5-3-5.6-3-9.2c0-4.9,1.9-8.9,5.8-12c3.9-3.1,9.1-4.6,15.5-4.6
		c3.2,0,6.4,0.4,9.6,1.1c3.2,0.7,5.9,1.7,8.1,2.8V42h-0.5c-2.5-1.9-5.2-3.3-8.2-4.4s-6.1-1.6-9.2-1.6c-3.2,0-5.9,0.6-8.1,1.9
		c-2.2,1.3-3.3,3.2-3.3,5.8c0,2.3,0.6,4,1.9,5.1c1.3,1.1,3.4,2,6.3,2.8c1.4,0.4,3,0.7,4.8,1s3.6,0.7,5.6,1.2c4.2,1,7.4,2.7,9.6,5
		c2.1,2.3,3.2,5.5,3.2,9.6c0,2.3-0.5,4.6-1.5,6.7c-1,2.1-2.4,3.9-4.3,5.4c-2.1,1.6-4.4,2.9-6.9,3.7S1124.1,85.4,1120.2,85.4z"/>
	<path class="st1" d="M1174.3,85.3c-3.9,0-7.5-0.6-10.8-1.7c-3.3-1.2-6.1-2.9-8.5-5.2c-2.4-2.3-4.2-5.3-5.5-8.9
		c-1.3-3.6-1.9-7.8-1.9-12.6c0-4.8,0.7-8.9,2-12.4c1.3-3.5,3.2-6.4,5.4-8.8c2.3-2.4,5.1-4.2,8.4-5.5c3.4-1.3,7-1.9,10.8-1.9
		c3.1,0,6.2,0.4,9.1,1.3c2.9,0.8,5.5,1.8,7.8,2.9v10.3h-0.6c-0.7-0.6-1.6-1.2-2.6-1.9c-1.1-0.7-2.4-1.4-3.9-2.2
		c-1.3-0.7-2.9-1.2-4.7-1.7c-1.8-0.5-3.6-0.7-5.2-0.7c-5,0-9,1.8-12,5.4c-3,3.6-4.5,8.7-4.5,15.3c0,6.4,1.5,11.5,4.4,15.1
		c2.9,3.6,7,5.4,12.2,5.4c3.1,0,6.1-0.6,9-1.9c2.8-1.2,5.3-2.8,7.5-4.8h0.6v10.3c-1,0.4-2.2,0.9-3.6,1.5c-1.4,0.6-2.7,1-3.9,1.3
		c-1.6,0.5-3.1,0.8-4.4,1C1178,85.2,1176.4,85.3,1174.3,85.3z"/>
	<path class="st1" d="M1247.1,56.9c0,9.2-2.3,16.3-7,21.3c-4.6,5-10.8,7.5-18.6,7.5c-8,0-14.2-2.6-18.8-7.7
		c-4.6-5.2-6.8-12.2-6.8-21c0-9.1,2.3-16.2,7.1-21.2c4.7-5,10.9-7.6,18.6-7.6c7.7,0,13.9,2.5,18.6,7.5S1247.1,47.7,1247.1,56.9z
		 M1237.2,56.9c0-7.1-1.3-12.3-4.1-15.7c-2.7-3.4-6.5-5.2-11.5-5.2c-5,0-8.9,1.7-11.6,5.2c-2.7,3.4-4.1,8.7-4.1,15.7
		c0,6.8,1.4,12,4.1,15.6c2.7,3.5,6.6,5.3,11.6,5.3c5,0,8.8-1.7,11.5-5.2C1235.8,69.1,1237.2,63.8,1237.2,56.9z"/>
	<path class="st1" d="M1301.4,29.6l-21.6,54.5h-8.7l-21.4-54.5h10.4l15.7,42.1l15.5-42.1H1301.4z"/>
	<path class="st1" d="M1332.8,85.4c-9.1,0-16.2-2.4-21.3-7.3c-5-4.9-7.6-11.9-7.6-20.9c0-8.9,2.4-16,7.3-21.2
		c4.9-5.3,11.3-7.9,19.2-7.9c3.6,0,6.7,0.5,9.4,1.5c2.7,1,5.1,2.5,7.2,4.6c2.1,2.1,3.6,4.6,4.7,7.6c1.1,3,1.6,6.7,1.6,11.1v5h-39.7
		c0,6.3,1.7,11.2,5,14.6c3.3,3.4,8,5,13.9,5c2.1,0,4.2-0.2,6.2-0.7c2-0.5,3.9-1,5.5-1.8c1.7-0.7,3.2-1.5,4.4-2.2
		c1.2-0.7,2.2-1.4,3-2h0.6v10c-1.1,0.4-2.5,1-4.2,1.6c-1.7,0.6-3.2,1.1-4.5,1.5c-1.9,0.5-3.6,0.9-5.1,1.1
		C1337,85.3,1335.1,85.4,1332.8,85.4z M1344,50.8c-0.1-2.5-0.4-4.6-0.9-6.4c-0.5-1.8-1.3-3.3-2.4-4.5c-1.1-1.4-2.6-2.4-4.3-3.1
		c-1.8-0.7-3.9-1.1-6.5-1.1c-2.6,0-4.7,0.4-6.5,1.1s-3.4,1.8-4.9,3.2c-1.4,1.4-2.5,3-3.3,4.8c-0.8,1.7-1.2,3.8-1.4,6.1H1344z"/>
	<path class="st1" d="M1393.5,39.4h-0.5c-0.7-0.2-1.5-0.3-2.3-0.4c-0.8,0-1.8-0.1-2.9-0.1c-2.6,0-5.2,0.5-7.7,1.6
		c-2.6,1.1-5,2.7-7.3,4.8v38.7h-9.6V29.6h9.6v8.1c3.5-3,6.6-5.1,9.2-6.3s5.2-1.8,7.6-1.8c1,0,1.7,0,2.2,0.1c0.5,0,1.1,0.1,1.7,0.2
		V39.4z"/>
	<path class="st1" d="M1450,11.4l-1.4,52.7h-8.5l-1.5-52.7H1450z M1449.5,84.1h-10.5V73.8h10.5V84.1z"/>
</g>
<g id="Layer_2_1_">
</g>
<g id="layer1_1_" inkscape:groupmode="layer" inkscape:label="Layer 1">
	<path id="rect869_1_" class="st1" d="M948.4,580.7h146.4c21.9,0,39.7,16.6,39.7,37v136.4c0,20.4-17.8,37-39.7,37H948.4
		c-21.9,0-39.7-16.6-39.7-37V617.7C908.7,597.3,926.5,580.7,948.4,580.7z"/>
</g>
<g id="svg8" xmlns:cc="http://creativecommons.org/ns#" xmlns:dc="http://purl.org/dc/elements/1.1/" xmlns:inkscape="http://www.inkscape.org/namespaces/inkscape" xmlns:rdf="http://www.w3.org/1999/02/22-rdf-syntax-ns#" xmlns:sodipodi="http://sodipodi.sourceforge.net/DTD/sodipodi-0.dtd" xmlns:svg="http://www.w3.org/2000/svg">
	
		<sodipodi:namedview  bordercolor="#666666" borderopacity="1.0" id="base" inkscape:current-layer="layer1" inkscape:cx="314.61478" inkscape:cy="530" inkscape:document-rotation="0" inkscape:document-units="mm" inkscape:guide-bbox="true" inkscape:pageopacity="0" inkscape:pageshadow="2" inkscape:window-height="1049" inkscape:window-maximized="0" inkscape:window-width="1743" inkscape:window-x="0" inkscape:window-y="23" inkscape:zoom="0.73" pagecolor="#2a2a2a" showgrid="false" showguides="true" units="px">
		
			<sodipodi:guide  id="guide913" inkscape:color="rgb(0,0,255)" inkscape:label="" inkscape:locked="false" orientation="0,1" position="-289.98334,135.46667">
			</sodipodi:guide>
		
			<sodipodi:guide  id="guide870" inkscape:color="rgb(0,0,255)" inkscape:label="" inkscape:locked="false" orientation="-1,0" position="135.46667,225.5762">
			</sodipodi:guide>
	</sodipodi:namedview>
	<g id="layer1" inkscape:groupmode="layer" inkscape:label="Layer 1">
		<path id="rect869" class="st2" d="M962.7,599h119c17.8,0,32.3,13.8,32.3,30.7V743c0,17-14.4,30.7-32.3,30.7h-119
			c-17.8,0-32.3-13.8-32.3-30.7V629.7C930.5,612.8,944.9,599,962.7,599z"/>
	</g>
	<g id="layer2" inkscape:groupmode="layer" inkscape:label="Layer 2" class="st3">
	</g>
	<path class="st4" d="M1069.2,746.8h-94.8c-8.7,0-15.7-6.7-15.7-15v-77.2c0-8.3,7-15,15.7-15h94.8c8.7,0,15.7,6.7,15.7,15v77.2
		C1084.9,740.1,1077.9,746.8,1069.2,746.8z"/>
	<path class="st2" d="M993.8,653.6L993.8,653.6c-5.5,0-10-4.2-10-9.5v-12.9c0-5.3,4.5-9.5,10-9.5l0,0c5.5,0,10,4.2,10,9.5v12.9
		C1003.8,649.3,999.3,653.6,993.8,653.6z"/>
	<path class="st1" d="M994.4,648.7h-0.9c-2.8,0-5.1-2.2-5.1-4.9v-12.5c0-2.7,2.3-4.9,5.1-4.9h0.9c2.8,0,5.1,2.2,5.1,4.9v12.5
		C999.5,646.5,997.2,648.7,994.4,648.7z"/>
	<path class="st2" d="M1052.6,653.5L1052.6,653.5c-5.5,0-10-4.2-10-9.5v-12.9c0-5.3,4.5-9.5,10-9.5l0,0c5.5,0,10,4.2,10,9.5V644
		C1062.6,649.3,1058.1,653.5,1052.6,653.5z"/>
	<path class="st1" d="M1053.2,648.7h-0.9c-2.8,0-5.1-2.2-5.1-4.9v-12.5c0-2.7,2.3-4.9,5.1-4.9h0.9c2.8,0,5.1,2.2,5.1,4.9v12.5
		C1058.3,646.5,1056,648.7,1053.2,648.7z"/>
	<path class="st2" d="M1065.4,735.1h-85.9c-5.5,0-10-4.2-10-9.5v-58.2c0-5.3,4.5-9.5,10-9.5h85.9c5.5,0,10,4.2,10,9.5v58.2
		C1075.4,730.8,1070.9,735.1,1065.4,735.1z"/>
	<path class="st1" d="M1013.2,682.9h-8.3c-2.8,0-5.1-2.2-5.1-4.9v-7.9c0-2.7,2.3-4.9,5.1-4.9h8.3c2.8,0,5.1,2.2,5.1,4.9v7.9
		C1018.4,680.8,1016.1,682.9,1013.2,682.9z"/>
	<path class="st1" d="M1038.9,682.7h-8.3c-2.8,0-5.1-2.2-5.1-4.9V670c0-2.7,2.3-4.9,5.1-4.9h8.3c2.8,0,5.1,2.2,5.1,4.9v7.9
		C1044,680.6,1041.8,682.7,1038.9,682.7z"/>
	<path class="st1" d="M1064.6,682.9h-8.3c-2.8,0-5.1-2.2-5.1-4.9v-7.9c0-2.7,2.3-4.9,5.1-4.9h8.3c2.8,0,5.1,2.2,5.1,4.9v7.9
		C1069.7,680.8,1067.4,682.9,1064.6,682.9z"/>
	<path class="st1" d="M989.5,707.7h-8.3c-2.8,0-5.1-2.2-5.1-4.9v-7.9c0-2.7,2.3-4.9,5.1-4.9h8.3c2.8,0,5.1,2.2,5.1,4.9v7.9
		C994.6,705.5,992.3,707.7,989.5,707.7z"/>
	<path class="st1" d="M1013.7,707.7h-8.3c-2.8,0-5.1-2.2-5.1-4.9v-7.9c0-2.7,2.3-4.9,5.1-4.9h8.3c2.8,0,5.1,2.2,5.1,4.9v7.9
		C1018.8,705.5,1016.5,707.7,1013.7,707.7z"/>
	<path class="st1" d="M1039.3,707.7h-8.3c-2.8,0-5.1-2.2-5.1-4.9v-7.9c0-2.7,2.3-4.9,5.1-4.9h8.3c2.8,0,5.1,2.2,5.1,4.9v7.9
		C1044.4,705.5,1042.1,707.7,1039.3,707.7z"/>
	<path class="st1" d="M1064.6,707.7h-8.3c-2.8,0-5.1-2.2-5.1-4.9v-7.9c0-2.7,2.3-4.9,5.1-4.9h8.3c2.8,0,5.1,2.2,5.1,4.9v7.9
		C1069.7,705.5,1067.4,707.7,1064.6,707.7z"/>
	<path class="st1" d="M989.1,729.8h-8.3c-2.8,0-5.1-2.2-5.1-4.9V717c0-2.7,2.3-4.9,5.1-4.9h8.3c2.8,0,5.1,2.2,5.1,4.9v7.9
		C994.2,727.6,991.9,729.8,989.1,729.8z"/>
	<path class="st1" d="M1013.7,729.8h-8.3c-2.8,0-5.1-2.2-5.1-4.9V717c0-2.7,2.3-4.9,5.1-4.9h8.3c2.8,0,5.1,2.2,5.1,4.9v7.9
		C1018.8,727.6,1016.5,729.8,1013.7,729.8z"/>
</g>
</svg>
