<?xml version="1.0" encoding="utf-8"?>
<!-- Generator: Adobe Illustrator 24.0.2, SVG Export Plug-In . SVG Version: 6.00 Build 0)  -->
<svg version="1.1"
	 id="Layer_1" inkscape:version="1.0 (4035a4f, 2020-05-01)" sodipodi:docname="app_icon.svg" xmlns:cc="http://creativecommons.org/ns#" xmlns:dc="http://purl.org/dc/elements/1.1/" xmlns:inkscape="http://www.inkscape.org/namespaces/inkscape" xmlns:rdf="http://www.w3.org/1999/02/22-rdf-syntax-ns#" xmlns:sodipodi="http://sodipodi.sourceforge.net/DTD/sodipodi-0.dtd" xmlns:svg="http://www.w3.org/2000/svg"
	 xmlns="http://www.w3.org/2000/svg" xmlns:xlink="http://www.w3.org/1999/xlink" x="0px" y="0px" viewBox="0 0 2048 1487.7"
	 style="enable-background:new 0 0 2048 1487.7;" xml:space="preserve">
<style type="text/css">
	.st0{fill:#FFFFFF;}
</style>
<sodipodi:namedview  bordercolor="#666666" borderopacity="1" gridtolerance="10" guidetolerance="10" id="namedview932" inkscape:current-layer="Layer_1" inkscape:cx="1024" inkscape:cy="425" inkscape:pageopacity="0" inkscape:pageshadow="2" inkscape:window-height="1075" inkscape:window-maximized="1" inkscape:window-width="1736" inkscape:window-x="0" inkscape:window-y="23" inkscape:zoom="0.34765625" objecttolerance="10" pagecolor="#ffffff" showgrid="false">
	</sodipodi:namedview>
<g id="Layer_5">
</g>
<g id="Layer_4">
</g>
<line class="st0" x1="-602.7" y1="1562.6" x2="2846.3" y2="1562.6"/>
<g>
	<path class="st0" d="M637.4,85.4c-5.5,0-10.2-0.5-14.1-1.6c-3.9-1.1-7.5-2.4-10.9-4V67.7h0.7c3.4,3,7.1,5.3,11.4,7
		c4.2,1.6,8.3,2.5,12.3,2.5c5.6,0,9.8-1.1,12.7-3.3c2.9-2.2,4.3-5.2,4.3-8.8c0-2.9-0.8-5.3-2.3-7.1s-3.9-3.2-7.2-4.1
		c-2.4-0.7-4.5-1.2-6.5-1.6c-1.9-0.4-4.4-1-7.3-1.7c-2.6-0.7-5-1.5-7.1-2.5s-3.9-2.3-5.5-4c-1.6-1.6-2.8-3.5-3.7-5.6
		c-0.9-2.2-1.3-4.7-1.3-7.5c0-5.9,2.4-10.8,7.2-14.8s11-6,18.5-6c4.3,0,8.3,0.4,12.1,1.2s7.3,2,10.6,3.5v11.6h-0.8
		c-2.4-2.1-5.5-4-9.3-5.5c-3.8-1.6-7.8-2.4-11.9-2.4c-4.7,0-8.5,1-11.4,3.1s-4.4,4.9-4.4,8.3c0,3.1,0.9,5.6,2.6,7.4
		c1.7,1.8,4.2,3.2,7.4,4c2.2,0.6,4.8,1.2,7.9,1.9c3.1,0.7,5.7,1.3,7.7,1.9c5.3,1.5,9.1,3.8,11.5,6.9c2.4,3.1,3.6,6.9,3.6,11.4
		c0,2.8-0.6,5.6-1.8,8.4s-2.9,5.1-5.1,7c-2.5,2.1-5.2,3.7-8.3,4.9C645.9,84.9,642,85.4,637.4,85.4z"/>
	<path class="st0" d="M696.8,85.3c-3.9,0-7.5-0.6-10.8-1.7s-6.1-2.9-8.5-5.2c-2.4-2.3-4.2-5.3-5.5-8.9s-1.9-7.8-1.9-12.6
		s0.7-8.9,2-12.4c1.4-3.5,3.2-6.4,5.4-8.8c2.3-2.4,5.1-4.2,8.4-5.5c3.4-1.3,7-1.9,10.8-1.9c3.1,0,6.2,0.4,9.1,1.3
		c2.9,0.8,5.5,1.8,7.8,2.9v10.3H713c-0.7-0.6-1.6-1.2-2.6-1.9c-1.1-0.7-2.4-1.4-3.9-2.2c-1.3-0.7-2.9-1.2-4.7-1.7s-3.6-0.7-5.2-0.7
		c-5,0-9,1.8-12,5.4c-3,3.6-4.5,8.7-4.5,15.3c0,6.4,1.5,11.5,4.4,15.1c2.9,3.6,7,5.4,12.2,5.4c3.1,0,6.1-0.6,9-1.9
		c2.8-1.2,5.3-2.8,7.5-4.8h0.6v10.3c-1,0.4-2.2,0.9-3.6,1.5c-1.4,0.6-2.7,1-3.9,1.3c-1.6,0.5-3.1,0.8-4.4,1
		C700.5,85.2,698.9,85.3,696.8,85.3z"/>
	<path class="st0" d="M754.5,78.3c-0.8,0.6-1.8,1.3-3.2,2.3c-1.3,1-2.6,1.8-3.8,2.4c-1.7,0.8-3.4,1.5-4.9,2
		c-1.6,0.5-3.8,0.7-6.7,0.7c-2.4,0-4.6-0.4-6.7-1.3c-2.1-0.8-4-2-5.6-3.6c-1.5-1.5-2.8-3.3-3.7-5.5s-1.4-4.5-1.4-7
		c0-3.8,0.8-7,2.5-9.6c1.7-2.7,4.3-4.8,7.9-6.3c3.2-1.4,7-2.4,11.4-2.9s9.1-0.9,14.2-1.2v-1.8c0-2.1-0.3-3.9-1-5.2s-1.6-2.3-2.9-3.1
		c-1.2-0.7-2.7-1.2-4.5-1.5c-1.8-0.2-3.6-0.4-5.5-0.4c-2.2,0-4.8,0.3-7.8,1c-3,0.6-6,1.6-9,2.8h-0.6v-9.3c1.8-0.5,4.3-1,7.6-1.6
		s6.6-0.9,9.8-0.9c3.9,0,7.2,0.3,9.9,0.9s5.1,1.6,7.3,3.2c2.1,1.5,3.6,3.4,4.7,5.8c1,2.4,1.5,5.3,1.5,8.7v37.3h-9.6L754.5,78.3
		L754.5,78.3z M754.5,70.7V55.6c-2.3,0.2-5.2,0.5-8.7,0.8s-6.3,0.8-8.5,1.4c-2.6,0.7-4.7,1.9-6.4,3.4s-2.5,3.7-2.5,6.5
		c0,3.1,0.9,5.5,2.8,7.1c1.8,1.6,4.5,2.4,8.1,2.4c3,0,5.8-0.6,8.3-1.9C750,74.1,752.4,72.5,754.5,70.7z"/>
	<path class="st0" d="M822.7,84.1H813v-31c0-2.5-0.1-4.8-0.4-7c-0.3-2.2-0.7-3.9-1.5-5.2c-0.8-1.4-1.9-2.4-3.3-3.1
		c-1.4-0.7-3.3-1-5.7-1s-4.9,0.6-7.4,1.8s-5,2.8-7.5,4.8v40.7h-9.6V29.6h9.6v6.1c2.9-2.4,5.7-4.3,8.5-5.6c2.8-1.3,5.8-2,8.9-2
		c5.6,0,10.1,1.8,13.2,5.3c3.2,3.5,4.8,8.7,4.8,15.4v35.3C822.6,84.1,822.7,84.1,822.7,84.1z"/>
	<path class="st0" d="M887.6,84.1V20H862v-8.6h61.4V20h-25.6v64.1H887.6z"/>
	<path class="st0" d="M966.7,56.9c0,9.2-2.3,16.3-7,21.3c-4.6,5-10.8,7.5-18.6,7.5c-8,0-14.2-2.6-18.8-7.7c-4.6-5.2-6.8-12.2-6.8-21
		c0-9.1,2.4-16.2,7.1-21.2c4.7-5,10.9-7.6,18.6-7.6c7.7,0,13.9,2.5,18.6,7.5C964.4,40.6,966.7,47.7,966.7,56.9z M956.8,56.9
		c0-7.1-1.4-12.3-4.1-15.7c-2.7-3.4-6.5-5.2-11.5-5.2s-8.9,1.7-11.6,5.2c-2.7,3.4-4.1,8.7-4.1,15.7c0,6.8,1.4,12,4.1,15.6
		c2.7,3.5,6.6,5.3,11.6,5.3s8.8-1.7,11.5-5.2S956.8,63.8,956.8,56.9z"/>
	<path class="st0" d="M1070.4,47.8c0,6.6-1.4,12.6-4.2,18c-2.8,5.3-6.6,9.5-11.4,12.5c-3.9,2.3-7.8,3.9-11.8,4.6s-9.1,1.2-15.3,1.2
		h-17.6V11.4h17.4c7.2,0,12.8,0.5,16.9,1.5s7.6,2.4,10.4,4.2c4.9,3.1,8.7,7.2,11.4,12.3S1070.4,40.8,1070.4,47.8z M1059.9,47.7
		c0-5.6-1-10.4-2.9-14.3c-1.9-4-4.8-7-8.7-9.3c-2.7-1.6-5.6-2.7-8.7-3.4c-3.1-0.7-6.9-1-11.5-1h-7.7v56.1h7.7c4.5,0,8.5-0.3,11.8-1
		c3.4-0.7,6.5-2,9.3-3.8c3.5-2.3,6.2-5.3,7.9-9.1C1059,58.1,1059.9,53.4,1059.9,47.7z"/>
	<path class="st0" d="M1091.2,20.5h-11V11h11V20.5z M1090.5,84.1h-9.6V29.6h9.6V84.1z"/>
	<path class="st0" d="M1120.2,85.4c-3.8,0-7.4-0.5-10.7-1.5s-6.1-2-8.3-3.1V70.6h0.5c0.8,0.6,1.8,1.3,2.9,2.1
		c1.1,0.7,2.6,1.5,4.4,2.3c1.6,0.7,3.4,1.4,5.4,1.9c2,0.6,4,0.8,6.1,0.8c1.5,0,3.2-0.2,4.9-0.5s3-0.8,3.9-1.3
		c1.2-0.7,2.1-1.5,2.6-2.4c0.5-0.8,0.8-2.1,0.8-3.8c0-2.2-0.6-3.8-1.9-4.9c-1.2-1.1-3.5-2-6.6-2.8c-1.2-0.3-2.8-0.6-4.8-1
		s-3.8-0.8-5.5-1.3c-4.4-1.2-7.6-3.1-9.5-5.6c-2-2.5-3-5.6-3-9.2c0-4.9,1.9-8.9,5.8-12s9.1-4.6,15.5-4.6c3.2,0,6.4,0.4,9.6,1.1
		s5.9,1.7,8.1,2.8V42h-0.5c-2.5-1.9-5.2-3.3-8.2-4.4s-6.1-1.6-9.2-1.6c-3.2,0-5.9,0.6-8.1,1.9c-2.2,1.3-3.3,3.2-3.3,5.8
		c0,2.3,0.6,4,1.9,5.1s3.4,2,6.3,2.8c1.4,0.4,3,0.7,4.8,1s3.6,0.7,5.6,1.2c4.2,1,7.4,2.7,9.6,5c2.1,2.3,3.2,5.5,3.2,9.6
		c0,2.3-0.5,4.6-1.5,6.7s-2.4,3.9-4.3,5.4c-2.1,1.6-4.4,2.9-6.9,3.7S1124.1,85.4,1120.2,85.4z"/>
	<path class="st0" d="M1174.3,85.3c-3.9,0-7.5-0.6-10.8-1.7c-3.3-1.2-6.1-2.9-8.5-5.2c-2.4-2.3-4.2-5.3-5.5-8.9s-1.9-7.8-1.9-12.6
		s0.7-8.9,2-12.4s3.2-6.4,5.4-8.8c2.3-2.4,5.1-4.2,8.4-5.5c3.4-1.3,7-1.9,10.8-1.9c3.1,0,6.2,0.4,9.1,1.3c2.9,0.8,5.5,1.8,7.8,2.9
		v10.3h-0.6c-0.7-0.6-1.6-1.2-2.6-1.9c-1.1-0.7-2.4-1.4-3.9-2.2c-1.3-0.7-2.9-1.2-4.7-1.7c-1.8-0.5-3.6-0.7-5.2-0.7
		c-5,0-9,1.8-12,5.4c-3,3.6-4.5,8.7-4.5,15.3c0,6.4,1.5,11.5,4.4,15.1c2.9,3.6,7,5.4,12.2,5.4c3.1,0,6.1-0.6,9-1.9
		c2.8-1.2,5.3-2.8,7.5-4.8h0.6v10.3c-1,0.4-2.2,0.9-3.6,1.5s-2.7,1-3.9,1.3c-1.6,0.5-3.1,0.8-4.4,1
		C1178,85.2,1176.4,85.3,1174.3,85.3z"/>
	<path class="st0" d="M1247.1,56.9c0,9.2-2.3,16.3-7,21.3c-4.6,5-10.8,7.5-18.6,7.5c-8,0-14.2-2.6-18.8-7.7
		c-4.6-5.2-6.8-12.2-6.8-21c0-9.1,2.3-16.2,7.1-21.2c4.7-5,10.9-7.6,18.6-7.6s13.9,2.5,18.6,7.5S1247.1,47.7,1247.1,56.9z
		 M1237.2,56.9c0-7.1-1.3-12.3-4.1-15.7c-2.7-3.4-6.5-5.2-11.5-5.2s-8.9,1.7-11.6,5.2c-2.7,3.4-4.1,8.7-4.1,15.7
		c0,6.8,1.4,12,4.1,15.6c2.7,3.5,6.6,5.3,11.6,5.3s8.8-1.7,11.5-5.2C1235.8,69.1,1237.2,63.8,1237.2,56.9z"/>
	<path class="st0" d="M1301.4,29.6l-21.6,54.5h-8.7l-21.4-54.5h10.4l15.7,42.1l15.5-42.1C1291.3,29.6,1301.4,29.6,1301.4,29.6z"/>
	<path class="st0" d="M1332.8,85.4c-9.1,0-16.2-2.4-21.3-7.3c-5-4.9-7.6-11.9-7.6-20.9c0-8.9,2.4-16,7.3-21.2
		c4.9-5.3,11.3-7.9,19.2-7.9c3.6,0,6.7,0.5,9.4,1.5c2.7,1,5.1,2.5,7.2,4.6s3.6,4.6,4.7,7.6s1.6,6.7,1.6,11.1v5h-39.7
		c0,6.3,1.7,11.2,5,14.6s8,5,13.9,5c2.1,0,4.2-0.2,6.2-0.7s3.9-1,5.5-1.8c1.7-0.7,3.2-1.5,4.4-2.2c1.2-0.7,2.2-1.4,3-2h0.6v10
		c-1.1,0.4-2.5,1-4.2,1.6s-3.2,1.1-4.5,1.5c-1.9,0.5-3.6,0.9-5.1,1.1C1337,85.3,1335.1,85.4,1332.8,85.4z M1344,50.8
		c-0.1-2.5-0.4-4.6-0.9-6.4c-0.5-1.8-1.3-3.3-2.4-4.5c-1.1-1.4-2.6-2.4-4.3-3.1c-1.8-0.7-3.9-1.1-6.5-1.1s-4.7,0.4-6.5,1.1
		s-3.4,1.8-4.9,3.2c-1.4,1.4-2.5,3-3.3,4.8c-0.8,1.7-1.2,3.8-1.4,6.1L1344,50.8L1344,50.8z"/>
	<path class="st0" d="M1393.5,39.4h-0.5c-0.7-0.2-1.5-0.3-2.3-0.4c-0.8,0-1.8-0.1-2.9-0.1c-2.6,0-5.2,0.5-7.7,1.6
		c-2.6,1.1-5,2.7-7.3,4.8V84h-9.6V29.6h9.6v8.1c3.5-3,6.6-5.1,9.2-6.3s5.2-1.8,7.6-1.8c1,0,1.7,0,2.2,0.1c0.5,0,1.1,0.1,1.7,0.2
		L1393.5,39.4L1393.5,39.4z"/>
	<path class="st0" d="M1450,11.4l-1.4,52.7h-8.5l-1.5-52.7C1438.6,11.4,1450,11.4,1450,11.4z M1449.5,84.1H1439V73.8h10.5V84.1z"/>
</g>
<g id="Layer_2_1_">
</g>
<g id="MJm0jO.tif">
	<g>
		<path class="st0" d="M1390,1212c-9.8,0-19.6,0-30.8,0c-1.3,10.9-2.4,20.3-3.7,31.4c-20.1,0-40.3,0-62.6,0
			c-0.7-9.5-1.4-18.9-2.4-31.5c-32.9,0-64.9,0-97,0l0.8,0.8c0-11.1,0-22.2,0-33.3l-0.8,0.7c10.5-0.6,21-1.1,31.4-1.7
			c1.4-11.5,2.6-20.9,4-32c21.3,0,41,0,61.3,0c0-11.3,0-20.7,0-32.9c-32.7,0-63.8,0-96.8,0c0-22.6,0-42.2,0-62.8
			c-11.3,0-20.7,0-30.5,0c-1.2,10.9-2.3,20.4-3.5,30.8c-11.4,0-21.2,0-31.1,0l0.8,0.8c0-10.2,0-20.4,0-33.4c-13,0-23.2,0-33.4,0
			l0.8,0.8c0-11.1,0-22.3,0-33.4l-0.8,0.8c32,0,64.1,0,96.7,0c0-12.5,0-21.8,0-31.5c-10.9-1.2-20.3-2.1-29.6-3.1
			c-1.3-11.1-2.4-20.5-3.6-30.6c-11.4,0-21.2,0-30.9,0c0-10.4,0-20.8,0-31.3c-45,0-87,0-130.4,0c0,11.6,0,21.4,0,31.3l0.7-0.8
			c-9.8,0-19.6,0-30.9,0c-1.3,11-2.4,20.4-3.7,31.4c-9.5,0-18.9,0-29.7,0c0-20.7,0-40.9,0-62.3c9.7-0.8,18.4-1.5,30-2.5
			c0.4-9,0.8-18.4,1.4-29.4c-10.7-1.2-20.1-2.4-32.3-3.8c0-10.4,0-20.9,0-31.3l-0.8,0.7c32.3,0,64.5,0,96.5,0
			c1.5,12.3,2.6,21.8,3.9,32.4c11-0.5,20.4-1,29.4-1.4c0.9-11.9,1.5-20.7,2.3-30.4c11.2-0.6,20.9-1.1,30.7-1.5c0,0-0.9-0.8-0.9-0.8
			c1,10.4,1.9,20.8,3.1,33.5c21.8,0,42.9,0,64,0c0,10.4,0,20.8,0,31.3c23.2,0,43.5,0,64.5,0c0-11.6,0-21.4,0-31.3
			c11.1,0,22.2,0,33.4,0c0,10.4,0,20.8,0,34c34,0,65.1,0,98.8,0c0,23,0,43.2,0,62.9c11.5,0,20.3,0,30.2,0
			c0.8-10.6,1.6-20.1,2.3-29.7c11.3-1.3,20.8-2.4,31.8-3.7c0-11.2,0-21.1,0-30.9l-0.7,0.8c9.8,0,19.7,0,31,0
			c1.2,10.3,2.3,19.8,3.5,31c9.6,0.8,19.1,1.5,29.7,2.3c0,20.9,0,40.5,0,63c-20.1,0-40.3,0-62.5,0c-0.7,13.2-1.3,23.7-1.9,34.1
			l0.8-0.7c-21.4,0-42.7,0-65.2,0c0,24.6,0,45.2,0,65.9c-10.4,0-20.8,0-31.3,0c0,12.2,0,21.5,0,30.4c11.1,0,20.4,0,30.6,0
			c0-11.6,0-21.4,0-31.2c10.4,0,20.9,0,31.3,0c1.4-12.2,2.5-21.6,3.7-31.8c11.4,0,21.2,0,31,0l-0.8-0.7c0,9.9,0,19.8,0,32.3
			c21.9,0,42.3,0,64.1,0c0,12,0,21.4,0,31.9c-9.7,0.8-18.5,1.6-30.1,2.5c0,20,0,40.4,0,63.7c-13.1,0-23.6,0-34,0
			c0,0,0.7,0.8,0.7,0.8c-0.5-10.5-1.1-20.9-1.6-31.2c-11.4,0-20.8,0-31.8,0c0,11.6,0,21.4,0,31.2L1390,1212z M1228.6,985.1
			c0,33.6,0,64.7,0,95.5c32.5,0,62.8,0,94.2,0c0-32.4,0-63.4,0-95.5C1290.9,985.1,1260.5,985.1,1228.6,985.1z"/>
		<path class="st0" d="M574.6,788.6c0-9.8,0-19.7,0-30.9c-11.2-1.3-20.7-2.4-31.6-3.6c0-20.6,0-40.9,0-62.4
			c9.7-0.7,18.5-1.4,29.2-2.2c0-9.4,0-18.8,0-30c-8.9-0.9-18.3-1.9-29.2-3.1c0-9.9,0-19.3,0-30c9.7-0.7,18.5-1.3,29.2-2.1
			c0-9.5,0-18.9,0-30.2c-9-0.9-18.5-1.8-29.3-2.9c0-10.1,0-19.4,0-30c53.3,0,105.4,0,160.3,0c0.5,9.3,0.9,18.6,1.5,30.8
			c-21.8,0-42.2,0-64.2,0c-0.9,12-1.5,21.5-2.3,32c-10.2,0.8-19,1.4-29.7,2.2c0,9.5,0,18.9,0,32.1c20.9,0,42.3,0,63.7,0
			c0,0-0.7-0.8-0.7-0.8c0.2,11.1,0.5,22.3,0.7,33.4c-21.3,0-42.6,0-63.7,0c0,23.2,0,43.3,0,64.5c22.5,0,43.1,0,63.8,0
			c0,10.4,0,20.8,0,31.5c12.1,1.2,21.5,2.2,33.2,3.3c0,22,0,42.2,0,63.8c12.4,0,22.2,0,32.1,0l-0.8-0.8c0,10.2,0,20.4,0,33.4
			c13,0,23.2,0,33.4,0l-0.8-0.8c0,10.4,0,20.9,0,31.3c-12.3,1.4-21.7,2.5-32.6,3.8c0,11.3,0,21.1,0,30.9l0.7-0.8
			c-9.8,0-19.6,0-30.8,0c-1.3,10.9-2.4,20.3-3.7,31.4c-9.4,0-18.8,0-30.7,0c0-21.4,0-42.7,0-63.9c0,0-0.8,0.7-0.8,0.7
			c10.5-0.5,20.9-1.1,31.2-1.6c0-11.4,0-20.8,0-31.8c-11.6,0-21.4,0-31.2,0l0.8,0.7c0-20.6,0-41.1,0-64.4c-21.7,0-41.9,0-63.7,0
			c-1.2-11.9-2.2-21.2-3.4-32.6c-10.6-0.6-21.1-1.1-31.5-1.7L574.6,788.6z"/>
		<path class="st0" d="M900,1017.1c20.7,0,41.4,0,63.8,0c0,10.6,0,19.9,0,31c-9,0.7-17.8,1.4-30.3,2.3c0,20.9,0,42.2,0,63.4
			c0,0,0.8-0.9,0.8-0.9c-11.7,1-23.5,2-35.2,3c0-11.1,0-22.1,0-34.3c-12,0.6-21.3,1-30.9,1.4c0,12.4,0,22,0,31.7
			c-10.4,0-20.8,0-31.3,0c0,12.2,0,21.5,0,30.4c11.1,0,20.4,0,30.6,0c0-11.6,0-21.4,0-31.2c10.8,0.4,21.6,0.8,32.4,1.2
			c0,20.4,0,40.8,0,63.2c-10.3,0.9-19.7,1.7-30.8,2.6c-0.6,10.9-1.2,21.3-1.7,31.7l0.8-0.8c-9.8,0-19.7,0-30.9,0
			c-1.3,11.2-2.3,20.7-3.6,31.6c-9.8,0-19.2,0-29.6,0c0-53.9,0-106.7,0-160.7c10.1-0.6,18.9-1.2,29.4-1.8c0-10,0-19.3,0-30.5
			c-9.5-0.7-19-1.5-30.2-2.4c0-20.9,0-40.5,0-63c-22,0-42.3,0-65.5,0c0-13.3,0-23.7,0-34.1c0,0-0.7,0.8-0.7,0.8c21.4,0,42.7,0,66,0
			c0-24.6,0-45.3,0-66l-0.7,0.8c31.4,0,62.7,0,96.8,0c0.5,10,1,19.3,1.6,31.3c-21.6,0-41.8,0-63.7,0c0,33.6,0,64.5,0,97.6
			c10.4,0.5,20.9,1,31.3,1.5l-0.7-0.8c0.5,10.5,1.1,20.9,1.6,31.2c11.5,0,20.8,0,31.8,0c0-11.6,0-21.4,0-31.2L900,1017.1z"/>
		<path class="st0" d="M542.7,525.4c0-75.8,0-149.7,0-225c75.1,0,148.9,0,225,0c0,74,0,148.5,0,225
			C693.9,525.4,619.4,525.4,542.7,525.4z M576.1,332.8c0,55,0,107.8,0,159.7c54.8,0,107.5,0,159.7,0c0-54.3,0-106.5,0-159.7
			C682.2,332.8,630,332.8,576.1,332.8z"/>
		<path class="st0" d="M1486.2,300.6c0,74.9,0,148.7,0,224.7c-74.3,0-148.8,0-225.2,0c0-74.1,0-148.6,0-224.7
			C1335.8,300.6,1410.3,300.6,1486.2,300.6z M1293.1,492.9c54.6,0,107.3,0,159.7,0c0-54.6,0-107.4,0-160c-54.2,0-106.3,0-159.7,0
			C1293.1,386.4,1293.1,438.5,1293.1,492.9z"/>
		<path class="st0" d="M768.5,1244c-75.7,0-149.6,0-225.3,0c0-75.2,0-149.7,0-225.7c74.9,0,149.4,0,225.3,0
			C768.5,1093.2,768.5,1167.1,768.5,1244z M575.6,1050.5c0,55.3,0,107.4,0,160.2c54.2,0,107,0,159.7,0c0-54.5,0-107.3,0-160.2
			C681.2,1050.5,629.1,1050.5,575.6,1050.5z"/>
		<path class="st0" d="M1356.6,722.8c0,9.8,0,19.7,0,32.1c21.8,0,42.1,0,65.3,0c0,13,0,23.4,0,33.8l0.8-0.7c-21.5,0-42.9,0-66,0
			c0,13.6,0,23.5,0,33.4l0.8-0.8c-32.3,0-64.6,0-96.3,0c0-12.4,0-21.8,0-31.2c10.7-0.9,19.5-1.6,29.1-2.4c0-10.6,0-19.9,0-29.6
			c-43.6,0-85.7,0-128.6,0c0,11.6,0,21.5,0,31.4c-10.5-0.6-21-1.2-33.4-1.8c0-22.8,0-43.5,0-64.2c10.4,0,20.8,0,33.7,0
			c0-22.9,0-43.2,0-63.3c12-1.4,21.4-2.5,32.1-3.7c-0.5-10.9-1-20.1-1.5-30.1c-23.2,0-43.7,0-64.3,0c0.2-11.1,0.5-22.3,0.7-33.4
			l-0.8,0.8c10.2,0,20.4,0,33.4,0c0-13,0-23.2,0-33.4l-0.7,0.8c11.1,0,22.2,0,33.4,0l-0.7-0.8c0,10.2,0,20.4,0,33.4
			c13,0,23.2,0,33.4,0l-0.8-0.7c0,20.7,0,41.4,0,63.9c11.3,1.1,20.7,2,31.5,3.1c0,10,0,19.4,0,30.7c-20.5,0-40.2,0-62.4,0
			c-0.5,11.1-0.9,20.5-1.5,33.7c55.7,0,109.6,0,163.6,0L1356.6,722.8z"/>
		<path class="st0" d="M932.5,527c0,22,0,44,0,66l0.8-0.7c-11.1,0.3-22.2,0.5-33.4,0.8c0-10.5,0-20.9,0-31.2c-12.3,0-21.6,0-31.9,0
			c0,11.6,0,21.4,0,31.2c-10.4,0-20.8,0-31.4,0c-1.3,12-2.2,21.4-3.2,30.7c-11.1,1.3-20.4,2.3-32,3.6c0,21.8,0,42,0,63.5
			c-12.3,0-22.1,0-31.9,0c0-10.5,0-20.9,0-31.2c-12.3,0-21.6,0-31.9,0c0,11.6,0,21.4,0,31.2c-11.1,0-22.3,0-33.4,0
			c0-10.2,0-20.4,0-33.4c-12.2,0-22.4,0-32.6,0c0,0,0.7,0.8,0.7,0.8c0-9.9,0-19.8,0-32.3c31.9,0,63.1,0,95.8,0c0-11.9,0-21.2,0-32.2
			c-9.2-0.7-18-1.3-29.7-2.2c-0.4-9.1-0.9-18.5-1.4-30.7c32.4,0,63.6,0,96.7,0c0.7-13,1.3-23.4,1.8-33.9l-0.8,0.7
			c10.2,0,20.4,0,33.4,0c0-13,0-23.2,0-33.4l-0.7,0.8c11.1,0,22.2,0,33.4,0l-0.7-0.8c0,10.2,0,20.4,0,33.4c13,0,23.2,0,33.4,0
			L932.5,527z"/>
		<path class="st0" d="M1063.7,1211.9c-11.1,0-22.2,0-33.3,0l0.7,0.8c-0.5-10.5-1.1-20.9-1.6-31.2c-11.5,0-20.8,0-31.8,0
			c0,11.6,0,21.4,0,31.2l0.7-0.8c-9.8,0-19.7,0-30.9,0c-1.3,11.1-2.4,20.6-3.6,31.5c-9.7,0-19.1,0-29.8,0c0-20.4,0-40,0-61.5
			c9-1.2,18.4-2.4,29.5-3.8c0-9.2,0-18.6,0-29.9c-9.5-0.7-18.9-1.4-29.6-2.1c0-11.9,0-22.5,0-33.1c0,0-0.8,0.9-0.7,0.8
			c31.4,0,62.8,0,96,0c0.9,11.9,1.6,21.3,2.5,33.3c21.3,0,41.6,0,62.9,0c0,11.4,0,20.1,0,30.6c-9.3,1.1-18.7,2.3-30.2,3.6
			c-0.6,10.4-1.1,20.9-1.7,31.3C1063,1212.7,1063.7,1211.9,1063.7,1211.9z"/>
		<path class="st0" d="M1193.5,396.6c0,9.8,0,19.7,0,30.9c11.2,1.3,20.7,2.3,31.6,3.6c0,9.8,0,19.1,0,31.1c-32.1,0-63.4,0-95.8,0
			c0,12.3,0,22.1,0,31.9c0,0,0.8-0.9,0.8-0.9c-10.4,0.9-20.7,1.9-32.9,3c-0.6,9.9-1.3,19.1-2,30.8c-11.4,0-21.7,0-32,0l0.7,0.8
			c0-10.2,0-20.4,0-33.4c-13,0-23.2,0-33.4,0l0.8,0.7c0-9.8,0-19.7,0-31c10.2-1.2,19.7-2.3,31.1-3.6c0.7-9.6,1.4-19.1,2.2-29.7
			c9.9-0.8,18.7-1.5,31-2.5c0-10.1,0-20.5,0-30.8c0,0-0.8,0.9-0.8,0.9c10.5,0,21,0,32.6,0c0.8,9.6,1.5,18.4,2.4,29.9
			c9.1,0.4,18.4,0.8,29.4,1.3c1.2-10.7,2.3-20.1,3.7-32.3c10.4,0,20.9,0,31.3,0L1193.5,396.6z"/>
		<path class="st0" d="M998.5,396.4c-9.8,0-19.7,0-30.9,0c-1.3,11.2-2.3,20.7-3.6,31.6c-9.7,0-19.1,0-29.8,0c0-20.5,0-40,0-61.6
			c9.1-1.1,18.5-2.3,29.6-3.7c0-9.3,0-18.7,0-29.9c-9.6-0.7-19-1.4-29.6-2.2c0-10.2,0-19,0-29.7c19.9,0,40.2,0,62.7,0
			c0.8,9,1.6,18.4,2.6,29.2c10.2,0,19.6,0,30.2,0c0.7-9.7,1.4-18.5,2.2-29.2c9.5,0,18.9,0,31.2,0c0,20.9,0,42.2,0,63.6l0.8-0.8
			c-20.7,0-41.4,0-64.1,0c-0.7,12.5-1.3,22.9-1.9,33.4L998.5,396.4z"/>
		<path class="st0" d="M932.5,592.9c31.5,0,62.9,0,96.3,0c1.2,10.2,2.3,19.6,3.6,31c10.5,0.6,21,1.1,31.4,1.7l-0.7-0.8
			c0.2,11.1,0.5,22.3,0.7,33.4c-21.4,0-42.9,0-66.1,0c0,12.8,0,22.6,0,32.5c0,0,0.8-0.8,0.8-0.8c-10.5,0.6-20.9,1.1-31.3,1.7
			c-1.4,11.5-2.5,20.9-3.6,30.3c-10.4,0-19.1,0-29.2,0c0-21.2,0-41.5,0-63.1c10.4-0.8,19.8-1.5,29.6-2.2c0-11.1,0-20.4,0-30
			c-11-1.3-20.5-2.4-30.6-3.6c0-11.3,0-21.2,0-31L932.5,592.9z"/>
		<path class="st0" d="M835.5,527c-9.9,0-19.8,0-31.3,0c0-21.1,0-41.5,0-63.8c9.6-0.7,19.1-1.4,29.6-2.1c0-10.2,0-18.9,0-29.5
			c-9-1.1-18.5-2.3-29.6-3.7c0-9.3,0-18.7,0-29.6c31.4,0,62.6,0,94.9,0c0,9.8,0,18.5,0,29.1c-9.2,1.1-18.7,2.3-31.8,4
			c0,21,0,42.4,0,63.8c0,0,0.7-0.8,0.7-0.8c-10.2,0-20.4,0-33.4,0c0,13,0,23.2,0,33.4L835.5,527z"/>
		<path class="st0" d="M573.8,787.8c0,64,0,128.1,0,194.8c-10.1,0.5-19.5,1-30.6,1.5c0-65.2,0-128.9,0-195.6c10.5,0,20.9,0,31.4,0
			C574.6,788.6,573.8,787.8,573.8,787.8z"/>
		<path class="st0" d="M933.4,853.2c-9.9,0-19.7,0-32.2,0c0-21,0-41.3,0-63.5c-12.9-0.7-23.4-1.2-33.8-1.8c0,0,0.7,0.8,0.7,0.8
			c0-11.1,0.1-22.2,0.1-33.3l-0.8,0.8c32.1,0,64.2,0,96.5,0c0,11.9,0,21.2,0,30.7c-11,1.3-20.4,2.4-31.3,3.7c0,22.3,0,42.9,0,63.5
			L933.4,853.2z"/>
		<path class="st0" d="M1127.9,332.5c-11-0.6-19.8-1.2-30.2-1.8c0-10.1,0-19.5,0-30.3c42.3,0,84.3,0,127.5,0c0,9.9,0,18.6,0,30.2
			c-19.9,0-40.2,0-62.5,0c-1,11.9-1.8,21.4-2.7,32.2c-10.3,0-19.6,0-30.5,0C1129,353,1128.6,344.2,1127.9,332.5z"/>
		<path class="st0" d="M1421.9,820.6c0,32.9,0,65.8,0.1,98.7c0,0,0.7-0.8,0.7-0.8c-10.4,0-20.8,0-33.8,0c0-23.2,0-43.5,0-64.5
			c-12.5,0-22.4,0-32.2,0c0.3-11.1,0.5-22.2,0.8-33.4l-0.8,0.8c22,0,44,0,66,0C1422.7,821.3,1421.9,820.6,1421.9,820.6z"/>
		<path class="st0" d="M1356.6,592.3c0,9.8,0,19.7,0,31.2c-32.3,0-64.1,0-96.5,0c-0.5-10.7-1-20.5-1.4-30.2c0,0-0.8,0.9-0.8,0.9
			c10.5-1,21-2,32.6-3.1c0.8-9.6,1.5-18.3,2.4-29.9c9.1-0.4,18.4-0.8,29.4-1.3c1.2,10.7,2.3,20.1,3.7,31.5
			c10.5,0.6,20.9,1.1,31.4,1.7L1356.6,592.3z"/>
		<path class="st0" d="M900.7,495.1c0-9.8,0-19.7,0-31.3c20.9,0,41.1,0,63.1,0c0,20,0,40.1,0,63.1c-10.5,0-20.9,0-31.3,0
			c0,0,0.8,0.7,0.8,0.7c0-10.2,0-20.4,0-33.4c-13,0-23.2,0-33.4,0L900.7,495.1z"/>
		<path class="st0" d="M1194.3,1179.4c-20.7,0-41.4,0-65.2,0c0-22.5,0-43.9,0-65.2l-0.8,0.7c10.4,0,20.8,0,31.4,0
			c1.3,12.1,2.3,21.5,3.3,30.7c11.1,1.3,20.5,2.4,30.5,3.6c0,11.3,0,21.1,0,30.9L1194.3,1179.4z"/>
		<path class="st0" d="M1063.1,526.9c0,9.8,0,19.7,0,31.3c-20.9,0-41.1,0-63.1,0c0-20,0-40.1,0-63.1c10.5,0,20.9,0,31.3,0
			c0,0-0.8-0.7-0.8-0.7c0,10.2,0,20.4,0,33.4c13,0,23.2,0,33.4,0L1063.1,526.9z"/>
		<path class="st0" d="M1357.4,723.5c0-20.6,0-41.1,0-64.4c10.1-0.5,19.3-0.9,30.3-1.5c1.2,10.7,2.3,20.2,3.6,31.5
			c10.5,0.6,21,1.1,31.4,1.7c0,0-0.8-0.8-0.8-0.8c0,9.9,0,19.8,0,32.6c-22.3,0-43.8,0-65.2,0
			C1356.6,722.8,1357.4,723.5,1357.4,723.5z"/>
		<path class="st0" d="M802,820.6c0,22,0,44,0.1,66c0,0,0.7-0.8,0.7-0.8c-11.1,0-22.3,0-33.4,0l0.8,0.8c0-10.2,0-20.4,0-33.4
			c-13,0-23.2,0-33.4,0l0.8,0.8c0-10.3,0-20.5,0-32.6c23.3,0,44.3,0,65.2,0L802,820.6z"/>
		<path class="st0" d="M867.3,787.9c0,20.6,0,41.1,0,64.3c-10.1,0.5-19.3,0.9-30.3,1.4c-1.2-10.8-2.2-20.2-3.5-31.5
			c-10.6-0.5-21.1-1-31.5-1.6c0,0,0.8,0.7,0.8,0.7c-0.2-11.1-0.5-22.3-0.7-33.4c22,0.3,44,0.5,66,0.8L867.3,787.9z"/>
		<path class="st0" d="M1063.8,983.6c-21,0-42,0-65.2,0c0-12.1,0-22.4,0-32.6c0,0-0.7,0.8-0.7,0.8c21.6,0,43.2,0,65.2,0
			c0,13.3,0,23,0,32.6L1063.8,983.6z"/>
		<path class="st0" d="M868.1,1017.1c0-20.6,0-41.3,0-63.7c10.4,0,19.7,0,31.9,0c0,21.1,0,42.4,0,63.7c0,0,0.7-0.8,0.7-0.8
			c-11.1,0-22.3,0-33.4,0L868.1,1017.1z"/>
		<path class="st0" d="M638.9,918.5c0,20.5,0,41.1,0,64.2c-10.1,0.5-19.4,0.9-30.5,1.4c0-21.7,0-41.9,0-64.9c10.5,0,20.9,0,31.3,0
			L638.9,918.5z"/>
		<path class="st0" d="M1063,1212.7c20.6,0,41.2,0,64.4,0c0.5,10.2,0.9,19.5,1.4,30.6c-21.7,0-41.9,0-65.1,0c0-10.6,0-21,0-31.4
			C1063.7,1211.9,1063,1212.7,1063,1212.7z"/>
		<path class="st0" d="M1129.1,560.3c0.3-22.4,0.5-44.7,0.8-67.1c0,0-0.8,0.9-0.7,0.8c9.8,0.5,19.5,1,31.7,1.6c0,22.1,0,43.4,0,64.7
			c0,0,0.7-0.8,0.7-0.8c-11.1,0-22.3,0-33.4,0L1129.1,560.3z"/>
		<path class="st0" d="M1194.3,560.4c0-20.6,0-41.3,0-63.7c10.4,0,19.7,0,31.8,0c0,21,0,42.4,0,63.7l0.8-0.7c-11.1,0-22.3,0-33.4,0
			L1194.3,560.4z"/>
		<path class="st0" d="M869.5,300.2c10.7,0,19.5,0,29.6,0c0,20.7,0,40.3,0,62.7c-9,0.5-18.4,0.9-29.6,1.5
			C869.5,342.7,869.5,322.4,869.5,300.2z"/>
		<path class="st0" d="M1456.1,724c10.6,0,19.3,0,29.7,0c0,10,0,19.4,0,30.2c-9.8,0-19.2,0-29.7,0
			C1456.1,744.4,1456.1,735.7,1456.1,724z"/>
		<path class="st0" d="M1421.9,788.7c9.8,0,19.6,0,31.2,0c0,10.3,0,19.6,0,31.9c-10.3,0-20.8,0-31.2,0c0,0,0.8,0.7,0.8,0.7
			c0-11.1,0-22.3,0-33.4L1421.9,788.7z"/>
		<path class="st0" d="M1422.6,690.9c0-9.8,0-19.6,0-31.2c10.1,0,19.5,0,30.6,0c0,8.9,0,18.3,0,30.4c-10.5,0-20.9,0-31.3,0
			C1421.8,690.1,1422.6,690.9,1422.6,690.9z"/>
		<path class="st0" d="M1323.1,659.4c0,9.5,0,18.3,0,29.1c-9,0-18.4,0-29.5,0c0-8.8,0-18.1,0-29.1
			C1303.1,659.4,1312.4,659.4,1323.1,659.4z"/>
		<path class="st0" d="M1456.1,854.5c10.6,0,19.3,0,29.7,0c0,10,0,19.4,0,30.2c-9.8,0-19.2,0-29.7,0
			C1456.1,874.9,1456.1,866.2,1456.1,854.5z"/>
		<path class="st0" d="M639.7,919.3c0-10.2,0-20.4,0-32.7c12.3,0,22.5,0,32.7,0c0,0-0.8-0.7-0.8-0.7c0,11.1,0,22.3,0,33.4
			c0,0,0.8-0.7,0.8-0.7c-11.2,0-22.3,0-33.5,0.1C638.9,918.5,639.7,919.3,639.7,919.3z"/>
		<path class="st0" d="M1454.6,593c9.8,0,19.5,0,31.1,0c0,10.1,0,19.4,0,30.5c-9,0-18.3,0-30.3,0c0-10.4,0-20.8,0-31.2L1454.6,593z"
			/>
		<path class="st0" d="M1063.9,1017c0-11.1,0-22.3,0-33.4c0,0-0.7,0.8-0.7,0.8c11.1-0.3,22.2-0.5,33.4-0.8
			c-0.2,11.1-0.5,22.3-0.7,33.4l0.8-0.8c-11.1,0-22.3,0-33.4,0L1063.9,1017z"/>
		<path class="st0" d="M1031.3,1049.6c0-10.2,0-20.4,0-32.6c12.2,0,22.4,0,32.6,0c0,0-0.8-0.7-0.8-0.7c0,11.1,0,22.3,0,33.4l0.7-0.8
			c-11.1,0-22.2,0-33.3-0.1L1031.3,1049.6z"/>
		<path class="st0" d="M1063.8,625.6c0-10.2,0-20.4,0-32.6c12.2,0,22.4,0,32.6,0l-0.7-0.8c0.3,11.1,0.5,22.2,0.8,33.4
			c-11.1-0.2-22.3-0.5-33.4-0.7L1063.8,625.6z"/>
		<path class="st0" d="M1030.5,1048.8c0,9.8,0,19.6,0,31.2c-10.1,0-19.4,0-30.6,0c0-8.9,0-18.3,0-30.4c10.5,0,20.9,0,31.3,0
			C1031.3,1049.6,1030.5,1048.8,1030.5,1048.8z"/>
		<path class="st0" d="M1096.4,1081.5c-10.2,0-20.4,0-32.6,0c0-12.2,0-22.4,0-32.6c0,0-0.7,0.8-0.7,0.8c11.1,0,22.3,0,33.4,0
			l-0.8-0.8c0,11.1,0,22.3,0,33.4L1096.4,1081.5z"/>
		<path class="st0" d="M997.7,397.2c9.8,0,19.6,0,31.2,0c0,10.1,0,19.4,0,30.6c-8.9,0-18.2,0-30.4,0c0-10.5,0-20.9,0-31.3
			C998.5,396.4,997.7,397.2,997.7,397.2z"/>
		<path class="st0" d="M1096.4,593c0-10.2,0-20.4,0-32.7c12.3,0,22.5,0,32.7,0c0,0-0.8-0.7-0.8-0.7c0,11.1,0,22.3,0,33.4l0.8-0.8
			c-11.1,0-22.3,0-33.4,0L1096.4,593z"/>
		<path class="st0" d="M1421.9,1049.7c9.8,0,19.6,0,31.2,0c0,10.2,0,19.6,0,31.9c-10.3,0-20.8,0-31.2,0c0,0,0.8,0.7,0.8,0.7
			c0-11.1,0-22.3,0-33.4L1421.9,1049.7z"/>
		<path class="st0" d="M1194.2,397.3c0-9.8,0-19.6,0-31.2c10.1,0,19.4,0,30.6,0c0,8.9,0,18.3,0,30.4c-10.5,0-20.9,0-31.3,0
			C1193.5,396.6,1194.2,397.3,1194.2,397.3z"/>
		<path class="st0" d="M1129.1,1114.2c-10.2,0-20.4,0-32.7,0c0-12.3,0-22.5,0-32.7c0,0-0.7,0.8-0.7,0.8c11.1,0,22.3,0,33.4,0
			l-0.8-0.8c0,11.1,0,22.3,0,33.4L1129.1,1114.2z"/>
		<path class="st0" d="M1063,364.6c9.7,0,19.4,0,31.9,0c0,11.6,0,22.7,0,33.8c0,0,0.8-0.9,0.7-0.8c-9.7-0.5-19.4-1-31.8-1.6
			c0-11.3,0-21.7,0-32.1C1063.7,363.8,1063,364.6,1063,364.6z"/>
		<path class="st0" d="M803.5,362.3c0-10.3,0-19,0-29.2c10.4,0,19.7,0,30.4,0c0,9.8,0,18.5,0,29.2
			C824.7,362.3,815.3,362.3,803.5,362.3z"/>
		<path class="st0" d="M1455.4,592.3c-9.8,0-19.6,0-31.2,0c0-10.1,0-19.5,0-30.6c8.9,0,18.3,0,30.4,0c0,10.5,0,20.9,0,31.3
			C1454.6,593,1455.4,592.3,1455.4,592.3z"/>
		<path class="st0" d="M1357.4,593.1c0-9.8,0-19.6,0-31.2c10.2,0,19.5,0,30.6,0c0,8.9,0,18.3,0,30.4c-10.5,0-20.9,0-31.3,0
			C1356.6,592.3,1357.4,593.1,1357.4,593.1z"/>
		<path class="st0" d="M867.2,1212.7c9.8,0,19.6,0,31.2,0c0,10.1,0,19.5,0,30.6c-8.9,0-18.3,0-30.4,0c0-10.5,0-20.9,0-31.3
			C868,1211.9,867.2,1212.7,867.2,1212.7z"/>
		<path class="st0" d="M1030.4,1212c0,9.8,0,19.6,0,31.2c-10.3,0-19.6,0-31.9,0c0-10.3,0-20.8,0-31.2c0,0-0.7,0.8-0.7,0.8
			c11.1,0,22.3,0,33.4,0L1030.4,1212z"/>
		<path class="st0" d="M1226.1,560.3c9.7,0,19.4,0,31.8,0c0,11.6,0,22.7,0,33.7c0,0,0.8-0.9,0.7-0.8c-10.9-0.3-21.7-0.7-32.5-1
			c0,0,0.8,0.7,0.8,0.7c0-11.1,0-22.3,0-33.4L1226.1,560.3z"/>
		<path class="st0" d="M1193.6,1211.9c0,9.8,0,19.6,0,31.2c-10.1,0-19.4,0-30.6,0c0-8.9,0-18.2,0-30.4c10.5,0,20.9,0,31.3,0
			C1194.4,1212.7,1193.6,1211.9,1193.6,1211.9z"/>
		<path class="st0" d="M1421.9,1212c0,9.8,0,19.6,0,31.2c-10.3,0-19.6,0-31.9,0c0-10.3,0-20.8,0-31.2c0,0-0.7,0.8-0.7,0.8
			c11.1,0,22.3,0,33.4,0L1421.9,1212z"/>
		<path class="st0" d="M1096.4,820.5c-9.8,0-19.6,0-30.9,0c-1.2-10.1-2.3-19.5-3.6-30.9c-10.5-0.6-20.9-1.1-31.4-1.7l0.8,0.8
			c0-9.8,0-19.7,0-31.2c20.9,0,41.2,0,64.3,0c0,21.3,0,42.6,0,63.9L1096.4,820.5z"/>
		<path class="st0" d="M1226.9,886.6c-22,0-44,0-66,0c0-9.8,0-19.6,0-30.9c10.9-1.3,20.4-2.4,32.6-3.8c0-10.4,0-20.9,0-31.3
			c9.9,0,19.8,0,33.4,0C1226.9,843.6,1226.9,865.1,1226.9,886.6z"/>
		<path class="st0" d="M868.2,755.4c-9.9,0-19.8,0-31.4,0c0-21.1,0-41.4,0-63.3c20.6,0,40.8,0,62.3,0c0,9.7,0,18.4,0,29
			c-9.2,1.1-18.6,2.3-30.2,3.7c-0.5,10.4-1,20.9-1.5,31.4C867.4,756.1,868.2,755.4,868.2,755.4z"/>
		<path class="st0" d="M802.8,788.7c-20.7,0-41.4,0-65.2,0c0-12.5,0-22.9,0-33.4c0,0-0.8,0.7-0.8,0.7c10.2,0,20.4,0,33.4,0
			c0-13,0-23.2,0-33.4l-0.7,0.8c9.9,0,19.8,0,33.4,0C802.8,745.8,802.8,767.2,802.8,788.7z"/>
		<path class="st0" d="M867.3,592.2c11.1,0,22.3,0,33.4,0c0,20.6,0,41.2,0,63.7c-11.1,0-20.4,0-33.4,0
			C867.3,634.9,867.3,613.5,867.3,592.2z"/>
		<path class="st0" d="M1030.5,787.8c0,9.8,0,19.6,0,31.2c-10.2,0-19.5,0-30.6,0c0-8.9,0-18.3,0-30.4c10.5,0,20.9,0,31.3,0
			C1031.3,788.6,1030.5,787.8,1030.5,787.8z"/>
		<path class="st0" d="M1160.9,787.9c10.2,0,20.4,0,33.4,0c0,13,0,23.2,0,33.4c-10.2,0-20.4,0-33.4,0
			C1160.9,808.3,1160.9,798.1,1160.9,787.9z"/>
		<path class="st0" d="M1095.7,690.1c10.2,0,20.4,0,33.4,0c0,13,0,23.2,0,33.4c-10.2,0-20.4,0-33.4,0
			C1095.7,710.5,1095.7,700.3,1095.7,690.1z"/>
		<path class="st0" d="M997.7,690.8c9.8,0,19.6,0,31.2,0c0,10.2,0,19.5,0,30.6c-8.9,0-18.3,0-30.4,0c0-10.5,0-20.9,0-31.3
			C998.5,690,997.7,690.8,997.7,690.8z"/>
		<path class="st0" d="M1095.6,821.3c9.7,0,19.4,0,31.9,0c0.5,9.7,0.9,19,1.5,31.1c-12.2,0-23.3,0-34.4,0c0,0,0.9,0.8,0.8,0.7
			c0.3-10.9,0.6-21.7,1-32.5C1096.4,820.5,1095.6,821.3,1095.6,821.3z"/>
		<path class="st0" d="M736.8,690.1c11.1,0,22.3,0,33.4,0c-0.2,11.1-0.5,22.3-0.7,33.4c0,0,0.7-0.8,0.7-0.8c-11.1,0-22.3,0-33.4,0
			l0.8,0.7C737.4,712.3,737.1,701.2,736.8,690.1z"/>
		<path class="st0" d="M1063.1,657.4c11.1,0,22.3,0,33.4,0c0,11.1,0,22.3,0,33.4c-10.2,0-20.4,0-33.4,0
			C1063.1,677.8,1063.1,667.6,1063.1,657.4z"/>
		<path class="st0" d="M1357.4,853.2c0,9.9,0,19.8,0,33.4c-33.9,0-66.3,0-98.6,0c0-9.9,0-19.8,0-33.4
			C1292.7,853.2,1325.1,853.2,1357.4,853.2z"/>
		<path class="st0" d="M1290.5,1018.2c0,9.6,0,18.3,0,29.1c-9,0-18.4,0-29.5,0c0-8.8,0-18.1,0-29.1
			C1270.4,1018.2,1279.8,1018.2,1290.5,1018.2z"/>
		<path class="st0" d="M1129.1,951c0,10.2,0,20.4,0,33.4c-13,0-23.2,0-33.4,0c0-10.2,0-20.4,0-33.4
			C1108.7,951,1118.9,951,1129.1,951z"/>
		<path class="st0" d="M705,690.1c0,10.2,0,20.4,0,33.4c12.3,0,22.5,0,32.7,0c0,0-0.8-0.7-0.8-0.7c0,11.1,0,22.3,0,33.4
			c0,0,0.8-0.7,0.8-0.7c-22,0.2-44,0.5-66,0.7c0-22,0-44,0-66C682.7,690.1,693.9,690.1,705,690.1z"/>
		<path class="st0" d="M607.3,459.8c0-32,0-61.7,0-93.5c31.5,0,62.6,0,95.5,0c0,30.6,0,61.6,0,93.5
			C670.8,459.8,639.1,459.8,607.3,459.8z"/>
		<path class="st0" d="M1421.2,366.3c0,31.9,0,62.3,0,94.2c-32.1,0-63.1,0-95.5,0c0-31.4,0-61.8,0-94.2
			C1356.5,366.3,1387.6,366.3,1421.2,366.3z"/>
		<path class="st0" d="M703.1,1178.5c-31.6,0-62,0-94.4,0c0-31,0-62,0-94.8c30.8,0,61.8,0,94.4,0
			C703.1,1114.5,703.1,1144.9,703.1,1178.5z"/>
		<path class="st0" d="M1095.7,658.2c0-11.1,0-22.3,0-33.4c11.1,0,22.3,0,33.4,0c0,10.2,0,20.4,0,33.4
			C1116.1,658.2,1105.9,658.2,1095.7,658.2z"/>
	</g>
</g>
</svg>
