<?xml version="1.0" encoding="utf-8"?>
<!-- Generator: Adobe Illustrator 24.0.2, SVG Export Plug-In . SVG Version: 6.00 Build 0)  -->
<svg version="1.1" id="Layer_1" xmlns="http://www.w3.org/2000/svg" xmlns:xlink="http://www.w3.org/1999/xlink" x="0px" y="0px"
	 viewBox="0 0 2048 850" style="enable-background:new 0 0 2048 850;" xml:space="preserve">
<style type="text/css">
	.st0{fill:#212323;}
	.st1{fill:#FFFFFF;}
	.st2{font-family:'Tahoma';}
	.st3{font-size:100px;}
	.st4{font-size:70px;}
	.st5{fill:#E1490D;stroke:#FFFFFF;stroke-width:10;stroke-miterlimit:10;}
	.st6{fill:#E1490D;}
</style>
<g id="Layer_2_1_">
	<rect y="0" class="st0" width="2048" height="850"/>
	<text transform="matrix(1 0 0 1 81.6121 209.5553)" class="st1 st2 st3">Find your events faster. Make it accessable </text>
	<text transform="matrix(1 0 0 1 81.6121 329.5553)" class="st1 st2 st3">via installing Event Grid web app</text>
	<text transform="matrix(1 0 0 1 81.6121 449.5553)" class="st1 st2 st4"> </text>
	<text transform="matrix(1 0 0 1 103.5121 449.5553)" class="st1 st2 st3"> </text>
	<path class="st5" d="M-12.7,378.2"/>
	<path class="st6" d="M1222,737.4H810.7c-29.1,0-52.7-23.6-52.7-52.7V581.2c0-29.1,23.6-52.7,52.7-52.7H1222
		c29.1,0,52.7,23.6,52.7,52.7v103.5C1274.7,713.8,1251.1,737.4,1222,737.4z"/>
	<text transform="matrix(1 0 0 1 883.5253 668.5908)" class="st1 st2 st3">Install</text>
</g>
<g id="Layer_3">
</g>
</svg>
