<?xml version="1.0" encoding="utf-8"?>
<!-- Generator: Adobe Illustrator 24.0.2, SVG Export Plug-In . SVG Version: 6.00 Build 0)  -->
<svg version="1.1" id="Layer_1" xmlns="http://www.w3.org/2000/svg" xmlns:xlink="http://www.w3.org/1999/xlink" x="0px" y="0px"
	 viewBox="0 0 2048 850" style="enable-background:new 0 0 2048 850;" xml:space="preserve">
<style type="text/css">
	.st0{fill:#212323;}
	.st1{enable-background:new    ;}
	.st2{fill:#FFFFFF;}
	.st3{font-family:'Tahoma';}
	.st4{font-size:70px;}
	.st5{font-size:100px;}
	.st6{fill:#FF2A29;}
	.st7{fill:#E1490D;stroke:#FFFFFF;stroke-width:10;stroke-miterlimit:10;}
</style>
<g id="Layer_2_1_">
	<rect x="-22.4" y="0" class="st0" width="2096" height="850"/>
	<g class="st1">
		<path class="st2" d="M92.1,153.6l24.5-72.7h11.9l24.5,72.7h-10.2l-6.6-20.3h-27.8l-6.6,20.3H92.1z M133.6,125l-11.2-34.3
			L111.2,125H133.6z"/>
		<path class="st2" d="M201.2,153.6H192V148c-1.4,1.2-2.7,2.2-3.7,3s-2.3,1.5-3.7,2.1c-1.3,0.6-2.7,1.1-4.1,1.4
			c-1.4,0.3-3,0.5-4.9,0.5c-3,0-5.7-0.6-8.2-1.9c-2.5-1.2-4.7-3-6.4-5.4c-1.8-2.4-3.2-5.4-4.2-8.9s-1.5-7.6-1.5-12.2
			c0-4.8,0.6-8.9,1.9-12.4c1.2-3.5,2.9-6.6,5.1-9.2c2-2.4,4.4-4.2,7.2-5.6s5.8-2,8.9-2c2.7,0,5.1,0.3,7.1,0.9s4.2,1.5,6.4,2.8V77.6
			h9.2L201.2,153.6L201.2,153.6z M192,140.3v-31.4c-2.3-1.1-4.3-1.9-6.1-2.3s-3.8-0.6-5.9-0.6c-4.7,0-8.4,1.8-11.1,5.3
			c-2.7,3.5-4,8.6-4,15.3c0,6.4,1,11.3,3.1,14.7s5.3,5.1,9.9,5.1c2.4,0,4.8-0.5,7.3-1.6C187.6,143.6,189.9,142.1,192,140.3z"/>
		<path class="st2" d="M256.5,153.6h-9.2V148c-1.4,1.2-2.7,2.2-3.7,3s-2.3,1.5-3.7,2.1c-1.3,0.6-2.7,1.1-4.1,1.4
			c-1.4,0.3-3,0.5-4.9,0.5c-3,0-5.7-0.6-8.2-1.9c-2.5-1.2-4.7-3-6.4-5.4c-1.8-2.4-3.2-5.4-4.2-8.9s-1.5-7.6-1.5-12.2
			c0-4.8,0.6-8.9,1.9-12.4c1.2-3.5,2.9-6.6,5.1-9.2c2-2.4,4.4-4.2,7.2-5.6s5.8-2,8.9-2c2.7,0,5.1,0.3,7.1,0.9s4.2,1.5,6.4,2.8V77.6
			h9.2L256.5,153.6L256.5,153.6z M247.3,140.3v-31.4c-2.3-1.1-4.3-1.9-6.1-2.3s-3.8-0.6-5.9-0.6c-4.7,0-8.4,1.8-11.1,5.3
			c-2.7,3.5-4,8.6-4,15.3c0,6.4,1,11.3,3.1,14.7s5.3,5.1,9.9,5.1c2.4,0,4.8-0.5,7.3-1.6C242.9,143.6,245.2,142.1,247.3,140.3z"/>
		<path class="st2" d="M301.7,153.6V80.9h45.5v8.6h-35.8v19.9h33.3v8.6h-33.3v27h35.8v8.6H301.7z"/>
		<path class="st2" d="M400,99l-20.6,54.5h-8.3L350.8,99h9.9l14.9,42.1L390.4,99H400z"/>
		<path class="st2" d="M429.8,154.8c-8.7,0-15.4-2.4-20.2-7.3c-4.8-4.9-7.2-11.9-7.2-20.9c0-8.9,2.3-16,7-21.2
			c4.7-5.3,10.7-7.9,18.3-7.9c3.4,0,6.4,0.5,9,1.5s4.9,2.5,6.8,4.6c2,2.1,3.5,4.6,4.5,7.6s1.6,6.7,1.6,11.1v5h-37.8
			c0,6.3,1.6,11.2,4.8,14.6c3.2,3.4,7.6,5,13.2,5c2,0,4-0.2,5.9-0.7s3.7-1,5.2-1.8c1.7-0.7,3.1-1.5,4.2-2.2s2.1-1.4,2.8-2h0.5v10
			c-1.1,0.4-2.4,1-4,1.6s-3,1.1-4.3,1.5c-1.8,0.5-3.4,0.9-4.9,1.1C433.9,154.7,432,154.8,429.8,154.8z M440.6,120.2
			c-0.1-2.5-0.4-4.6-0.9-6.4s-1.3-3.3-2.2-4.5c-1.1-1.4-2.4-2.4-4.1-3.1s-3.8-1.1-6.2-1.1c-2.4,0-4.5,0.4-6.2,1.1s-3.3,1.8-4.7,3.2
			c-1.4,1.4-2.4,3-3.1,4.8c-0.7,1.7-1.2,3.8-1.4,6.1L440.6,120.2L440.6,120.2z"/>
		<path class="st2" d="M501.6,153.6h-9.2v-31.1c0-2.5-0.1-4.8-0.4-7c-0.2-2.2-0.7-3.9-1.4-5.2c-0.7-1.4-1.8-2.4-3.1-3.1
			c-1.3-0.7-3.2-1-5.5-1s-4.6,0.6-7.1,1.8c-2.4,1.2-4.8,2.8-7.1,4.8v40.7h-9.2V99h9.2v6.1c2.7-2.4,5.4-4.3,8.1-5.6
			c2.7-1.3,5.5-2,8.4-2c5.4,0,9.6,1.8,12.6,5.3s4.5,8.7,4.5,15.4v35.4H501.6z"/>
		<path class="st2" d="M531,154.6c-5,0-8.9-1.4-11.7-4.3c-2.8-2.8-4.2-7.3-4.2-13.5v-30.2h-6.2V99h6.2V83.3h9.2V99h16.9v7.6h-16.9
			v25.9c0,2.8,0,4.9,0.1,6.4s0.5,2.9,1.1,4.2c0.6,1.1,1.4,2,2.7,2.6c1.2,0.6,2.9,0.9,5,0.9c1.5,0,2.9-0.2,4.3-0.7
			c1.4-0.4,2.4-0.8,3-1.1h0.5v8.3c-1.7,0.5-3.5,0.9-5.2,1.1C534.2,154.5,532.5,154.6,531,154.6z"/>
		<path class="st2" d="M610.4,155c-5.1,0-9.8-0.8-14.1-2.3c-4.3-1.6-7.9-3.9-11-7.1c-3.1-3.2-5.4-7.2-7-12s-2.4-10.2-2.4-16.4
			c0-5.9,0.8-11.1,2.5-15.7c1.6-4.6,4-8.6,7.1-11.9c3-3.2,6.6-5.6,10.9-7.4c4.3-1.7,9.1-2.6,14.2-2.6c2.4,0,4.8,0.2,7,0.5
			c2.2,0.4,4.4,0.8,6.4,1.5c1.6,0.5,3.4,1.2,5.4,2c2,0.9,3.6,1.6,4.9,2.2v11.7h-0.8c-1.2-1.1-2.4-2.1-3.7-3.1s-3.1-2-5.4-3.1
			c-2-1-4.2-1.8-6.7-2.4c-2.5-0.7-5.3-1-8.2-1c-7,0-12.7,2.6-17,7.9s-6.5,12.3-6.5,21c0,4.9,0.6,9.1,1.7,12.8
			c1.1,3.6,2.8,6.7,4.9,9.3c2.1,2.5,4.6,4.4,7.5,5.7s6.3,2,9.9,2c2.7,0,5.5-0.2,8.2-0.6c2.7-0.4,5-1,6.8-1.8v-18.8h-16.8V117h26.4
			v31.7c-1.2,0.6-2.9,1.3-5,2.1s-4,1.5-5.8,2c-2.4,0.7-4.5,1.3-6.4,1.6C615.4,154.8,613.1,155,610.4,155z"/>
		<path class="st2" d="M674.9,108.9h-0.5c-0.7-0.2-1.4-0.3-2.2-0.4c-0.8,0-1.7-0.1-2.8-0.1c-2.5,0-4.9,0.5-7.4,1.6s-4.8,2.7-6.9,4.8
			v38.7H646V99h9.2v8.1c3.4-3,6.3-5.1,8.8-6.3s4.9-1.8,7.3-1.8c0.9,0,1.7,0,2.1,0.1c0.5,0,1,0.1,1.6,0.2L674.9,108.9L674.9,108.9z"
			/>
		<path class="st2" d="M692,89.9h-10.4v-9.5H692V89.9z M691.4,153.6h-9.2V99h9.2V153.6z"/>
		<path class="st2" d="M746.9,153.6h-9.2V148c-1.4,1.2-2.7,2.2-3.7,3s-2.3,1.5-3.7,2.1c-1.3,0.6-2.7,1.1-4.1,1.4
			c-1.4,0.3-3,0.5-4.9,0.5c-3,0-5.7-0.6-8.2-1.9c-2.5-1.2-4.7-3-6.4-5.4c-1.8-2.4-3.2-5.4-4.2-8.9s-1.5-7.6-1.5-12.2
			c0-4.8,0.6-8.9,1.9-12.4c1.2-3.5,2.9-6.6,5.1-9.2c2-2.4,4.4-4.2,7.2-5.6s5.8-2,8.9-2c2.7,0,5.1,0.3,7.1,0.9s4.2,1.5,6.4,2.8V77.6
			h9.2v76H746.9z M737.7,140.3v-31.4c-2.3-1.1-4.3-1.9-6.1-2.3s-3.8-0.6-5.9-0.6c-4.7,0-8.4,1.8-11.1,5.3c-2.7,3.5-4,8.6-4,15.3
			c0,6.4,1,11.3,3.1,14.7s5.3,5.1,9.9,5.1c2.4,0,4.8-0.5,7.3-1.6C733.2,143.6,735.5,142.1,737.7,140.3z"/>
		<path class="st2" d="M807.9,154.6c-5,0-8.9-1.4-11.7-4.3c-2.8-2.8-4.2-7.3-4.2-13.5v-30.2h-6.2V99h6.2V83.3h9.2V99h16.9v7.6h-16.9
			v25.9c0,2.8,0,4.9,0.1,6.4s0.5,2.9,1.1,4.2c0.6,1.1,1.4,2,2.7,2.6c1.2,0.6,2.9,0.9,5,0.9c1.5,0,2.9-0.2,4.3-0.7
			c1.4-0.4,2.4-0.8,3-1.1h0.5v8.3c-1.7,0.5-3.5,0.9-5.2,1.1C811,154.5,809.4,154.6,807.9,154.6z"/>
		<path class="st2" d="M869.7,126.3c0,9.2-2.2,16.3-6.6,21.3c-4.4,5-10.3,7.5-17.7,7.5c-7.6,0-13.5-2.6-17.9-7.7
			c-4.3-5.2-6.5-12.2-6.5-21c0-9.1,2.2-16.2,6.7-21.2s10.4-7.6,17.7-7.6c7.4,0,13.2,2.5,17.7,7.5
			C867.5,110.1,869.7,117.2,869.7,126.3z M860.2,126.3c0-7.1-1.3-12.3-3.9-15.7c-2.6-3.4-6.2-5.2-11-5.2s-8.5,1.7-11.1,5.2
			c-2.6,3.4-3.9,8.7-3.9,15.7c0,6.8,1.3,12,3.9,15.6c2.6,3.5,6.3,5.3,11.1,5.3c4.7,0,8.4-1.7,11-5.2S860.2,133.3,860.2,126.3z"/>
		<path class="st2" d="M953.3,99L924,173.7h-9.8l9.8-22.8L904,99h9.9l14.9,40.4L943.7,99H953.3z"/>
		<path class="st2" d="M1004.3,126.3c0,9.2-2.2,16.3-6.6,21.3c-4.4,5-10.3,7.5-17.7,7.5c-7.6,0-13.5-2.6-17.9-7.7
			c-4.3-5.2-6.5-12.2-6.5-21c0-9.1,2.2-16.2,6.7-21.2s10.4-7.6,17.7-7.6c7.4,0,13.2,2.5,17.7,7.5
			C1002.1,110.1,1004.3,117.2,1004.3,126.3z M994.8,126.3c0-7.1-1.3-12.3-3.9-15.7c-2.6-3.4-6.2-5.2-11-5.2s-8.5,1.7-11.1,5.2
			c-2.6,3.4-3.9,8.7-3.9,15.7c0,6.8,1.3,12,3.9,15.6c2.6,3.5,6.3,5.3,11.1,5.3c4.7,0,8.4-1.7,11-5.2S994.8,133.3,994.8,126.3z"/>
		<path class="st2" d="M1056.2,153.6h-9.2v-6.1c-2.8,2.5-5.5,4.4-8.1,5.6s-5.4,1.9-8.5,1.9c-2.4,0-4.6-0.4-6.7-1.2s-3.9-2-5.5-3.7
			s-2.8-3.8-3.6-6.4c-0.9-2.6-1.3-5.7-1.3-9.4V99h9.2v31.1c0,2.9,0.1,5.3,0.3,7.2s0.7,3.6,1.4,5c0.7,1.4,1.8,2.4,3.1,3.1
			c1.3,0.7,3.1,1,5.5,1c2.2,0,4.6-0.6,7.2-1.9s4.9-2.8,7-4.7V99h9.2V153.6z"/>
		<path class="st2" d="M1098.4,108.9h-0.5c-0.7-0.2-1.4-0.3-2.2-0.4c-0.8,0-1.7-0.1-2.8-0.1c-2.5,0-4.9,0.5-7.4,1.6
			s-4.8,2.7-6.9,4.8v38.7h-9.2V99h9.2v8.1c3.4-3,6.3-5.1,8.8-6.3s4.9-1.8,7.3-1.8c0.9,0,1.7,0,2.1,0.1c0.5,0,1,0.1,1.6,0.2V108.9z"
			/>
		<path class="st2" d="M1190.3,153.6h-9.7V118h-33.4v35.6h-9.7V80.9h9.7v28.5h33.4V80.9h9.7V153.6z"/>
		<path class="st2" d="M1249.2,126.3c0,9.2-2.2,16.3-6.6,21.3s-10.3,7.5-17.7,7.5c-7.6,0-13.5-2.6-17.9-7.7
			c-4.3-5.2-6.5-12.2-6.5-21c0-9.1,2.2-16.2,6.7-21.2s10.4-7.6,17.7-7.6c7.4,0,13.2,2.5,17.7,7.5
			C1246.9,110.1,1249.2,117.2,1249.2,126.3z M1239.7,126.3c0-7.1-1.3-12.3-3.9-15.7c-2.6-3.4-6.2-5.2-11-5.2s-8.5,1.7-11.1,5.2
			c-2.6,3.4-3.9,8.7-3.9,15.7c0,6.8,1.3,12,3.9,15.6c2.6,3.5,6.3,5.3,11.1,5.3c4.7,0,8.4-1.7,11-5.2S1239.7,133.3,1239.7,126.3z"/>
		<path class="st2" d="M1320.5,153.6V122c0-2.5-0.1-4.8-0.3-7c-0.2-2.1-0.6-3.8-1.2-5c-0.7-1.3-1.6-2.3-2.8-2.9
			c-1.2-0.6-2.8-0.9-4.9-0.9c-1.9,0-3.9,0.6-6.1,1.7c-2.2,1.2-4.4,2.8-6.7,5c0,0.6,0.1,1.2,0.1,2s0.1,1.7,0.1,2.7v35.9h-9.2V122
			c0-2.5-0.1-4.8-0.3-7c-0.2-2.1-0.6-3.8-1.2-5c-0.7-1.3-1.6-2.3-2.8-2.9c-1.2-0.6-2.8-0.9-4.9-0.9c-2,0-4.1,0.6-6.2,1.9
			c-2.2,1.2-4.3,2.8-6.3,4.7v40.7h-9.2V99h9.2v6.1c2.4-2.4,4.8-4.3,7.2-5.6c2.4-1.3,5-2,7.8-2c3.2,0,6.1,0.7,8.6,2.2
			s4.4,3.9,5.7,7.2c2.8-3.1,5.5-5.4,8.1-7s5.5-2.4,8.6-2.4c2.3,0,4.5,0.4,6.4,1.1s3.6,1.9,5,3.5c1.5,1.7,2.6,3.7,3.4,6.2
			s1.2,5.6,1.2,9.3v35.9h-9.3V153.6z"/>
		<path class="st2" d="M1366.2,154.8c-8.7,0-15.4-2.4-20.2-7.3c-4.8-4.9-7.2-11.9-7.2-20.9c0-8.9,2.3-16,7-21.2
			c4.7-5.3,10.7-7.9,18.3-7.9c3.4,0,6.4,0.5,9,1.5s4.9,2.5,6.8,4.6c2,2.1,3.5,4.6,4.5,7.6s1.6,6.7,1.6,11.1v5h-37.8
			c0,6.3,1.6,11.2,4.8,14.6c3.2,3.4,7.6,5,13.2,5c2,0,4-0.2,5.9-0.7s3.7-1,5.2-1.8c1.7-0.7,3.1-1.5,4.2-2.2s2.1-1.4,2.8-2h0.5v10
			c-1.1,0.4-2.4,1-4,1.6s-3,1.1-4.3,1.5c-1.8,0.5-3.4,0.9-4.9,1.1C1370.3,154.7,1368.5,154.8,1366.2,154.8z M1377,120.2
			c-0.1-2.5-0.4-4.6-0.9-6.4s-1.3-3.3-2.2-4.5c-1.1-1.4-2.5-2.4-4.1-3.1c-1.7-0.7-3.8-1.1-6.2-1.1c-2.4,0-4.5,0.4-6.2,1.1
			s-3.3,1.8-4.7,3.2c-1.4,1.4-2.4,3-3.1,4.8c-0.7,1.7-1.2,3.8-1.4,6.1L1377,120.2L1377,120.2z"/>
		<path class="st2" d="M1447.4,154.9c-5.3,0-9.8-0.5-13.5-1.6s-7.2-2.4-10.4-4v-12.1h0.7c3.2,3,6.8,5.3,10.8,7
			c4,1.6,7.9,2.5,11.7,2.5c5.3,0,9.4-1.1,12.1-3.3s4.1-5.2,4.1-8.8c0-2.9-0.7-5.3-2.1-7.1s-3.7-3.2-6.8-4.1
			c-2.2-0.7-4.3-1.2-6.2-1.6c-1.9-0.4-4.2-1-7-1.7c-2.5-0.7-4.8-1.5-6.7-2.5c-2-1-3.7-2.3-5.3-4c-1.5-1.6-2.7-3.5-3.5-5.6
			c-0.8-2.2-1.2-4.7-1.2-7.5c0-5.9,2.3-10.8,6.9-14.8s10.4-6,17.6-6c4.1,0,7.9,0.4,11.5,1.2c3.6,0.8,7,2,10.1,3.5V96h-0.7
			c-2.3-2.1-5.3-4-8.9-5.5c-3.6-1.6-7.4-2.4-11.4-2.4c-4.5,0-8.1,1-10.9,3.1s-4.2,4.9-4.2,8.3c0,3.1,0.8,5.6,2.4,7.4s4,3.2,7.1,4
			c2.1,0.6,4.6,1.2,7.5,1.9c3,0.7,5.4,1.3,7.4,1.9c5,1.5,8.7,3.8,11,6.9s3.5,6.9,3.5,11.4c0,2.8-0.6,5.6-1.7,8.4
			c-1.2,2.8-2.8,5.1-4.9,7c-2.3,2.1-5,3.7-7.9,4.9C1455.6,154.3,1451.9,154.9,1447.4,154.9z"/>
		<path class="st2" d="M1504,154.8c-3.7,0-7.2-0.6-10.3-1.7s-5.8-2.9-8.1-5.2s-4-5.3-5.2-8.9c-1.2-3.6-1.9-7.8-1.9-12.6
			s0.6-8.9,1.9-12.4s3-6.4,5.2-8.8c2.1-2.4,4.8-4.2,8-5.5s6.6-1.9,10.3-1.9c3,0,5.9,0.4,8.7,1.3c2.8,0.8,5.3,1.8,7.4,2.9v10.3h-0.5
			c-0.7-0.6-1.5-1.2-2.5-1.9c-1-0.7-2.3-1.4-3.7-2.2c-1.3-0.7-2.8-1.2-4.5-1.7s-3.4-0.7-5-0.7c-4.8,0-8.6,1.8-11.5,5.4
			s-4.3,8.7-4.3,15.3c0,6.4,1.4,11.5,4.2,15.1c2.8,3.6,6.6,5.4,11.6,5.4c3,0,5.8-0.6,8.5-1.9c2.7-1.2,5.1-2.8,7.2-4.8h0.5v10.3
			c-0.9,0.4-2.1,0.9-3.4,1.5c-1.4,0.6-2.6,1-3.7,1.3c-1.6,0.5-3,0.8-4.2,1C1507.6,154.7,1506,154.8,1504,154.8z"/>
		<path class="st2" d="M1557.4,108.9h-0.5c-0.7-0.2-1.4-0.3-2.2-0.4c-0.8,0-1.7-0.1-2.8-0.1c-2.5,0-4.9,0.5-7.4,1.6
			s-4.8,2.7-6.9,4.8v38.7h-9.2V99h9.2v8.1c3.4-3,6.3-5.1,8.8-6.3s4.9-1.8,7.3-1.8c0.9,0,1.7,0,2.1,0.1c0.5,0,1,0.1,1.6,0.2V108.9z"
			/>
		<path class="st2" d="M1587.7,154.8c-8.7,0-15.4-2.4-20.2-7.3c-4.8-4.9-7.2-11.9-7.2-20.9c0-8.9,2.3-16,7-21.2
			c4.7-5.3,10.7-7.9,18.3-7.9c3.4,0,6.4,0.5,9,1.5s4.9,2.5,6.8,4.6c2,2.1,3.5,4.6,4.5,7.6s1.6,6.7,1.6,11.1v5h-37.8
			c0,6.3,1.6,11.2,4.8,14.6c3.2,3.4,7.6,5,13.2,5c2,0,4-0.2,5.9-0.7s3.7-1,5.2-1.8c1.7-0.7,3.1-1.5,4.2-2.2s2.1-1.4,2.8-2h0.5v10
			c-1.1,0.4-2.4,1-4,1.6s-3,1.1-4.3,1.5c-1.8,0.5-3.4,0.9-4.9,1.1C1591.8,154.7,1589.9,154.8,1587.7,154.8z M1598.5,120.2
			c-0.1-2.5-0.4-4.6-0.9-6.4s-1.3-3.3-2.2-4.5c-1.1-1.4-2.5-2.4-4.1-3.1c-1.7-0.7-3.8-1.1-6.2-1.1c-2.4,0-4.5,0.4-6.2,1.1
			s-3.3,1.8-4.7,3.2c-1.4,1.4-2.4,3-3.1,4.8c-0.7,1.7-1.2,3.8-1.4,6.1L1598.5,120.2L1598.5,120.2z"/>
		<path class="st2" d="M1640.4,154.8c-8.7,0-15.4-2.4-20.2-7.3c-4.8-4.9-7.2-11.9-7.2-20.9c0-8.9,2.3-16,7-21.2
			c4.7-5.3,10.7-7.9,18.3-7.9c3.4,0,6.4,0.5,9,1.5s4.9,2.5,6.8,4.6c2,2.1,3.5,4.6,4.5,7.6s1.6,6.7,1.6,11.1v5h-37.8
			c0,6.3,1.6,11.2,4.8,14.6c3.2,3.4,7.6,5,13.2,5c2,0,4-0.2,5.9-0.7s3.7-1,5.2-1.8c1.7-0.7,3.1-1.5,4.2-2.2s2.1-1.4,2.8-2h0.5v10
			c-1.1,0.4-2.4,1-4,1.6s-3,1.1-4.3,1.5c-1.8,0.5-3.4,0.9-4.9,1.1C1644.4,154.7,1642.6,154.8,1640.4,154.8z M1651.1,120.2
			c-0.1-2.5-0.4-4.6-0.9-6.4s-1.3-3.3-2.2-4.5c-1.1-1.4-2.5-2.4-4.1-3.1c-1.7-0.7-3.8-1.1-6.2-1.1c-2.4,0-4.5,0.4-6.2,1.1
			s-3.3,1.8-4.7,3.2c-1.4,1.4-2.4,3-3.1,4.8c-0.7,1.7-1.2,3.8-1.4,6.1L1651.1,120.2L1651.1,120.2z"/>
		<path class="st2" d="M1712.2,153.6h-9.2v-31.1c0-2.5-0.1-4.8-0.4-7c-0.2-2.2-0.7-3.9-1.4-5.2c-0.7-1.4-1.8-2.4-3.1-3.1
			c-1.3-0.7-3.2-1-5.5-1s-4.6,0.6-7.1,1.8c-2.4,1.2-4.8,2.8-7.1,4.8v40.7h-9.2V99h9.2v6.1c2.7-2.4,5.4-4.3,8.1-5.6
			c2.7-1.3,5.5-2,8.4-2c5.4,0,9.6,1.8,12.6,5.3s4.5,8.7,4.5,15.4v35.4H1712.2z"/>
	</g>
	<text transform="matrix(1 0 0 1 92.6121 393.5553)" class="st2 st3 st4"> </text>
	<text transform="matrix(1 0 0 1 114.5121 393.5553)" class="st2 st3 st5"> </text>
	<path class="st6" d="M272.6,463.6H146.5c-19.4,0-35.1-15.7-35.1-35.1V302.4c0-19.4,15.7-35.1,35.1-35.1h126.1
		c19.4,0,35.1,15.7,35.1,35.1v126.1C307.8,447.9,292,463.6,272.6,463.6z"/>
	<g class="st1">
		<path class="st2" d="M398.4,334.3h-31.9v-6.7h11.9v-43.9h-11.9v-6c4.5,0,7.8-0.6,9.9-1.9s3.3-3.7,3.6-7.2h6.8v59h11.6V334.3z"/>
		<path class="st2" d="M424.6,334.3h-10.5v-12.5h10.5V334.3z"/>
		<path class="st2" d="M483,334.3v-57.7h-22v-7.7h52.6v7.7h-22v57.7H483z"/>
		<path class="st2" d="M537.1,329.1c-0.7,0.5-1.6,1.2-2.7,2.1c-1.1,0.9-2.2,1.6-3.3,2.1c-1.5,0.8-2.9,1.3-4.2,1.8s-3.3,0.6-5.7,0.6
			c-2,0-3.9-0.4-5.8-1.1c-1.8-0.8-3.4-1.8-4.8-3.2c-1.3-1.3-2.4-3-3.2-5c-0.8-2-1.2-4.1-1.2-6.3c0-3.4,0.7-6.3,2.2-8.7
			c1.4-2.4,3.7-4.3,6.8-5.7c2.8-1.3,6-2.1,9.8-2.6s7.8-0.8,12.1-1.1v-1.6c0-1.9-0.3-3.5-0.9-4.7c-0.6-1.2-1.4-2.1-2.5-2.7
			c-1.1-0.7-2.3-1.1-3.9-1.3c-1.5-0.2-3.1-0.3-4.7-0.3c-1.9,0-4.1,0.3-6.7,0.9c-2.6,0.6-5.2,1.4-7.7,2.5h-0.5v-8.4
			c1.5-0.4,3.7-0.9,6.5-1.5c2.8-0.5,5.7-0.8,8.4-0.8c3.4,0,6.2,0.3,8.5,0.8s4.4,1.5,6.2,2.9c1.8,1.3,3.1,3.1,4,5.2s1.3,4.7,1.3,7.8
			v33.6h-8.2v-5.3H537.1z M537.1,322.2v-13.6c-2,0.2-4.4,0.4-7.4,0.7c-3,0.3-5.4,0.7-7.3,1.3c-2.2,0.7-4,1.7-5.4,3.1
			s-2.2,3.3-2.2,5.8c0,2.8,0.8,4.9,2.4,6.4s3.9,2.2,6.9,2.2c2.6,0,5-0.6,7.1-1.7S535.2,323.9,537.1,322.2z"/>
		<path class="st2" d="M598.1,308.5c0,8.2-2,14.7-5.9,19.5s-8.9,7.3-14.8,7.3c-2.4,0-4.6-0.3-6.5-0.8c-1.9-0.6-3.8-1.4-5.8-2.6v20.6
			h-8.3v-67.2h8.3v5.1c2.1-1.8,4.3-3.4,6.8-4.6s5.2-1.9,8.2-1.9c5.6,0,10,2.2,13.2,6.7C596.5,295,598.1,301,598.1,308.5z
			 M589.6,309.4c0-5.6-0.9-9.9-2.7-13s-4.7-4.6-8.7-4.6c-2.3,0-4.6,0.5-6.8,1.6c-2.2,1-4.3,2.4-6.2,4v27.8c2.2,1.1,4,1.8,5.6,2.2
			s3.3,0.6,5.3,0.6c4.3,0,7.6-1.6,10-4.7S589.6,315.4,589.6,309.4z"/>
		<path class="st2" d="M675.2,309.8c0,8.3-2,14.6-6,19.1s-9.3,6.7-15.9,6.7c-6.8,0-12.2-2.3-16.1-7c-3.9-4.6-5.9-10.9-5.9-18.9
			c0-8.2,2-14.6,6-19.1s9.3-6.8,15.9-6.8c6.6,0,11.9,2.3,15.9,6.8C673.2,295.2,675.2,301.6,675.2,309.8z M666.6,309.8
			c0-6.4-1.2-11.1-3.5-14.2s-5.6-4.6-9.9-4.6c-4.3,0-7.6,1.5-10,4.6s-3.5,7.8-3.5,14.2c0,6.2,1.2,10.8,3.5,14s5.6,4.8,10,4.8
			c4.2,0,7.5-1.6,9.9-4.7C665.5,320.8,666.6,316.1,666.6,309.8z"/>
		<path class="st2" d="M722.2,334.3H714v-27.9c0-2.3-0.1-4.4-0.3-6.3s-0.6-3.5-1.3-4.7s-1.6-2.1-2.8-2.7s-2.8-0.9-4.9-0.9
			c-2.1,0-4.2,0.5-6.4,1.6s-4.3,2.5-6.4,4.3v36.7h-8.3v-49.1h8.3v5.4c2.5-2.2,4.9-3.9,7.3-5.1c2.4-1.2,4.9-1.8,7.6-1.8
			c4.8,0,8.6,1.6,11.3,4.8c2.7,3.2,4.1,7.8,4.1,13.8L722.2,334.3L722.2,334.3z"/>
		<path class="st2" d="M780.9,335.5c-4.7,0-8.8-0.5-12.1-1.5s-6.5-2.2-9.4-3.6v-10.9h0.6c2.9,2.7,6.1,4.8,9.8,6.3
			c3.6,1.5,7.1,2.2,10.5,2.2c4.8,0,8.4-1,10.9-3s3.7-4.7,3.7-7.9c0-2.6-0.6-4.7-1.9-6.4c-1.3-1.6-3.3-2.9-6.2-3.6
			c-2-0.6-3.9-1.1-5.5-1.5s-3.8-0.9-6.3-1.5c-2.3-0.6-4.3-1.3-6.1-2.2c-1.8-0.9-3.4-2.1-4.7-3.6c-1.3-1.4-2.4-3.1-3.1-5.1
			s-1.1-4.2-1.1-6.7c0-5.3,2.1-9.7,6.2-13.3c4.1-3.6,9.4-5.4,15.8-5.4c3.7,0,7.1,0.4,10.4,1.1c3.3,0.7,6.3,1.8,9.1,3.1v10.4h-0.7
			c-2.1-1.9-4.7-3.6-8-5s-6.7-2.1-10.2-2.1c-4,0-7.3,0.9-9.8,2.8s-3.7,4.4-3.7,7.4c0,2.8,0.7,5,2.2,6.6s3.6,2.8,6.4,3.6
			c1.8,0.5,4.1,1.1,6.8,1.7s4.9,1.2,6.6,1.7c4.5,1.4,7.8,3.5,9.9,6.2c2.1,2.8,3.1,6.2,3.1,10.3c0,2.5-0.5,5.1-1.6,7.6
			c-1,2.5-2.5,4.6-4.4,6.3c-2.1,1.9-4.5,3.4-7.1,4.4C788.2,335,784.8,335.5,780.9,335.5z"/>
		<path class="st2" d="M850.7,334.3h-8.3v-27.9c0-2.3-0.1-4.4-0.3-6.3s-0.6-3.5-1.3-4.7s-1.6-2.1-2.8-2.7s-2.8-0.9-4.9-0.9
			c-2.1,0-4.2,0.5-6.4,1.6s-4.3,2.5-6.4,4.3v36.7H812V266h8.3v24.7c2.5-2.2,4.9-3.9,7.3-5.1c2.4-1.2,4.9-1.8,7.6-1.8
			c4.8,0,8.6,1.6,11.3,4.8c2.7,3.2,4.1,7.8,4.1,13.8v31.9H850.7z"/>
		<path class="st2" d="M889.7,329.1c-0.7,0.5-1.6,1.2-2.7,2.1c-1.1,0.9-2.2,1.6-3.3,2.1c-1.5,0.8-2.9,1.3-4.2,1.8s-3.3,0.6-5.7,0.6
			c-2,0-3.9-0.4-5.8-1.1c-1.8-0.8-3.4-1.8-4.8-3.2c-1.3-1.3-2.4-3-3.2-5s-1.2-4.1-1.2-6.3c0-3.4,0.7-6.3,2.2-8.7
			c1.4-2.4,3.7-4.3,6.8-5.7c2.8-1.3,6-2.1,9.8-2.6s7.8-0.8,12.1-1.1v-1.6c0-1.9-0.3-3.5-0.9-4.7c-0.6-1.2-1.4-2.1-2.5-2.7
			c-1.1-0.7-2.3-1.1-3.9-1.3c-1.5-0.2-3.1-0.3-4.7-0.3c-1.9,0-4.1,0.3-6.7,0.9c-2.6,0.6-5.2,1.4-7.7,2.5h-0.5v-8.4
			c1.5-0.4,3.7-0.9,6.5-1.5c2.8-0.5,5.7-0.8,8.4-0.8c3.4,0,6.2,0.3,8.5,0.8s4.4,1.5,6.2,2.9c1.8,1.3,3.1,3.1,4,5.2s1.3,4.7,1.3,7.8
			v33.6h-8.2v-5.3H889.7z M889.7,322.2v-13.6c-2,0.2-4.4,0.4-7.4,0.7c-3,0.3-5.4,0.7-7.3,1.3c-2.2,0.7-4,1.7-5.4,3.1
			s-2.2,3.3-2.2,5.8c0,2.8,0.8,4.9,2.4,6.4s3.9,2.2,6.9,2.2c2.6,0,5-0.6,7.1-1.7S887.9,323.9,889.7,322.2z"/>
		<path class="st2" d="M935.5,294.1h-0.4c-0.6-0.2-1.3-0.3-2-0.3s-1.5-0.1-2.5-0.1c-2.2,0-4.4,0.5-6.6,1.5s-4.3,2.4-6.2,4.3v34.8
			h-8.3v-49.1h8.3v7.3c3-2.7,5.6-4.5,7.9-5.6c2.2-1.1,4.4-1.6,6.5-1.6c0.8,0,1.5,0,1.9,0.1c0.4,0,0.9,0.1,1.4,0.2L935.5,294.1
			L935.5,294.1z"/>
		<path class="st2" d="M962.8,335.5c-7.8,0-13.9-2.2-18.2-6.6s-6.5-10.7-6.5-18.8c0-8,2.1-14.4,6.3-19.1s9.7-7.1,16.4-7.1
			c3,0,5.7,0.4,8.1,1.3s4.4,2.3,6.2,4.1s3.1,4.2,4,6.9c0.9,2.7,1.4,6,1.4,10v4.5h-34c0,5.7,1.4,10.1,4.3,13.1s6.8,4.5,11.9,4.5
			c1.8,0,3.6-0.2,5.3-0.6s3.3-0.9,4.7-1.6c1.5-0.7,2.8-1.3,3.8-2s1.9-1.2,2.5-1.8h0.5v9c-1,0.4-2.2,0.9-3.6,1.4
			c-1.4,0.6-2.7,1-3.9,1.3c-1.6,0.4-3.1,0.8-4.4,1C966.5,335.4,964.8,335.5,962.8,335.5z M972.5,304.3c-0.1-2.2-0.3-4.1-0.8-5.8
			s-1.1-3-2-4.1c-1-1.2-2.2-2.2-3.7-2.8s-3.4-1-5.6-1c-2.2,0-4.1,0.3-5.6,1s-2.9,1.6-4.2,2.9c-1.2,1.3-2.2,2.7-2.8,4.3
			c-0.6,1.6-1.1,3.4-1.2,5.5H972.5z"/>
		<path class="st2" d="M1058.2,309c0,8-1.9,14.5-5.8,19.4s-8.8,7.3-14.6,7.3c-2.7,0-4.9-0.3-6.8-1s-3.8-1.5-5.6-2.7l-0.5,2.3h-7.7
			V266h8.3v24.4c2.1-1.9,4.3-3.4,6.8-4.7s5.2-1.8,8.3-1.8c5.5,0,9.9,2.2,13.1,6.7C1056.6,295,1058.2,301.1,1058.2,309z
			 M1049.7,309.6c0-5.9-0.9-10.3-2.7-13.3c-1.8-3-4.7-4.5-8.6-4.5c-2.3,0-4.5,0.5-6.8,1.6s-4.4,2.4-6.3,4v28.1
			c2.1,1,3.9,1.8,5.5,2.2s3.4,0.6,5.3,0.6c4.2,0,7.5-1.5,9.9-4.5S1049.7,316.1,1049.7,309.6z"/>
		<path class="st2" d="M1105,334.3h-8.3v-5.4c-2.5,2.2-5,3.9-7.3,5.1s-4.8,1.7-7.6,1.7c-2.1,0-4.2-0.4-6-1.1
			c-1.9-0.7-3.5-1.8-4.9-3.3s-2.5-3.4-3.3-5.8s-1.2-5.1-1.2-8.4v-31.9h8.3v27.9c0,2.6,0.1,4.8,0.3,6.5c0.2,1.7,0.6,3.2,1.3,4.5
			c0.7,1.3,1.6,2.2,2.7,2.8s2.8,0.9,5,0.9c2,0,4.2-0.6,6.5-1.7s4.4-2.5,6.3-4.2v-36.7h8.3v49.1H1105z"/>
		<path class="st2" d="M1131.8,335.3c-4.5,0-8-1.3-10.5-3.8c-2.5-2.6-3.8-6.6-3.8-12.2v-27.2h-5.6v-6.9h5.6v-14.1h8.3v14.1h15.2v6.9
			h-15.2v23.3c0,2.5,0,4.4,0.1,5.8s0.4,2.6,1,3.8c0.5,1,1.3,1.8,2.4,2.3s2.6,0.8,4.5,0.8c1.3,0,2.7-0.2,3.9-0.6
			c1.3-0.4,2.2-0.7,2.7-1h0.5v7.4c-1.6,0.4-3.1,0.8-4.7,1C1134.6,335.2,1133.2,335.3,1131.8,335.3z"/>
		<path class="st2" d="M1161.2,335.3c-4.5,0-8-1.3-10.5-3.8c-2.5-2.6-3.8-6.6-3.8-12.2v-27.2h-5.6v-6.9h5.6v-14.1h8.3v14.1h15.2v6.9
			h-15.2v23.3c0,2.5,0,4.4,0.1,5.8s0.4,2.6,1,3.8c0.5,1,1.3,1.8,2.4,2.3s2.6,0.8,4.5,0.8c1.3,0,2.7-0.2,3.9-0.6
			c1.3-0.4,2.2-0.7,2.7-1h0.5v7.4c-1.6,0.4-3.1,0.8-4.7,1C1164,335.2,1162.6,335.3,1161.2,335.3z"/>
		<path class="st2" d="M1216.8,309.8c0,8.3-2,14.6-6,19.1s-9.3,6.7-15.9,6.7c-6.8,0-12.2-2.3-16.1-7c-3.9-4.6-5.9-10.9-5.9-18.9
			c0-8.2,2-14.6,6-19.1s9.3-6.8,15.9-6.8s11.9,2.3,15.9,6.8C1214.8,295.2,1216.8,301.6,1216.8,309.8z M1208.3,309.8
			c0-6.4-1.2-11.1-3.5-14.2s-5.6-4.6-9.9-4.6s-7.6,1.5-10,4.6c-2.3,3.1-3.5,7.8-3.5,14.2c0,6.2,1.2,10.8,3.5,14s5.6,4.8,10,4.8
			c4.2,0,7.5-1.6,9.9-4.7C1207.2,320.8,1208.3,316.1,1208.3,309.8z"/>
		<path class="st2" d="M1263.9,334.3h-8.3v-27.9c0-2.3-0.1-4.4-0.3-6.3c-0.2-1.9-0.6-3.5-1.3-4.7c-0.7-1.2-1.6-2.1-2.8-2.7
			s-2.8-0.9-4.9-0.9s-4.2,0.5-6.3,1.6c-2.2,1.1-4.3,2.5-6.4,4.3v36.7h-8.3v-49.1h8.3v5.4c2.5-2.2,4.9-3.9,7.3-5.1s4.9-1.8,7.6-1.8
			c4.8,0,8.6,1.6,11.3,4.8c2.7,3.2,4.1,7.8,4.1,13.8L1263.9,334.3L1263.9,334.3z"/>
		<path class="st2" d="M1331.1,329.1c-0.7,0.5-1.6,1.2-2.7,2.1s-2.2,1.6-3.3,2.1c-1.5,0.8-2.9,1.3-4.2,1.8c-1.4,0.4-3.3,0.6-5.7,0.6
			c-2,0-3.9-0.4-5.8-1.1s-3.4-1.8-4.8-3.2c-1.3-1.3-2.4-3-3.2-5c-0.8-2-1.2-4.1-1.2-6.3c0-3.4,0.7-6.3,2.2-8.7
			c1.4-2.4,3.7-4.3,6.8-5.7c2.8-1.3,6-2.1,9.8-2.6s7.8-0.8,12.1-1.1v-1.6c0-1.9-0.3-3.5-0.9-4.7s-1.4-2.1-2.5-2.7
			c-1.1-0.7-2.3-1.1-3.9-1.3c-1.5-0.2-3.1-0.3-4.7-0.3c-1.9,0-4.1,0.3-6.7,0.9s-5.2,1.4-7.7,2.5h-0.5v-8.4c1.5-0.4,3.7-0.9,6.5-1.5
			s5.7-0.8,8.4-0.8c3.4,0,6.2,0.3,8.5,0.8s4.4,1.5,6.2,2.9c1.8,1.3,3.1,3.1,4,5.2s1.3,4.7,1.3,7.8v33.6h-8.2v-5.3H1331.1z
			 M1331.1,322.2v-13.6c-2,0.2-4.4,0.4-7.4,0.7c-3,0.3-5.4,0.7-7.3,1.3c-2.2,0.7-4,1.7-5.4,3.1s-2.2,3.3-2.2,5.8
			c0,2.8,0.8,4.9,2.4,6.4s3.9,2.2,6.9,2.2c2.6,0,5-0.6,7.1-1.7S1329.2,323.9,1331.1,322.2z"/>
		<path class="st2" d="M1365.7,335.3c-4.5,0-8-1.3-10.5-3.8c-2.5-2.6-3.8-6.6-3.8-12.2v-27.2h-5.6v-6.9h5.6v-14.1h8.3v14.1h15.2v6.9
			h-15.2v23.3c0,2.5,0,4.4,0.1,5.8s0.4,2.6,1,3.8c0.5,1,1.3,1.8,2.4,2.3s2.6,0.8,4.5,0.8c1.3,0,2.7-0.2,3.9-0.6
			c1.3-0.4,2.2-0.7,2.7-1h0.5v7.4c-1.6,0.4-3.1,0.8-4.7,1C1368.5,335.2,1367.1,335.3,1365.7,335.3z"/>
		<path class="st2" d="M1424,335.3c-4.5,0-8-1.3-10.5-3.8c-2.5-2.6-3.8-6.6-3.8-12.2v-27.2h-5.6v-6.9h5.6v-14.1h8.3v14.1h15.2v6.9
			H1418v23.3c0,2.5,0,4.4,0.1,5.8s0.4,2.6,1,3.8c0.5,1,1.3,1.8,2.4,2.3s2.6,0.8,4.5,0.8c1.3,0,2.7-0.2,3.9-0.6
			c1.3-0.4,2.2-0.7,2.7-1h0.5v7.4c-1.6,0.4-3.1,0.8-4.7,1C1426.8,335.2,1425.3,335.3,1424,335.3z"/>
		<path class="st2" d="M1477.8,334.3h-8.3v-27.9c0-2.3-0.1-4.4-0.3-6.3c-0.2-1.9-0.6-3.5-1.3-4.7c-0.7-1.2-1.6-2.1-2.8-2.7
			s-2.8-0.9-4.9-0.9s-4.2,0.5-6.3,1.6c-2.2,1.1-4.3,2.5-6.4,4.3v36.7h-8.3V266h8.3v24.7c2.5-2.2,4.9-3.9,7.3-5.1s4.9-1.8,7.6-1.8
			c4.8,0,8.6,1.6,11.3,4.8c2.7,3.2,4.1,7.8,4.1,13.8L1477.8,334.3L1477.8,334.3z"/>
		<path class="st2" d="M1510.7,335.5c-7.8,0-13.9-2.2-18.2-6.6s-6.5-10.7-6.5-18.8c0-8,2.1-14.4,6.3-19.1s9.7-7.1,16.4-7.1
			c3,0,5.7,0.4,8.1,1.3s4.4,2.3,6.2,4.1s3.1,4.2,4,6.9c0.9,2.7,1.4,6,1.4,10v4.5h-34c0,5.7,1.4,10.1,4.3,13.1s6.8,4.5,11.9,4.5
			c1.8,0,3.6-0.2,5.3-0.6s3.3-0.9,4.7-1.6c1.5-0.7,2.8-1.3,3.8-2s1.9-1.2,2.5-1.8h0.5v9c-1,0.4-2.2,0.9-3.6,1.4
			c-1.4,0.6-2.7,1-3.9,1.3c-1.6,0.4-3.1,0.8-4.4,1C1514.3,335.4,1512.7,335.5,1510.7,335.5z M1520.4,304.3c-0.1-2.2-0.3-4.1-0.8-5.8
			s-1.1-3-2-4.1c-1-1.2-2.2-2.2-3.7-2.8s-3.4-1-5.6-1s-4.1,0.3-5.6,1s-2.9,1.6-4.2,2.9c-1.2,1.3-2.2,2.7-2.8,4.3
			c-0.6,1.6-1.1,3.4-1.2,5.5H1520.4z"/>
		<path class="st2" d="M1606.1,309c0,8-1.9,14.5-5.8,19.4s-8.8,7.3-14.6,7.3c-2.7,0-4.9-0.3-6.8-1s-3.8-1.5-5.6-2.7l-0.5,2.3h-7.7
			V266h8.3v24.4c2.1-1.9,4.3-3.4,6.8-4.7s5.2-1.8,8.3-1.8c5.5,0,9.9,2.2,13.1,6.7C1604.5,295,1606.1,301.1,1606.1,309z
			 M1597.5,309.6c0-5.9-0.9-10.3-2.7-13.3c-1.8-3-4.7-4.5-8.6-4.5c-2.3,0-4.5,0.5-6.8,1.6s-4.4,2.4-6.3,4v28.1
			c2.1,1,3.9,1.8,5.5,2.2s3.4,0.6,5.3,0.6c4.2,0,7.5-1.5,9.9-4.5S1597.5,316.1,1597.5,309.6z"/>
		<path class="st2" d="M1655,309.8c0,8.3-2,14.6-6,19.1s-9.3,6.7-15.9,6.7c-6.8,0-12.2-2.3-16.1-7c-3.9-4.6-5.9-10.9-5.9-18.9
			c0-8.2,2-14.6,6-19.1s9.3-6.8,15.9-6.8s11.9,2.3,15.9,6.8C1653,295.2,1655,301.6,1655,309.8z M1646.5,309.8
			c0-6.4-1.2-11.1-3.5-14.2s-5.6-4.6-9.9-4.6s-7.6,1.5-10,4.6c-2.3,3.1-3.5,7.8-3.5,14.2c0,6.2,1.2,10.8,3.5,14s5.6,4.8,10,4.8
			c4.2,0,7.5-1.6,9.9-4.7C1645.3,320.8,1646.5,316.1,1646.5,309.8z"/>
		<path class="st2" d="M1678.4,335.3c-4.5,0-8-1.3-10.5-3.8c-2.5-2.6-3.8-6.6-3.8-12.2v-27.2h-5.6v-6.9h5.6v-14.1h8.3v14.1h15.2v6.9
			h-15.2v23.3c0,2.5,0,4.4,0.1,5.8s0.4,2.6,1,3.8c0.5,1,1.3,1.8,2.4,2.3s2.6,0.8,4.5,0.8c1.3,0,2.7-0.2,3.9-0.6
			c1.3-0.4,2.2-0.7,2.7-1h0.5v7.4c-1.6,0.4-3.1,0.8-4.7,1C1681.2,335.2,1679.7,335.3,1678.4,335.3z"/>
		<path class="st2" d="M1707.8,335.3c-4.5,0-8-1.3-10.5-3.8c-2.5-2.6-3.8-6.6-3.8-12.2v-27.2h-5.6v-6.9h5.6v-14.1h8.3v14.1h15.2v6.9
			h-15.2v23.3c0,2.5,0,4.4,0.1,5.8s0.4,2.6,1,3.8c0.5,1,1.3,1.8,2.4,2.3s2.6,0.8,4.5,0.8c1.3,0,2.7-0.2,3.9-0.6
			c1.3-0.4,2.2-0.7,2.7-1h0.5v7.4c-1.6,0.4-3.1,0.8-4.7,1C1710.6,335.2,1709.1,335.3,1707.8,335.3z"/>
		<path class="st2" d="M1763.4,309.8c0,8.3-2,14.6-6,19.1s-9.3,6.7-15.9,6.7c-6.8,0-12.2-2.3-16.1-7c-3.9-4.6-5.9-10.9-5.9-18.9
			c0-8.2,2-14.6,6-19.1s9.3-6.8,15.9-6.8s11.9,2.3,15.9,6.8C1761.4,295.2,1763.4,301.6,1763.4,309.8z M1754.9,309.8
			c0-6.4-1.2-11.1-3.5-14.2s-5.6-4.6-9.9-4.6s-7.6,1.5-10,4.6c-2.3,3.1-3.5,7.8-3.5,14.2c0,6.2,1.2,10.8,3.5,14s5.6,4.8,10,4.8
			c4.2,0,7.5-1.6,9.9-4.7C1753.7,320.8,1754.9,316.1,1754.9,309.8z"/>
		<path class="st2" d="M1827.6,334.3v-28.4c0-2.3-0.1-4.3-0.3-6.3s-0.5-3.4-1.1-4.5c-0.6-1.2-1.4-2-2.5-2.6s-2.5-0.8-4.4-0.8
			c-1.7,0-3.5,0.5-5.5,1.6c-1.9,1-4,2.5-6,4.5c0,0.5,0.1,1.1,0.1,1.8c0,0.7,0.1,1.5,0.1,2.4v32.3h-8.3v-28.4c0-2.3-0.1-4.3-0.3-6.3
			s-0.5-3.4-1.1-4.5c-0.6-1.2-1.4-2-2.5-2.6s-2.5-0.8-4.4-0.8c-1.8,0-3.7,0.6-5.6,1.7s-3.9,2.5-5.7,4.3v36.7h-8.3v-49.1h8.3v5.4
			c2.2-2.2,4.3-3.8,6.4-5s4.5-1.8,7-1.8c2.9,0,5.5,0.7,7.7,2s3.9,3.5,5.1,6.5c2.5-2.8,4.9-4.9,7.3-6.3s5-2.2,7.7-2.2
			c2.1,0,4,0.3,5.8,1c1.7,0.7,3.2,1.7,4.5,3.2s2.3,3.4,3.1,5.6c0.7,2.2,1.1,5,1.1,8.4v32.3h-8.2V334.3z"/>
		<path class="st2" d="M1916,309.8c0,8.3-2,14.6-6,19.1s-9.3,6.7-15.9,6.7c-6.8,0-12.2-2.3-16.1-7c-3.9-4.6-5.9-10.9-5.9-18.9
			c0-8.2,2-14.6,6-19.1s9.3-6.8,15.9-6.8s11.9,2.3,15.9,6.8C1914,295.2,1916,301.6,1916,309.8z M1907.4,309.8
			c0-6.4-1.2-11.1-3.5-14.2s-5.6-4.6-9.9-4.6s-7.6,1.5-10,4.6c-2.3,3.1-3.5,7.8-3.5,14.2c0,6.2,1.2,10.8,3.5,14s5.6,4.8,10,4.8
			c4.2,0,7.5-1.6,9.9-4.7C1906.3,320.8,1907.4,316.1,1907.4,309.8z"/>
		<path class="st2" d="M1950.3,273.9h-0.4c-0.7-0.3-1.8-0.5-3.2-0.8c-1.4-0.2-2.6-0.4-3.7-0.4c-3.5,0-6,0.8-7.4,2.4
			s-2.2,4.4-2.2,8.5v1.7h13.7v6.9h-13.4v42.2h-8.3v-42.2h-5.6v-6.9h5.6v-1.6c0-5.9,1.4-10.4,4.3-13.5s6.9-4.6,12.2-4.6
			c1.5,0,3,0.1,4.5,0.2s2.8,0.3,4,0.5L1950.3,273.9L1950.3,273.9z"/>
	</g>
	<g class="st1">
		<path class="st2" d="M377.4,443.3c-4.5,0-8-1.3-10.5-3.8c-2.5-2.6-3.8-6.6-3.8-12.2v-27.2h-5.6v-6.9h5.6v-14.1h8.3v14.1h15.2v6.9
			h-15.2v23.3c0,2.5,0,4.4,0.1,5.8s0.4,2.6,1,3.8c0.5,1,1.3,1.8,2.4,2.3s2.6,0.8,4.5,0.8c1.3,0,2.7-0.2,3.9-0.6
			c1.3-0.4,2.2-0.7,2.7-1h0.5v7.4c-1.6,0.4-3.1,0.8-4.7,1C380.3,443.2,378.8,443.3,377.4,443.3z"/>
		<path class="st2" d="M431.3,442.3H423v-27.9c0-2.3-0.1-4.4-0.3-6.3c-0.2-1.9-0.6-3.5-1.3-4.7c-0.7-1.2-1.6-2.1-2.8-2.7
			c-1.2-0.6-2.8-0.9-4.9-0.9s-4.2,0.5-6.4,1.6c-2.2,1.1-4.3,2.5-6.4,4.3v36.7h-8.3V374h8.3v24.7c2.5-2.2,4.9-3.9,7.3-5.1
			s4.9-1.8,7.6-1.8c4.8,0,8.6,1.6,11.3,4.8c2.7,3.2,4.1,7.8,4.1,13.8L431.3,442.3L431.3,442.3z"/>
		<path class="st2" d="M464.2,443.5c-7.8,0-13.9-2.2-18.2-6.6c-4.3-4.4-6.5-10.7-6.5-18.8c0-8,2.1-14.4,6.3-19.1
			c4.2-4.7,9.7-7.1,16.4-7.1c3,0,5.7,0.4,8.1,1.3c2.3,0.9,4.4,2.3,6.2,4.1s3.1,4.2,4,6.9c0.9,2.7,1.4,6,1.4,10v4.5h-34
			c0,5.7,1.4,10.1,4.3,13.1s6.8,4.5,11.9,4.5c1.8,0,3.6-0.2,5.3-0.6c1.7-0.4,3.3-0.9,4.7-1.6c1.5-0.7,2.8-1.3,3.8-2
			c1-0.6,1.9-1.2,2.5-1.8h0.5v9c-1,0.4-2.2,0.9-3.6,1.4c-1.4,0.6-2.7,1-3.9,1.3c-1.6,0.4-3.1,0.8-4.4,1
			C467.8,443.4,466.2,443.5,464.2,443.5z M473.9,412.3c-0.1-2.2-0.3-4.1-0.8-5.8c-0.5-1.6-1.1-3-2-4.1c-1-1.2-2.2-2.2-3.7-2.8
			c-1.5-0.6-3.4-1-5.6-1s-4.1,0.3-5.6,1s-2.9,1.6-4.2,2.9c-1.2,1.3-2.2,2.7-2.8,4.3c-0.6,1.6-1.1,3.4-1.2,5.5H473.9z"/>
		<path class="st2" d="M559.6,417c0,8-1.9,14.5-5.8,19.4c-3.9,4.9-8.8,7.3-14.6,7.3c-2.7,0-4.9-0.3-6.8-1c-1.9-0.7-3.8-1.5-5.6-2.7
			l-0.5,2.3h-7.7V374h8.3v24.4c2.1-1.9,4.3-3.4,6.8-4.7c2.4-1.2,5.2-1.8,8.3-1.8c5.5,0,9.9,2.2,13.1,6.7
			C558,403,559.6,409.1,559.6,417z M551,417.6c0-5.9-0.9-10.3-2.7-13.3s-4.7-4.5-8.6-4.5c-2.3,0-4.5,0.5-6.8,1.6s-4.4,2.4-6.3,4
			v28.1c2.1,1,3.9,1.8,5.5,2.2c1.6,0.4,3.4,0.6,5.3,0.6c4.2,0,7.5-1.5,9.9-4.5C549.8,428.8,551,424.1,551,417.6z"/>
		<path class="st2" d="M594.1,402.1h-0.4c-0.6-0.2-1.3-0.3-2-0.3s-1.5-0.1-2.5-0.1c-2.2,0-4.4,0.5-6.6,1.5s-4.3,2.4-6.2,4.3v34.8
			h-8.3v-49.1h8.3v7.3c3-2.7,5.6-4.5,7.9-5.6c2.2-1.1,4.4-1.6,6.5-1.6c0.8,0,1.5,0,1.9,0.1c0.4,0,0.9,0.1,1.4,0.2L594.1,402.1
			L594.1,402.1z"/>
		<path class="st2" d="M640.5,417.8c0,8.3-2,14.6-6,19.1s-9.3,6.7-15.9,6.7c-6.8,0-12.2-2.3-16.1-7c-3.9-4.6-5.9-10.9-5.9-18.9
			c0-8.2,2-14.6,6-19.1s9.3-6.8,15.9-6.8c6.6,0,11.9,2.3,15.9,6.8C638.5,403.2,640.5,409.6,640.5,417.8z M632,417.8
			c0-6.4-1.2-11.1-3.5-14.2s-5.6-4.6-9.9-4.6c-4.3,0-7.6,1.5-10,4.6s-3.5,7.8-3.5,14.2c0,6.2,1.2,10.8,3.5,14s5.6,4.8,10,4.8
			c4.2,0,7.5-1.6,9.9-4.7C630.8,428.8,632,424.1,632,417.8z"/>
		<path class="st2" d="M708.5,393.2L696,442.3h-7.6l-12-37.8l-11.9,37.8h-7.6l-12.6-49.1h8.6l8.7,38l11.6-38h6.8l12,38l8.2-38
			L708.5,393.2L708.5,393.2z"/>
		<path class="st2" d="M729,443.5c-3.3,0-6.4-0.4-9.2-1.3s-5.2-1.8-7.1-2.8v-9.3h0.4c0.7,0.6,1.5,1.2,2.5,1.8c1,0.7,2.2,1.4,3.8,2.1
			c1.4,0.6,3,1.2,4.6,1.7c1.7,0.5,3.4,0.7,5.3,0.7c1.3,0,2.7-0.2,4.2-0.5s2.6-0.7,3.3-1.2c1-0.7,1.8-1.4,2.2-2.2
			c0.5-0.8,0.7-1.9,0.7-3.4c0-2-0.5-3.4-1.6-4.4s-3-1.8-5.7-2.5c-1.1-0.3-2.4-0.6-4.1-0.9c-1.7-0.4-3.3-0.7-4.7-1.1
			c-3.8-1.1-6.5-2.8-8.2-5c-1.7-2.3-2.5-5-2.5-8.2c0-4.4,1.7-8,5-10.8s7.8-4.2,13.3-4.2c2.7,0,5.5,0.3,8.2,1
			c2.8,0.7,5.1,1.5,6.9,2.5v8.8H746c-2.1-1.7-4.5-3-7.1-4s-5.2-1.5-7.8-1.5c-2.7,0-5,0.6-6.9,1.7s-2.8,2.9-2.8,5.2
			c0,2.1,0.6,3.6,1.7,4.6c1.1,1,2.9,1.8,5.4,2.5c1.2,0.3,2.6,0.6,4.1,0.9s3.1,0.7,4.8,1.1c3.6,0.9,6.4,2.4,8.2,4.5s2.7,5,2.7,8.6
			c0,2.1-0.4,4.1-1.3,6c-0.8,1.9-2.1,3.5-3.7,4.9c-1.8,1.5-3.7,2.6-6,3.3C735.2,443.1,732.4,443.5,729,443.5z"/>
		<path class="st2" d="M777.3,443.5c-7.8,0-13.9-2.2-18.2-6.6s-6.5-10.7-6.5-18.8c0-8,2.1-14.4,6.3-19.1s9.7-7.1,16.4-7.1
			c3,0,5.7,0.4,8.1,1.3c2.3,0.9,4.4,2.3,6.2,4.1s3.1,4.2,4,6.9c0.9,2.7,1.4,6,1.4,10v4.5h-34c0,5.7,1.4,10.1,4.3,13.1
			c2.9,3,6.8,4.5,11.9,4.5c1.8,0,3.6-0.2,5.3-0.6s3.3-0.9,4.7-1.6c1.5-0.7,2.8-1.3,3.8-2c1-0.6,1.9-1.2,2.5-1.8h0.5v9
			c-1,0.4-2.2,0.9-3.6,1.4c-1.4,0.6-2.7,1-3.9,1.3c-1.6,0.4-3.1,0.8-4.4,1C780.9,443.4,779.2,443.5,777.3,443.5z M786.9,412.3
			c-0.1-2.2-0.3-4.1-0.8-5.8c-0.5-1.6-1.1-3-2-4.1c-1-1.2-2.2-2.2-3.7-2.8c-1.5-0.6-3.4-1-5.6-1c-2.2,0-4.1,0.3-5.6,1
			s-2.9,1.6-4.2,2.9c-1.2,1.3-2.2,2.7-2.8,4.3c-0.6,1.6-1.1,3.4-1.2,5.5H786.9z"/>
		<path class="st2" d="M829.3,402.1h-0.4c-0.6-0.2-1.3-0.3-2-0.3s-1.5-0.1-2.5-0.1c-2.2,0-4.4,0.5-6.6,1.5s-4.3,2.4-6.2,4.3v34.8
			h-8.3v-49.1h8.3v7.3c3-2.7,5.6-4.5,7.9-5.6c2.2-1.1,4.4-1.6,6.5-1.6c0.8,0,1.5,0,1.9,0.1c0.4,0,0.9,0.1,1.4,0.2L829.3,402.1
			L829.3,402.1z"/>
	</g>
	<g class="st1">
		<path class="st2" d="M401.8,658.3h-40.4v-9.2c2.9-2.8,5.6-5.4,8.2-7.9s5.1-5.1,7.6-7.9c5-5.5,8.4-9.9,10.2-13.2
			c1.8-3.3,2.7-6.7,2.7-10.2c0-1.8-0.3-3.4-0.9-4.8s-1.4-2.5-2.4-3.4s-2.2-1.5-3.6-2c-1.3-0.4-2.8-0.7-4.4-0.7s-3.1,0.2-4.7,0.6
			c-1.6,0.4-3.1,0.9-4.6,1.5c-1.2,0.5-2.4,1.1-3.6,1.8s-2.1,1.3-2.8,1.8h-0.5v-9.3c1.8-0.9,4.3-1.8,7.6-2.7c3.2-0.9,6.3-1.3,9.2-1.3
			c6.1,0,10.9,1.6,14.3,4.9c3.5,3.2,5.2,7.6,5.2,13.2c0,2.5-0.3,4.9-0.9,7.1c-0.6,2.2-1.4,4.2-2.5,6c-1.1,1.9-2.4,3.8-3.9,5.7
			s-3.1,3.7-4.8,5.5c-2.8,3-5.8,6.1-9.2,9.3s-6.1,5.8-8.1,7.6h32.2L401.8,658.3L401.8,658.3z"/>
		<path class="st2" d="M424.6,658.3h-10.5v-12.5h10.5V658.3z"/>
		<path class="st2" d="M486,659.5c-4.7,0-8.8-0.5-12.1-1.5c-3.3-1-6.5-2.2-9.4-3.6v-10.9h0.6c2.9,2.7,6.1,4.8,9.8,6.3
			c3.6,1.5,7.1,2.2,10.5,2.2c4.8,0,8.4-1,10.9-3s3.7-4.7,3.7-7.9c0-2.6-0.6-4.7-1.9-6.4c-1.3-1.6-3.3-2.9-6.2-3.6
			c-2-0.6-3.9-1.1-5.5-1.5s-3.8-0.9-6.3-1.5c-2.3-0.6-4.3-1.3-6.1-2.2c-1.8-0.9-3.4-2.1-4.7-3.6c-1.3-1.4-2.4-3.1-3.1-5.1
			s-1.1-4.2-1.1-6.7c0-5.3,2.1-9.7,6.2-13.3s9.4-5.4,15.8-5.4c3.7,0,7.1,0.4,10.4,1.1c3.3,0.7,6.3,1.8,9.1,3.1v10.4h-0.7
			c-2.1-1.9-4.7-3.6-8-5s-6.7-2.1-10.2-2.1c-4,0-7.3,0.9-9.8,2.8c-2.5,1.9-3.7,4.4-3.7,7.4c0,2.8,0.7,5,2.2,6.6s3.6,2.8,6.4,3.6
			c1.8,0.5,4.1,1.1,6.8,1.7c2.7,0.6,4.9,1.2,6.6,1.7c4.5,1.4,7.8,3.5,9.9,6.2c2.1,2.8,3.1,6.2,3.1,10.3c0,2.5-0.5,5.1-1.6,7.6
			c-1,2.5-2.5,4.6-4.4,6.3c-2.1,1.9-4.5,3.4-7.1,4.4C493.3,659,490,659.5,486,659.5z"/>
		<path class="st2" d="M536.9,659.4c-3.4,0-6.5-0.5-9.3-1.6c-2.8-1-5.2-2.6-7.3-4.7s-3.6-4.8-4.7-8c-1.1-3.2-1.7-7-1.7-11.3
			s0.6-8,1.7-11.2c1.2-3.1,2.7-5.8,4.6-7.9s4.3-3.8,7.2-4.9c2.9-1.2,6-1.7,9.3-1.7c2.7,0,5.3,0.4,7.8,1.1s4.7,1.6,6.7,2.6v9.3h-0.5
			c-0.6-0.5-1.3-1.1-2.3-1.7s-2-1.3-3.4-2c-1.1-0.6-2.5-1.1-4-1.5c-1.6-0.4-3-0.7-4.5-0.7c-4.3,0-7.7,1.6-10.3,4.9
			c-2.6,3.2-3.9,7.8-3.9,13.7c0,5.8,1.3,10.3,3.8,13.6s6,4.9,10.4,4.9c2.7,0,5.3-0.6,7.7-1.7c2.4-1.1,4.6-2.5,6.5-4.3h0.5v9.3
			c-0.8,0.4-1.8,0.8-3.1,1.4c-1.2,0.5-2.3,0.9-3.3,1.2c-1.4,0.4-2.7,0.7-3.8,0.9C540.1,659.3,538.7,659.4,536.9,659.4z"/>
		<path class="st2" d="M585,618.1h-0.4c-0.6-0.2-1.3-0.3-2-0.3s-1.5-0.1-2.5-0.1c-2.2,0-4.4,0.5-6.6,1.5s-4.3,2.4-6.2,4.3v34.8H559
			v-49.1h8.3v7.3c3-2.7,5.6-4.5,7.9-5.6c2.2-1.1,4.4-1.6,6.5-1.6c0.8,0,1.5,0,1.9,0.1c0.4,0,0.9,0.1,1.4,0.2L585,618.1L585,618.1z"
			/>
		<path class="st2" d="M631.3,633.8c0,8.3-2,14.6-6,19.1s-9.3,6.7-15.9,6.7c-6.8,0-12.2-2.3-16.1-7c-3.9-4.6-5.9-10.9-5.9-18.9
			c0-8.2,2-14.6,6-19.1s9.3-6.8,15.9-6.8c6.6,0,11.9,2.3,15.9,6.8C629.3,619.2,631.3,625.6,631.3,633.8z M622.8,633.8
			c0-6.4-1.2-11.1-3.5-14.2c-2.3-3.1-5.6-4.6-9.9-4.6c-4.3,0-7.6,1.5-10,4.6s-3.5,7.8-3.5,14.2c0,6.2,1.2,10.8,3.5,14
			s5.6,4.8,10,4.8c4.2,0,7.5-1.6,9.9-4.7C621.6,644.8,622.8,640.1,622.8,633.8z"/>
		<path class="st2" d="M648.2,658.3H640V590h8.3L648.2,658.3L648.2,658.3z"/>
		<path class="st2" d="M669.1,658.3h-8.3V590h8.3V658.3z"/>
		<path class="st2" d="M747.1,658.3h-8.3v-5c-1.3,1.1-2.4,2-3.3,2.7c-0.9,0.7-2,1.3-3.3,1.9c-1.2,0.6-2.4,1-3.6,1.3
			c-1.3,0.3-2.7,0.5-4.4,0.5c-2.7,0-5.1-0.6-7.4-1.7c-2.3-1.1-4.2-2.7-5.8-4.9s-2.9-4.8-3.7-8s-1.3-6.8-1.3-11c0-4.3,0.6-8,1.7-11.2
			c1.1-3.1,2.7-5.9,4.6-8.2c1.8-2.1,3.9-3.8,6.5-5c2.5-1.2,5.2-1.8,8-1.8c2.5,0,4.6,0.3,6.4,0.8c1.8,0.5,3.7,1.4,5.8,2.5V590h8.3
			v68.3H747.1z M738.8,646.4v-28.3c-2.1-1-3.9-1.7-5.5-2.1s-3.4-0.6-5.3-0.6c-4.2,0-7.6,1.6-10,4.8s-3.6,7.8-3.6,13.8
			c0,5.8,0.9,10.2,2.8,13.2s4.8,4.6,8.9,4.6c2.2,0,4.4-0.5,6.5-1.5C734.8,649.4,736.9,648,738.8,646.4z"/>
		<path class="st2" d="M799.4,633.8c0,8.3-2,14.6-6,19.1s-9.3,6.7-15.9,6.7c-6.8,0-12.2-2.3-16.1-7c-3.9-4.6-5.9-10.9-5.9-18.9
			c0-8.2,2-14.6,6-19.1s9.3-6.8,15.9-6.8c6.6,0,11.9,2.3,15.9,6.8C797.5,619.2,799.4,625.6,799.4,633.8z M790.9,633.8
			c0-6.4-1.2-11.1-3.5-14.2c-2.3-3.1-5.6-4.6-9.9-4.6c-4.3,0-7.6,1.5-10,4.6s-3.5,7.8-3.5,14.2c0,6.2,1.2,10.8,3.5,14
			s5.6,4.8,10,4.8c4.2,0,7.5-1.6,9.9-4.7C789.8,644.8,790.9,640.1,790.9,633.8z"/>
		<path class="st2" d="M867.4,609.2L855,658.3h-7.6l-12-37.8l-11.9,37.8h-7.6l-12.6-49.1h8.6l8.7,38l11.6-38h6.8l12,38l8.2-38H867.4
			z"/>
		<path class="st2" d="M913.3,658.3H905v-27.9c0-2.3-0.1-4.4-0.3-6.3c-0.2-1.9-0.6-3.5-1.3-4.7s-1.6-2.1-2.8-2.7
			c-1.2-0.6-2.8-0.9-4.9-0.9c-2.1,0-4.2,0.5-6.4,1.6s-4.3,2.5-6.4,4.3v36.7h-8.3v-49.1h8.3v5.4c2.5-2.2,4.9-3.9,7.3-5.1
			c2.4-1.2,4.9-1.8,7.6-1.8c4.8,0,8.6,1.6,11.3,4.8s4.1,7.8,4.1,13.8v31.9H913.3z"/>
		<path class="st2" d="M967.9,659.3c-4.5,0-8-1.3-10.5-3.8c-2.5-2.6-3.8-6.6-3.8-12.2v-27.2H948v-6.9h5.6v-14.1h8.3v14.1H977v6.9
			h-15.2v23.3c0,2.5,0,4.4,0.1,5.8s0.4,2.6,1,3.8c0.5,1,1.3,1.8,2.4,2.3s2.6,0.8,4.5,0.8c1.3,0,2.7-0.2,3.9-0.6
			c1.3-0.4,2.2-0.7,2.7-1h0.5v7.4c-1.6,0.4-3.1,0.8-4.7,1C970.7,659.2,969.2,659.3,967.9,659.3z"/>
		<path class="st2" d="M1023.5,633.8c0,8.3-2,14.6-6,19.1s-9.3,6.7-15.9,6.7c-6.8,0-12.2-2.3-16.1-7c-3.9-4.6-5.9-10.9-5.9-18.9
			c0-8.2,2-14.6,6-19.1s9.3-6.8,15.9-6.8c6.6,0,11.9,2.3,15.9,6.8C1021.5,619.2,1023.5,625.6,1023.5,633.8z M1015,633.8
			c0-6.4-1.2-11.1-3.5-14.2s-5.6-4.6-9.9-4.6c-4.3,0-7.6,1.5-10,4.6c-2.3,3.1-3.5,7.8-3.5,14.2c0,6.2,1.2,10.8,3.5,14
			s5.6,4.8,10,4.8c4.2,0,7.5-1.6,9.9-4.7C1013.8,644.8,1015,640.1,1015,633.8z"/>
		<path class="st2" d="M1086,597.9h-0.4c-0.7-0.3-1.8-0.5-3.2-0.8c-1.4-0.2-2.6-0.4-3.7-0.4c-3.5,0-6,0.8-7.4,2.4s-2.2,4.4-2.2,8.5
			v1.7h13.7v6.9h-13.4v42.2h-8.3v-42.2h-5.6v-6.9h5.6v-1.6c0-5.9,1.4-10.4,4.3-13.5s6.9-4.6,12.2-4.6c1.5,0,3,0.1,4.5,0.2
			s2.8,0.3,4,0.5L1086,597.9L1086,597.9z"/>
		<path class="st2" d="M1097.8,601h-9.4v-8.6h9.4V601z M1097.2,658.3h-8.3v-49.1h8.3V658.3z"/>
		<path class="st2" d="M1147.9,658.3h-8.3v-27.9c0-2.3-0.1-4.4-0.3-6.3c-0.2-1.9-0.6-3.5-1.3-4.7c-0.7-1.2-1.6-2.1-2.8-2.7
			s-2.8-0.9-4.9-0.9s-4.2,0.5-6.3,1.6c-2.2,1.1-4.3,2.5-6.4,4.3v36.7h-8.3v-49.1h8.3v5.4c2.5-2.2,4.9-3.9,7.3-5.1s4.9-1.8,7.6-1.8
			c4.8,0,8.6,1.6,11.3,4.8c2.7,3.2,4.1,7.8,4.1,13.8L1147.9,658.3L1147.9,658.3z"/>
		<path class="st2" d="M1197.3,658.3h-8.3v-5c-1.3,1.1-2.4,2-3.3,2.7s-2,1.3-3.3,1.9c-1.2,0.6-2.4,1-3.6,1.3
			c-1.3,0.3-2.7,0.5-4.4,0.5c-2.7,0-5.1-0.6-7.4-1.7c-2.3-1.1-4.2-2.7-5.8-4.9c-1.6-2.2-2.9-4.8-3.7-8s-1.3-6.8-1.3-11
			c0-4.3,0.6-8,1.7-11.2s2.7-5.9,4.6-8.2c1.8-2.1,3.9-3.8,6.5-5c2.5-1.2,5.2-1.8,8-1.8c2.5,0,4.6,0.3,6.4,0.8s3.7,1.4,5.8,2.5V590
			h8.3v68.3H1197.3z M1189.1,646.4v-28.3c-2.1-1-3.9-1.7-5.5-2.1c-1.6-0.4-3.4-0.6-5.3-0.6c-4.2,0-7.6,1.6-10,4.8s-3.6,7.8-3.6,13.8
			c0,5.8,0.9,10.2,2.8,13.2s4.8,4.6,8.9,4.6c2.2,0,4.4-0.5,6.5-1.5C1185.1,649.4,1187.1,648,1189.1,646.4z"/>
		<path class="st2" d="M1231,658.3l22.1-65.4h10.7l22.1,65.4h-9.2l-5.9-18.3h-25l-5.9,18.3H1231z M1268.3,632.6l-10.1-30.8
			l-10.1,30.8H1268.3z"/>
		<path class="st2" d="M1329.2,658.3h-8.3v-5c-1.3,1.1-2.4,2-3.3,2.7s-2,1.3-3.3,1.9c-1.2,0.6-2.4,1-3.6,1.3
			c-1.3,0.3-2.7,0.5-4.4,0.5c-2.7,0-5.1-0.6-7.4-1.7c-2.3-1.1-4.2-2.7-5.8-4.9c-1.6-2.2-2.9-4.8-3.7-8s-1.3-6.8-1.3-11
			c0-4.3,0.6-8,1.7-11.2s2.7-5.9,4.6-8.2c1.8-2.1,3.9-3.8,6.5-5c2.5-1.2,5.2-1.8,8-1.8c2.5,0,4.6,0.3,6.4,0.8s3.7,1.4,5.8,2.5V590
			h8.3v68.3H1329.2z M1320.9,646.4v-28.3c-2.1-1-3.9-1.7-5.5-2.1c-1.6-0.4-3.4-0.6-5.3-0.6c-4.2,0-7.6,1.6-10,4.8s-3.6,7.8-3.6,13.8
			c0,5.8,0.9,10.2,2.8,13.2s4.8,4.6,8.9,4.6c2.2,0,4.4-0.5,6.5-1.5C1316.9,649.4,1319,648,1320.9,646.4z"/>
		<path class="st2" d="M1378.9,658.3h-8.3v-5c-1.3,1.1-2.4,2-3.3,2.7s-2,1.3-3.3,1.9c-1.2,0.6-2.4,1-3.6,1.3
			c-1.3,0.3-2.7,0.5-4.4,0.5c-2.7,0-5.1-0.6-7.4-1.7c-2.3-1.1-4.2-2.7-5.8-4.9c-1.6-2.2-2.9-4.8-3.7-8s-1.3-6.8-1.3-11
			c0-4.3,0.6-8,1.7-11.2s2.7-5.9,4.6-8.2c1.8-2.1,3.9-3.8,6.5-5c2.5-1.2,5.2-1.8,8-1.8c2.5,0,4.6,0.3,6.4,0.8s3.7,1.4,5.8,2.5V590
			h8.3v68.3H1378.9z M1370.7,646.4v-28.3c-2.1-1-3.9-1.7-5.5-2.1c-1.6-0.4-3.4-0.6-5.3-0.6c-4.2,0-7.6,1.6-10,4.8s-3.6,7.8-3.6,13.8
			c0,5.8,0.9,10.2,2.8,13.2s4.8,4.6,8.9,4.6c2.2,0,4.4-0.5,6.5-1.5C1366.7,649.4,1368.7,648,1370.7,646.4z"/>
		<path class="st2" d="M1433.8,659.3c-4.5,0-8-1.3-10.5-3.8c-2.5-2.6-3.8-6.6-3.8-12.2v-27.2h-5.6v-6.9h5.6v-14.1h8.3v14.1h15.2v6.9
			h-15.2v23.3c0,2.5,0,4.4,0.1,5.8s0.4,2.6,1,3.8c0.5,1,1.3,1.8,2.4,2.3s2.6,0.8,4.5,0.8c1.3,0,2.7-0.2,3.9-0.6
			c1.3-0.4,2.2-0.7,2.7-1h0.5v7.4c-1.6,0.4-3.1,0.8-4.7,1C1436.7,659.2,1435.2,659.3,1433.8,659.3z"/>
		<path class="st2" d="M1489.5,633.8c0,8.3-2,14.6-6,19.1s-9.3,6.7-15.9,6.7c-6.8,0-12.2-2.3-16.1-7c-3.9-4.6-5.9-10.9-5.9-18.9
			c0-8.2,2-14.6,6-19.1s9.3-6.8,15.9-6.8s11.9,2.3,15.9,6.8C1487.5,619.2,1489.5,625.6,1489.5,633.8z M1481,633.8
			c0-6.4-1.2-11.1-3.5-14.2s-5.6-4.6-9.9-4.6s-7.6,1.5-10,4.6c-2.3,3.1-3.5,7.8-3.5,14.2c0,6.2,1.2,10.8,3.5,14s5.6,4.8,10,4.8
			c4.2,0,7.5-1.6,9.9-4.7C1479.8,644.8,1481,640.1,1481,633.8z"/>
		<path class="st2" d="M1574.2,658.3h-8.7v-32h-30.1v32h-8.7v-65.4h8.7v25.7h30.1v-25.7h8.7V658.3z"/>
		<path class="st2" d="M1627.2,633.8c0,8.3-2,14.6-6,19.1s-9.3,6.7-15.9,6.7c-6.8,0-12.2-2.3-16.1-7c-3.9-4.6-5.9-10.9-5.9-18.9
			c0-8.2,2-14.6,6-19.1s9.3-6.8,15.9-6.8s11.9,2.3,15.9,6.8C1625.3,619.2,1627.2,625.6,1627.2,633.8z M1618.7,633.8
			c0-6.4-1.2-11.1-3.5-14.2s-5.6-4.6-9.9-4.6s-7.6,1.5-10,4.6c-2.3,3.1-3.5,7.8-3.5,14.2c0,6.2,1.2,10.8,3.5,14s5.6,4.8,10,4.8
			c4.2,0,7.5-1.6,9.9-4.7C1617.6,644.8,1618.7,640.1,1618.7,633.8z"/>
		<path class="st2" d="M1691.5,658.3v-28.4c0-2.3-0.1-4.3-0.3-6.3s-0.5-3.4-1.1-4.5c-0.6-1.2-1.4-2-2.5-2.6s-2.5-0.8-4.4-0.8
			c-1.7,0-3.5,0.5-5.5,1.6c-1.9,1-4,2.5-6,4.5c0,0.5,0.1,1.1,0.1,1.8s0.1,1.5,0.1,2.4v32.3h-8.3v-28.4c0-2.3-0.1-4.3-0.3-6.3
			s-0.5-3.4-1.1-4.5c-0.6-1.2-1.4-2-2.5-2.6s-2.5-0.8-4.4-0.8c-1.8,0-3.7,0.6-5.6,1.7s-3.9,2.5-5.7,4.3v36.7h-8.3v-49.1h8.3v5.4
			c2.2-2.2,4.3-3.8,6.4-5s4.5-1.8,7-1.8c2.9,0,5.5,0.7,7.7,2s3.9,3.5,5.1,6.5c2.5-2.8,4.9-4.9,7.3-6.3s5-2.2,7.7-2.2
			c2.1,0,4,0.3,5.8,1c1.7,0.7,3.2,1.7,4.5,3.2s2.3,3.4,3.1,5.6c0.7,2.2,1.1,5,1.1,8.4v32.3h-8.2V658.3z"/>
		<path class="st2" d="M1732.6,659.5c-7.8,0-13.9-2.2-18.2-6.6s-6.5-10.7-6.5-18.8c0-8,2.1-14.4,6.3-19.1s9.7-7.1,16.4-7.1
			c3,0,5.7,0.4,8.1,1.3s4.4,2.3,6.2,4.1s3.1,4.2,4,6.9s1.4,6,1.4,10v4.5h-34c0,5.7,1.4,10.1,4.3,13.1s6.8,4.5,11.9,4.5
			c1.8,0,3.6-0.2,5.3-0.6s3.3-0.9,4.7-1.6c1.5-0.7,2.8-1.3,3.8-2s1.9-1.2,2.5-1.8h0.5v9c-1,0.4-2.2,0.9-3.6,1.4
			c-1.4,0.6-2.7,1-3.9,1.3c-1.6,0.4-3.1,0.8-4.4,1C1736.3,659.4,1734.6,659.5,1732.6,659.5z M1742.3,628.3c-0.1-2.2-0.3-4.1-0.8-5.8
			s-1.1-3-2-4.1c-1-1.2-2.2-2.2-3.7-2.8s-3.4-1-5.6-1s-4.1,0.3-5.6,1s-2.9,1.6-4.2,2.9c-1.2,1.3-2.2,2.7-2.8,4.3
			c-0.6,1.6-1.1,3.4-1.2,5.5L1742.3,628.3L1742.3,628.3z"/>
	</g>
	<g class="st1">
		<path class="st2" d="M381.5,767.5c-4.7,0-8.8-0.5-12.1-1.5c-3.3-1-6.5-2.2-9.4-3.6v-10.9h0.6c2.9,2.7,6.1,4.8,9.8,6.3
			c3.6,1.5,7.1,2.2,10.5,2.2c4.8,0,8.4-1,10.9-3s3.7-4.7,3.7-7.9c0-2.6-0.6-4.7-1.9-6.4c-1.3-1.6-3.3-2.9-6.2-3.6
			c-2-0.6-3.9-1.1-5.5-1.5s-3.8-0.9-6.3-1.5c-2.3-0.6-4.3-1.3-6.1-2.2c-1.8-0.9-3.4-2.1-4.7-3.6c-1.3-1.4-2.4-3.1-3.1-5.1
			s-1.1-4.2-1.1-6.7c0-5.3,2.1-9.7,6.2-13.3s9.4-5.4,15.8-5.4c3.7,0,7.1,0.4,10.4,1.1c3.3,0.7,6.3,1.8,9.1,3.1v10.4h-0.7
			c-2.1-1.9-4.7-3.6-8-5s-6.7-2.1-10.2-2.1c-4,0-7.3,0.9-9.8,2.8c-2.5,1.9-3.7,4.4-3.7,7.4c0,2.8,0.7,5,2.2,6.6s3.6,2.8,6.4,3.6
			c1.8,0.5,4.1,1.1,6.8,1.7c2.7,0.6,4.9,1.2,6.6,1.7c4.5,1.4,7.8,3.5,9.9,6.2c2.1,2.8,3.1,6.2,3.1,10.3c0,2.5-0.5,5.1-1.6,7.6
			c-1,2.5-2.5,4.6-4.4,6.3c-2.1,1.9-4.5,3.4-7.1,4.4C388.8,767,385.5,767.5,381.5,767.5z"/>
		<path class="st2" d="M432.4,767.4c-3.4,0-6.5-0.5-9.3-1.6c-2.8-1-5.2-2.6-7.3-4.7s-3.6-4.8-4.7-8s-1.7-7-1.7-11.3s0.6-8,1.7-11.2
			c1.2-3.1,2.7-5.8,4.6-7.9s4.3-3.8,7.2-4.9c2.9-1.2,6-1.7,9.3-1.7c2.7,0,5.3,0.4,7.8,1.1s4.7,1.6,6.7,2.6v9.3h-0.5
			c-0.6-0.5-1.3-1.1-2.3-1.7s-2-1.3-3.4-2c-1.1-0.6-2.5-1.1-4-1.5c-1.6-0.4-3-0.7-4.5-0.7c-4.3,0-7.7,1.6-10.3,4.9
			c-2.6,3.2-3.9,7.8-3.9,13.7c0,5.8,1.3,10.3,3.8,13.6s6,4.9,10.4,4.9c2.7,0,5.3-0.6,7.7-1.7c2.4-1.1,4.6-2.5,6.5-4.3h0.5v9.3
			c-0.8,0.4-1.8,0.8-3.1,1.4c-1.2,0.5-2.3,0.9-3.3,1.2c-1.4,0.4-2.7,0.7-3.8,0.9C435.6,767.3,434.2,767.4,432.4,767.4z"/>
		<path class="st2" d="M480.4,726.1H480c-0.6-0.2-1.3-0.3-2-0.3s-1.5-0.1-2.5-0.1c-2.2,0-4.4,0.5-6.6,1.5s-4.3,2.4-6.2,4.3v34.8
			h-8.3v-49.1h8.3v7.3c3-2.7,5.6-4.5,7.9-5.6c2.2-1.1,4.4-1.6,6.5-1.6c0.8,0,1.5,0,1.9,0.1c0.4,0,0.9,0.1,1.4,0.2L480.4,726.1
			L480.4,726.1z"/>
		<path class="st2" d="M507.7,767.5c-7.8,0-13.9-2.2-18.2-6.6c-4.3-4.4-6.5-10.7-6.5-18.8c0-8,2.1-14.4,6.3-19.1
			c4.2-4.7,9.7-7.1,16.4-7.1c3,0,5.7,0.4,8.1,1.3c2.3,0.9,4.4,2.3,6.2,4.1s3.1,4.2,4,6.9s1.4,6,1.4,10v4.5h-34
			c0,5.7,1.4,10.1,4.3,13.1s6.8,4.5,11.9,4.5c1.8,0,3.6-0.2,5.3-0.6c1.7-0.4,3.3-0.9,4.7-1.6c1.5-0.7,2.8-1.3,3.8-2
			c1-0.6,1.9-1.2,2.5-1.8h0.5v9c-1,0.4-2.2,0.9-3.6,1.4c-1.4,0.6-2.7,1-3.9,1.3c-1.6,0.4-3.1,0.8-4.4,1
			C511.4,767.4,509.7,767.5,507.7,767.5z M517.4,736.3c-0.1-2.2-0.3-4.1-0.8-5.8c-0.5-1.6-1.1-3-2-4.1c-1-1.2-2.2-2.2-3.7-2.8
			s-3.4-1-5.6-1s-4.1,0.3-5.6,1s-2.9,1.6-4.2,2.9c-1.2,1.3-2.2,2.7-2.8,4.3c-0.6,1.6-1.1,3.4-1.2,5.5L517.4,736.3L517.4,736.3z"/>
		<path class="st2" d="M555.1,767.5c-7.8,0-13.9-2.2-18.2-6.6c-4.3-4.4-6.5-10.7-6.5-18.8c0-8,2.1-14.4,6.3-19.1
			c4.2-4.7,9.7-7.1,16.4-7.1c3,0,5.7,0.4,8.1,1.3c2.3,0.9,4.4,2.3,6.2,4.1s3.1,4.2,4,6.9s1.4,6,1.4,10v4.5h-34
			c0,5.7,1.4,10.1,4.3,13.1c2.9,3,6.8,4.5,11.9,4.5c1.8,0,3.6-0.2,5.3-0.6c1.7-0.4,3.3-0.9,4.7-1.6c1.5-0.7,2.8-1.3,3.8-2
			c1-0.6,1.9-1.2,2.5-1.8h0.5v9c-1,0.4-2.2,0.9-3.6,1.4c-1.4,0.6-2.7,1-3.9,1.3c-1.6,0.4-3.1,0.8-4.4,1
			C558.8,767.4,557.1,767.5,555.1,767.5z M564.8,736.3c-0.1-2.2-0.3-4.1-0.8-5.8c-0.5-1.6-1.1-3-2-4.1c-1-1.2-2.2-2.2-3.7-2.8
			s-3.4-1-5.6-1c-2.2,0-4.1,0.3-5.6,1s-2.9,1.6-4.2,2.9c-1.2,1.3-2.2,2.7-2.8,4.3s-1.1,3.4-1.2,5.5L564.8,736.3L564.8,736.3z"/>
		<path class="st2" d="M619.8,766.3h-8.3v-27.9c0-2.3-0.1-4.4-0.3-6.3c-0.2-1.9-0.6-3.5-1.3-4.7s-1.6-2.1-2.8-2.7
			c-1.2-0.6-2.8-0.9-4.9-0.9c-2.1,0-4.2,0.5-6.4,1.6s-4.3,2.5-6.4,4.3v36.7h-8.3v-49.1h8.3v5.4c2.5-2.2,4.9-3.9,7.3-5.1
			c2.4-1.2,4.9-1.8,7.6-1.8c4.8,0,8.6,1.6,11.3,4.8s4.1,7.8,4.1,13.8v31.9H619.8z"/>
	</g>
	<g>
		<path class="st6" d="M234.3,437.2h-47.8c-12.3,0-22.2-9.9-22.2-22.2v-59.1c0-12.3,9.9-22.2,22.2-22.2h47.8
			c12.3,0,22.2,9.9,22.2,22.2V415C256.5,427.3,246.5,437.2,234.3,437.2z"/>
		<path class="st2" d="M234.3,442.2h-47.8c-15,0-27.2-12.2-27.2-27.2v-59.1c0-15,12.2-27.2,27.2-27.2h47.8c15,0,27.2,12.2,27.2,27.2
			V415C261.5,430,249.3,442.2,234.3,442.2z M186.5,338.7c-9.5,0-17.2,7.7-17.2,17.2V415c0,9.5,7.7,17.2,17.2,17.2h47.8
			c9.5,0,17.2-7.7,17.2-17.2v-59.1c0-9.5-7.7-17.2-17.2-17.2L186.5,338.7L186.5,338.7z"/>
	</g>
	<path class="st7" d="M-1.7,355.2"/>
	<rect x="205.4" y="287.6" class="st2" width="10" height="82.9"/>
	
		<rect x="217.3" y="286.6" transform="matrix(0.7571 -0.6533 0.6533 0.7571 -145.183 219.3214)" class="st2" width="10" height="36.6"/>
	
		<rect x="180.1" y="299.8" transform="matrix(0.6548 -0.7558 0.7558 0.6548 -161.8865 255.2346)" class="st2" width="36.7" height="10"/>
	<path class="st6" d="M273.4,780.3H147.3c-19.4,0-35.1-15.7-35.1-35.1V619c0-19.4,15.7-35.1,35.1-35.1h126.1
		c19.4,0,35.1,15.7,35.1,35.1v126.1C308.5,764.5,292.8,780.3,273.4,780.3z"/>
	<rect x="208.4" y="626.9" class="st2" width="10" height="113.2"/>
	<rect x="159.4" y="678.5" class="st2" width="105.9" height="10"/>
</g>
<g id="Layer_3">
</g>
</svg>
